<?xml version="1.0" encoding="UTF-8"?>
<!-- Created with Grafika (https://www.grafika.cc/) -->
<!-- #000000 => var(--fg),  #ffffff => var(--bg) -->
<svg xmlns="http://www.w3.org/2000/svg" xmlns:svg="http://www.w3.org/2000/svg" xmlns:xlink="http://www.w3.org/1999/xlink" width="800" height="450" viewBox="0 0 800 450" preserveAspectRatio="xMidYMid meet">
	<rect x="0" y="0" width="800" height="450" fill="var(--bg)" />
	<path d="M28.05,37.09 L28.05,37.58 L28.05,46.78 L27.56,55.82 L27.56,65.48 L27.56,74.19 L27.56,78.07 L27.56,88.97" fill-rule="evenodd" style="fill:none;stroke:var(--fg);stroke-linecap:round;stroke-linejoin:round;stroke-width:8;" />
	<path d="M39.15,57.85 L39.15,57.61 Q39.15,57.37 40.6,53.74 Q42.05,50.12 44.69,52.76 Q47.33,55.4 49.51,58.3 Q51.68,61.21 55.29,63.62 Q58.9,66.03 62.53,65.8 Q66.16,65.57 68.33,61.73 Q70.5,57.89 72.19,53.79 L73.88,49.68 L75.33,45.57 L76.8,41.44" fill-rule="evenodd" style="fill:none;stroke:var(--fg);stroke-linecap:round;stroke-linejoin:round;stroke-width:8;" />
	<path d="M61.83,33.71 L61.83,33.96 Q61.83,34.2 60.39,40.17 L58.96,46.15 L57.51,54.31 L56.54,62.53 L55.58,70.23 L54.61,80.35 L54.11,89.07 L53.63,92.75 L52.18,96.94" fill-rule="evenodd" style="fill:none;stroke:var(--fg);stroke-linecap:round;stroke-linejoin:round;stroke-width:8;" />
	<path d="M80.17,34.2 L80.17,34.44 Q80.17,34.68 82.8,38.02 Q85.43,41.36 90.24,46.64 Q95.04,51.93 98.2,54.86 Q101.36,57.79 103.8,60.48 Q106.24,63.16 101.92,65.07 Q97.6,66.98 93.98,69.63 Q90.37,72.27 87.47,74.69 L84.57,77.1 L81.77,79.54 L74.15,83.91" fill-rule="evenodd" style="fill:none;stroke:var(--fg);stroke-linecap:round;stroke-linejoin:round;stroke-width:8;" />
	<path d="M129.29,59.57 L129.72,59.57 L130.14,59.57 L137.18,58.82 Q144.22,58.07 147.99,57.32 L156.71,55.33" fill-rule="evenodd" style="fill:none;stroke:var(--fg);stroke-linecap:round;stroke-linejoin:round;stroke-width:8;" />
	<path d="M128.3,77.51 L129.47,77.51 L130.64,77.51 L135.96,78.19 Q141.27,78.87 146.68,79.42 Q152.08,79.98 156.13,80.25 L160.7,79.01" fill-rule="evenodd" style="fill:none;stroke:var(--fg);stroke-linecap:round;stroke-linejoin:round;stroke-width:8;" />
	<path d="M209.05,50.09 L208.8,50.09 Q208.55,50.09 203.86,54.78 L194.93,63.72 Q190.68,67.97 187.67,70.24 Q184.66,72.51 180.66,71.28 Q176.67,70.05 176.4,65.33 Q176.13,60.6 179.11,57.35 Q182.09,54.11 186.33,56.57 Q190.57,59.03 193.05,62.25 Q195.53,65.47 199.51,67.97 Q203.49,70.48 207.5,71.99 L214.53,75.26" fill-rule="evenodd" style="fill:none;stroke:var(--fg);stroke-linecap:round;stroke-linejoin:round;stroke-width:8;" />
	<path d="M227.99,25.67 L228.24,25.92 Q228.49,26.17 230.72,32.35 Q232.94,38.52 233.69,42.5 L234.44,46.47 L235.69,51.97 Q236.95,57.48 236.22,62.48 L235.49,67.48 L234.48,72.22 Q233.48,76.96 233.48,81.69 L234.47,90.71" fill-rule="evenodd" style="fill:none;stroke:var(--fg);stroke-linecap:round;stroke-linejoin:round;stroke-width:8;" />
	<path d="M253.42,44.61 L253.42,45.11 L253.18,49.88 Q252.94,54.66 254.9,59.32 Q256.86,63.99 259.87,66.76 Q262.87,69.52 265.87,67.05 Q268.87,64.57 268.12,60.58 Q267.37,56.6 264.89,53.6 L258.4,48.1" fill-rule="evenodd" style="fill:none;stroke:var(--fg);stroke-linecap:round;stroke-linejoin:round;stroke-width:8;" />
	<path d="M269.37,22.68 L269.37,22.93 Q269.37,23.18 272.37,26.67 L275.36,30.17 L281.16,37.23 Q286.95,44.28 290.8,48.35 L294.65,52.43 L297.17,55.2 Q299.69,57.97 296.76,62.48 Q293.83,66.99 289.13,70.71 L284.43,74.44 L275.91,80.94 L272.76,83.21 L268.13,86.48" fill-rule="evenodd" style="fill:none;stroke:var(--fg);stroke-linecap:round;stroke-linejoin:round;stroke-width:8;" />
	<path d="M313.05,57.94 L313.59,57.94 L314.12,57.94 L318.66,58.19 Q323.19,58.44 327.05,59.18 L335.38,60.92" fill-rule="evenodd" style="fill:none;stroke:var(--fg);stroke-linecap:round;stroke-linejoin:round;stroke-width:8;" />
	<path d="M326.45,41.07 L326.45,41.91 L326.45,50.74 L326.45,60.04 L327.42,70.56 L327.43,75.86 L327.44,82.26" fill-rule="evenodd" style="fill:none;stroke:var(--fg);stroke-linecap:round;stroke-linejoin:round;stroke-width:8;" />
	<path d="M356.72,107.57 L356.94,106.85 Q357.17,106.13 356.94,99.71 Q356.72,93.3 355.47,87.49 L354.23,81.68 L352.98,75.2 Q351.73,68.71 351.98,63.37 Q352.23,58.04 353.22,53.1 L354.22,48.15 L355.21,42.43 Q356.2,36.71 357.68,32.48 Q359.15,28.24 362.38,25.97 Q365.61,23.7 367.62,26.9 Q369.62,30.11 368.89,35.05 Q368.16,39.99 366.67,43.47 Q365.18,46.96 369.59,49.46 Q374.01,51.97 377.02,54.19 Q380.03,56.41 377.08,59.89 Q374.13,63.36 370.43,64.36 Q366.73,65.36 362.24,65.14 L355.98,64.89" fill-rule="evenodd" style="fill:none;stroke:var(--fg);stroke-linecap:round;stroke-linejoin:round;stroke-width:8;" />
	<path d="M398.24,18.18 L398.24,18.69 L397.73,27.14 L397.23,41.7 L396.72,61.28 L395.74,73.36 L395.72,81.02 L395.46,85.36 L394.71,93.29" fill-rule="evenodd" style="fill:none;stroke:var(--fg);stroke-linecap:round;stroke-linejoin:round;stroke-width:8;" />
	<path d="M424.45,35.82 L424.45,36.33 L423.94,50.99 L423.94,60.09 L423.94,65.06 Q423.94,70.04 424.7,73.84 L427.71,82.44" fill-rule="evenodd" style="fill:none;stroke:var(--fg);stroke-linecap:round;stroke-linejoin:round;stroke-width:8;" />
	<path d="M422.93,34.82 L422.68,34.82 Q422.43,34.82 418.4,37.84 L414.11,41.12" fill-rule="evenodd" style="fill:none;stroke:var(--fg);stroke-linecap:round;stroke-linejoin:round;stroke-width:8;" />
	<path d="M415.88,82.7 L415.88,82.45 Q415.88,82.2 420.17,80.94 L425.97,79.17" fill-rule="evenodd" style="fill:none;stroke:var(--fg);stroke-linecap:round;stroke-linejoin:round;stroke-width:8;" />
	<path d="M439.57,16.67 L439.57,16.92 Q439.57,17.17 441.51,20.56 Q443.46,23.94 447.1,28.11 Q450.75,32.29 455.07,36.65 L459.38,41.02 L463.18,44.61 Q466.98,48.19 470.05,50.51 Q473.13,52.82 472.79,57.36 Q472.46,61.91 468.63,65.97 Q464.81,70.04 461.29,74.57 L457.76,79.1 L455.23,82.4 L448.89,90.01" fill-rule="evenodd" style="fill:none;stroke:var(--fg);stroke-linecap:round;stroke-linejoin:round;stroke-width:8;" />
	<path d="M254.69,184.99 L254.28,184.99 Q253.86,184.99 248.05,189.12 Q242.24,193.25 238.07,198.24 Q233.91,203.24 230.98,209.9 Q228.05,216.56 230.52,222.41 Q233,228.25 238.83,231.6 Q244.66,234.95 250.9,232.87 Q257.13,230.79 262.14,226.64 Q267.15,222.5 270.06,216.67 Q272.98,210.84 272.58,204.18 Q272.18,197.51 265.98,192.92 L257.19,187.49" fill-rule="evenodd" style="fill:none;stroke:var(--fg);stroke-linecap:round;stroke-linejoin:round;stroke-width:8;" />
	<path d="M292.17,181.66 L292.17,182.46 Q292.17,183.26 293,190.79 L293.83,198.32 L294.68,205.42 L295.5,215.86" fill-rule="evenodd" style="fill:none;stroke:var(--fg);stroke-linecap:round;stroke-linejoin:round;stroke-width:8;" />
	<path d="M320.48,177.49 L320.48,178.32 L320.47,185.79 L322.15,204.14" fill-rule="evenodd" style="fill:none;stroke:var(--fg);stroke-linecap:round;stroke-linejoin:round;stroke-width:8;" />
	<path d="M354.62,175.83 L354.21,175.83 Q353.79,175.83 352.54,182.51 Q351.29,189.19 352.53,195.79 Q353.76,202.4 357.51,208.65 Q361.26,214.91 367.5,215.36 Q373.74,215.8 377.49,209.57 Q381.24,203.34 380.84,197.1 Q380.44,190.85 377.13,185.44 Q373.82,180.03 367.57,177.93 L361.29,175.83" fill-rule="evenodd" style="fill:none;stroke:var(--fg);stroke-linecap:round;stroke-linejoin:round;stroke-width:8;" />
	<path d="M252.2,257.44 L252.2,258.27 L251.78,264.55 L249.7,280.75" fill-rule="evenodd" style="fill:none;stroke:var(--fg);stroke-linecap:round;stroke-linejoin:round;stroke-width:8;" />
	<path d="M287.17,254.94 L286.75,254.94 Q286.34,254.94 285.09,261.57 Q283.84,268.2 286.74,274.46 Q289.64,280.72 296.29,281.57 Q302.93,282.42 306.3,276.61 Q309.66,270.79 307.99,263.71 Q306.32,256.64 300.53,253.72 L289.67,249.11" fill-rule="evenodd" style="fill:none;stroke:var(--fg);stroke-linecap:round;stroke-linejoin:round;stroke-width:8;" />
	<path d="M331.31,250.77 L331.31,251.61 L332.14,267.48 L332.14,274.1 L332.97,282.42" fill-rule="evenodd" style="fill:none;stroke:var(--fg);stroke-linecap:round;stroke-linejoin:round;stroke-width:8;" />
	<path d="M369.61,244.95 L369.61,245.78 L371.28,262.43 L371.28,268.71 L371.28,285.75" fill-rule="evenodd" style="fill:none;stroke:var(--fg);stroke-linecap:round;stroke-linejoin:round;stroke-width:8;" />
	<path d="M251.36,314.06 L251.36,315.76 L251.78,322.43 L251.36,340.71" fill-rule="evenodd" style="fill:none;stroke:var(--fg);stroke-linecap:round;stroke-linejoin:round;stroke-width:8;" />
	<path d="M293.83,309.07 L293.83,309.9 L294.67,318.57 L297.16,337.38" fill-rule="evenodd" style="fill:none;stroke:var(--fg);stroke-linecap:round;stroke-linejoin:round;stroke-width:8;" />
	<path d="M332.14,307.4 L332.14,308.23 L332.56,314.89 L333.81,331.55" fill-rule="evenodd" style="fill:none;stroke:var(--fg);stroke-linecap:round;stroke-linejoin:round;stroke-width:8;" />
	<path d="M372.11,307.4 L372.11,307.82 Q372.11,308.23 370.86,314.46 Q369.61,320.69 372.52,326.53 Q375.42,332.36 382.06,334.87 Q388.69,337.38 394.13,334.07 Q399.56,330.75 399.16,324.09 Q398.76,317.43 392.13,313.67 L385.44,309.9" fill-rule="evenodd" style="fill:none;stroke:var(--fg);stroke-linecap:round;stroke-linejoin:round;stroke-width:8;" />
	<path d="M232.21,174.99 L231.4,174.18 Q230.59,173.37 223.12,170.44 Q215.65,167.5 208.56,169.96 Q201.47,172.42 198.14,177.8 Q194.81,183.18 192.29,190.24 Q189.78,197.29 189.34,207.69 Q188.91,218.09 190.14,228.47 Q191.37,238.86 193.43,248.05 L195.49,257.25 L197.99,265.96 Q200.48,274.67 201.75,281.79 L203.02,288.91 L205.53,302.31 L207.23,314.83 L208.46,321.9 Q209.69,328.98 210.12,335.25 L221.38,346.54" fill-rule="evenodd" style="fill:none;stroke:var(--fg);stroke-linecap:round;stroke-linejoin:round;stroke-width:8;" />
	<path d="M391.27,165.83 L392.15,165.42 Q393.03,165 399.49,164.17 Q405.96,163.34 411.95,167.93 Q417.93,172.53 419.57,180.78 Q421.21,189.03 422.05,198.15 L422.88,207.27 L424.54,224.62 L426.21,241.25 L427.04,257.14 L427.07,278.06 L427.87,296.37 L428.7,312.21 L429.54,319.32 Q430.37,326.42 432.03,333.91 Q433.69,341.4 431.23,347.28 Q428.77,353.17 421.74,354.02 L404.59,353.2" fill-rule="evenodd" style="fill:none;stroke:var(--fg);stroke-linecap:round;stroke-linejoin:round;stroke-width:8;" />
	<path d="M565.54,278.63 L565.17,279.9 Q564.8,281.16 565.17,288.14 L565.54,295.12 L567.6,313.05 L569.85,330.6 L570.29,337.46 L569.98,350.15" fill-rule="evenodd" style="fill:none;stroke:var(--fg);stroke-linecap:round;stroke-linejoin:round;stroke-width:8;" />
	<path d="M558.87,283.82 L559.24,283.82 Q559.61,283.82 566.72,282.34 Q573.83,280.86 579.79,279.73 Q585.75,278.61 592.34,277.88 Q598.93,277.14 604.83,278.25 L611.48,279.75" fill-rule="evenodd" style="fill:none;stroke:var(--fg);stroke-linecap:round;stroke-linejoin:round;stroke-width:8;" />
	<path d="M557.39,309.02 L558.83,309.02 L560.27,309.02 L568.18,308.26 Q576.1,307.51 585.2,305.68 Q594.3,303.85 599.9,304.2 L608.15,304.57" fill-rule="evenodd" style="fill:none;stroke:var(--fg);stroke-linecap:round;stroke-linejoin:round;stroke-width:8;" />
	<path d="M617.41,287.53 L618.61,287.16 Q619.81,286.79 628.69,284.55 Q637.57,282.32 643.8,281.96 Q650.03,281.6 647.47,286.74 Q644.9,291.89 640.86,295.92 Q636.82,299.96 631.59,303.72 Q626.35,307.49 634.03,309.37 Q641.71,311.24 643.29,316.77 Q644.86,322.3 639.32,327.11 Q633.78,331.93 628.22,333.44 Q622.66,334.96 616,336.42 L606.67,337.92" fill-rule="evenodd" style="fill:none;stroke:var(--fg);stroke-linecap:round;stroke-linejoin:round;stroke-width:8;" />
	<path d="M672.99,291.23 L673.38,290.11 Q673.77,288.98 677.08,284.18 Q680.39,279.38 684.47,284.53 Q688.56,289.68 686,296.68 Q683.45,303.67 679.01,309.98 L674.57,316.29 L671.19,320.79 Q667.81,325.29 675.15,327.51 Q682.49,329.73 688.36,329.75 Q694.22,329.77 702.81,330.12 L715.98,329.77" fill-rule="evenodd" style="fill:none;stroke:var(--fg);stroke-linecap:round;stroke-linejoin:round;stroke-width:8;" />
	<path d="M747.1,272.71 L746.73,273.08 Q746.36,273.45 743.39,282.74 Q740.42,292.03 738.95,300.58 Q737.47,309.14 738.19,316.44 Q738.92,323.74 742.25,328.22 Q745.59,332.7 751.12,331.62 Q756.66,330.55 761.85,326.12 Q767.04,321.69 770.76,316.11 Q774.49,310.53 775.99,304.62 Q777.49,298.7 776,292.41 Q774.52,286.12 770.09,281.28 Q765.66,276.44 758.28,273.48 Q750.91,270.52 744.59,270.85 L733.39,273.08" fill-rule="evenodd" style="fill:none;stroke:var(--fg);stroke-linecap:round;stroke-linejoin:round;stroke-width:8;" />
	<path d="M596.66,360.89 L596.29,361.09 Q595.92,361.29 588.83,367.82 Q581.73,374.34 575.84,380.61 Q569.95,386.87 566.61,391.33 L557.76,403.51" fill-rule="evenodd" style="fill:none;stroke:var(--fg);stroke-linecap:round;stroke-linejoin:round;stroke-width:8;" />
	<path d="M591.48,357.19 L591.85,357.56 Q592.22,357.93 595.17,364.57 Q598.12,371.21 601.43,376.02 L604.75,380.82 L609.2,386.75 Q613.65,392.68 616.63,398.24 L621.12,409.81" fill-rule="evenodd" style="fill:none;stroke:var(--fg);stroke-linecap:round;stroke-linejoin:round;stroke-width:8;" />
	<path d="M567.02,386.83 L568.12,386.46 Q569.22,386.09 575.86,386.08 Q582.51,386.07 588.81,386.08 Q595.11,386.09 601.4,385.72 Q607.7,385.35 614.01,384.24 L622.97,381.64" fill-rule="evenodd" style="fill:none;stroke:var(--fg);stroke-linecap:round;stroke-linejoin:round;stroke-width:8;" />
	<path d="M651.5,365.34 L651.13,366.27 Q650.76,367.19 649.28,374.37 Q647.8,381.55 649.66,386.8 Q651.53,392.05 657.43,392.79 Q663.33,393.53 667.04,389.09 Q670.74,384.64 668.18,379.08 Q665.61,373.53 661.18,369.82 Q656.75,366.11 653.01,361.3 Q649.28,356.48 654.82,354.97 Q660.36,353.45 662.6,359.01 L664.1,371.27" fill-rule="evenodd" style="fill:none;stroke:var(--fg);stroke-linecap:round;stroke-linejoin:round;stroke-width:8;" />
	<path d="M699.67,351.26 L699.67,351.63 Q699.67,352 701.14,361.19 L702.61,370.37 L704.09,394.64 L704.1,402.43 L703.38,422.77" fill-rule="evenodd" style="fill:none;stroke:var(--fg);stroke-linecap:round;stroke-linejoin:round;stroke-width:8;" />
	<path d="M693.74,357.19 L694.11,356.82 Q694.47,356.45 702.97,354.23 Q711.46,352.02 718.87,351.27 L736.73,349.78" fill-rule="evenodd" style="fill:none;stroke:#000000;stroke-linecap:round;stroke-linejoin:round;stroke-width:8;" />
	<path d="M694.49,385.35 L694.86,385.35 Q695.23,385.35 701.05,383.89 Q706.87,382.44 712.81,381.7 Q718.74,380.95 725.83,380.56 L734.13,380.16" fill-rule="evenodd" style="fill:none;stroke:var(--fg);stroke-linecap:round;stroke-linejoin:round;stroke-width:8;" />
	<path d="M774.52,347.55 L773.77,347.55 Q773.02,347.55 767.61,346.01 Q762.19,344.47 755.89,345.35 Q749.59,346.23 746.86,351.3 Q744.14,356.37 744.12,363.04 Q744.1,369.7 748.52,373.43 Q752.94,377.15 757.74,373.9 Q762.54,370.65 764.81,364.31 Q767.08,357.96 771.53,364.18 Q775.97,370.4 775.62,375.96 Q775.26,381.52 773.41,388.94 Q771.56,396.37 768.98,402.33 Q766.4,408.29 760.12,410.16 L745.99,409.81" fill-rule="evenodd" style="fill:none;stroke:var(--fg);stroke-linecap:round;stroke-linejoin:round;stroke-width:8;" />
	<path d="M87.39,134.35 L86.75,134.88 Q86.11,135.41 85.17,144.35 Q84.24,153.3 84.24,163.73 L84.24,174.16 L85.24,190 L86.29,197.84 Q87.33,205.69 89.96,213.62 Q92.6,221.54 98.9,227.35 Q105.21,233.15 113.08,234.74 Q120.96,236.32 128.88,237.39 L147.34,238.47" fill-rule="evenodd" style="fill:none;stroke:#C60105;stroke-linecap:round;stroke-linejoin:round;stroke-width:8;" />
	<path d="M129.46,205.87 L129.46,206.39 Q129.46,206.92 136.7,211.53 Q143.94,216.14 149.32,222.02 Q154.7,227.9 150.53,235.75 Q146.35,243.6 141.08,249.95 L130.51,262.66" fill-rule="evenodd" style="fill:none;stroke:#C60105;stroke-linecap:round;stroke-linejoin:round;stroke-width:8;" />
	<path d="M465.88,177.38 L466.56,177.38 Q467.24,177.38 479.45,176.01 Q491.66,174.65 503.92,173.96 Q516.18,173.28 528.51,171.92 Q540.83,170.55 551.75,171.2 Q562.67,171.86 574.95,170.52 Q587.24,169.19 597.45,167.82 Q607.66,166.46 619.96,165.77 Q632.25,165.09 641.86,171.86 Q651.46,178.62 650.81,188.87 Q650.15,199.11 647.42,210.05 L644.69,220.99 L642.65,231.25 L642.62,246.29" fill-rule="evenodd" style="fill:none;stroke:#8338EC;stroke-linecap:round;stroke-linejoin:round;stroke-width:8;" />
	<path d="M613.3,225.15 L613.98,225.15 Q614.66,225.15 619.42,234.68 Q624.17,244.21 633.04,250.38 Q641.92,256.55 651.45,250.43 L673.36,237.44" fill-rule="evenodd" style="fill:none;stroke:#8338EC;stroke-linecap:round;stroke-linejoin:round;stroke-width:8;" />
</svg>
