<?xml version="1.0" encoding="UTF-8"?>
<!-- Created with Grafika (https://www.grafika.cc/) -->
<!-- #000000 => var(--fg),  #ffffff => var(--bg) -->
<svg xmlns="http://www.w3.org/2000/svg" xmlns:svg="http://www.w3.org/2000/svg" xmlns:xlink="http://www.w3.org/1999/xlink" width="1600" height="800" viewBox="0 0 1600 800" preserveAspectRatio="xMidYMid meet">
	<rect x="0" y="0" width="1600" height="800" fill="var(--bg)" />
	<path d="M117.07,116.08 L117.29,116.29 Q117.5,116.51 117.72,120.59 L117.93,124.68 L118.15,128.58 L118.37,136.4" fill-rule="evenodd" style="fill:none;stroke:var(--fg);stroke-linecap:round;stroke-linejoin:round;stroke-width:4;" />
	<path d="M166.36,117.37 L166.14,117.37 Q165.93,117.37 163.12,119.31 Q160.31,121.25 159.66,124.92 Q159.01,128.59 160.72,131.83 Q162.43,135.07 166.08,136.16 Q169.74,137.26 173.22,136.83 Q176.7,136.4 177.37,132.73 Q178.03,129.07 175.66,126.04 L169.39,120.83" fill-rule="evenodd" style="fill:none;stroke:var(--fg);stroke-linecap:round;stroke-linejoin:round;stroke-width:4;" />
	<path d="M219.54,117.81 L219.54,118.89 L219.97,127.75 L219.97,131.64 L219.97,135.53" fill-rule="evenodd" style="fill:none;stroke:var(--fg);stroke-linecap:round;stroke-linejoin:round;stroke-width:4;" />
	<path d="M267.15,119.18 L266.93,119.18 Q266.72,119.18 263.95,121.09 Q261.18,123 260.08,126.72 Q258.98,130.43 260.72,133.86 Q262.46,137.29 265.25,139.87 Q268.04,142.44 271.69,143.29 Q275.33,144.14 278.11,142.42 Q280.88,140.71 282.62,137.27 Q284.35,133.84 284.14,130.18 Q283.92,126.51 282,123.92 Q280.07,121.33 276.44,119.42 Q272.81,117.5 268.72,116.62 L264.57,115.74" fill-rule="evenodd" style="fill:none;stroke:var(--fg);stroke-linecap:round;stroke-linejoin:round;stroke-width:4;" />
	<path d="M120.91,163.49 L121.13,163.7 Q121.34,163.92 121.77,167.37 L122.2,170.82 L123.05,176.79 L125.22,188.89" fill-rule="evenodd" style="fill:none;stroke:var(--fg);stroke-linecap:round;stroke-linejoin:round;stroke-width:4;" />
	<path d="M168.65,164.35 L168.65,165.06 L168.65,174.15 L168.22,182.17 L168.01,186.18 L167.79,196.6" fill-rule="evenodd" style="fill:none;stroke:var(--fg);stroke-linecap:round;stroke-linejoin:round;stroke-width:4;" />
	<path d="M218.12,161.76 L218.39,162.26 Q218.67,162.75 219.04,167.31 L218.98,178.54" fill-rule="evenodd" style="fill:none;stroke:var(--fg);stroke-linecap:round;stroke-linejoin:round;stroke-width:4;" />
	<path d="M267.15,167.36 L267.15,167.57 Q267.15,167.79 265.44,170.99 Q263.73,174.19 263.71,177.85 Q263.69,181.51 266.48,183.25 Q269.27,184.99 272.71,184.13 Q276.14,183.27 277.24,180.05 Q278.33,176.84 276.4,174.03 L271.88,170.8" fill-rule="evenodd" style="fill:none;stroke:var(--fg);stroke-linecap:round;stroke-linejoin:round;stroke-width:4;" />
	<path d="M123.92,217.68 L123.71,217.68 Q123.49,217.68 122.63,220.88 Q121.77,224.08 124.54,226.46 Q127.31,228.84 131.18,229.49 Q135.05,230.15 136.15,226.93 Q137.26,223.72 134.9,221.14 L129.94,217.68" fill-rule="evenodd" style="fill:none;stroke:var(--fg);stroke-linecap:round;stroke-linejoin:round;stroke-width:4;" />
	<path d="M169.08,214.24 L169.08,214.67 L169.08,224.51 L168.87,229 L168.65,233.59" fill-rule="evenodd" style="fill:none;stroke:var(--fg);stroke-linecap:round;stroke-linejoin:round;stroke-width:4;" />
	<path d="M219.84,214.24 L219.84,215.06 L219.84,220.26 Q219.84,225.47 218.79,231.3 L217.69,237.46" fill-rule="evenodd" style="fill:none;stroke:var(--fg);stroke-linecap:round;stroke-linejoin:round;stroke-width:4;" />
	<path d="M270.59,212.09 L270.59,212.45 Q270.59,212.81 270.16,216.83 L269.73,220.84 L269.51,226.45 Q269.3,232.07 268.65,236.02 L268.01,240.04" fill-rule="evenodd" style="fill:none;stroke:var(--fg);stroke-linecap:round;stroke-linejoin:round;stroke-width:4;" />
	<path d="M125.64,267.57 L125.43,267.57 Q125.21,267.57 122.42,271 Q119.63,274.42 119.83,277.64 Q120.03,280.86 123.24,282.81 Q126.44,284.76 129.67,284.56 Q132.89,284.37 136.35,282.65 Q139.8,280.92 141.74,277.93 Q143.69,274.93 143.28,271.27 Q142.87,267.61 140.3,265.03 Q137.73,262.45 134.06,261.57 L127.15,262.63" fill-rule="evenodd" style="fill:none;stroke:var(--fg);stroke-linecap:round;stroke-linejoin:round;stroke-width:4;" />
	<path d="M169.51,264.99 L169.3,264.99 Q169.08,264.99 165.17,266.99 Q161.26,268.99 159.8,273.22 Q158.33,277.46 160.04,280.9 Q161.75,284.34 165.59,284.77 Q169.44,285.21 172.9,283.92 Q176.36,282.64 178.73,279.64 Q181.11,276.64 181.76,272.99 Q182.42,269.33 180.29,266.53 Q178.15,263.74 174.71,260.93 L169.73,257.03" fill-rule="evenodd" style="fill:none;stroke:var(--fg);stroke-linecap:round;stroke-linejoin:round;stroke-width:4;" />
	<path d="M222.85,262.84 L222.63,263.04 Q222.42,263.24 220.59,266.59 Q218.76,269.94 218.01,273.28 Q217.26,276.62 218.13,280.08 Q219,283.54 222.19,285.66 Q225.37,287.77 228.4,285.85 Q231.43,283.94 231.87,280.08 Q232.31,276.22 231.03,272.34 L226.29,264.56" fill-rule="evenodd" style="fill:none;stroke:var(--fg);stroke-linecap:round;stroke-linejoin:round;stroke-width:4;" />
	<path d="M271.45,264.56 L271.23,264.77 Q271.02,264.98 269.73,268.2 Q268.44,271.42 268.43,275.29 Q268.43,279.15 269.71,282.17 Q271,285.19 273.8,282.64 Q276.59,280.09 277.88,276.21 L274.89,268.86" fill-rule="evenodd" style="fill:none;stroke:var(--fg);stroke-linecap:round;stroke-linejoin:round;stroke-width:4;" />
	<path d="M112.37,101.27 L112.1,101.27 Q111.82,101.27 107.66,102.92 Q103.51,104.57 101.86,109.52 Q100.21,114.48 99.64,119.46 Q99.07,124.43 99.07,130.25 L99.07,136.08 L99.63,147.16 L100.18,158.24 L100.18,169.34 L100.18,179.86 L100.18,189.29 L100.18,198.16 L100.18,209.24 L100.46,213.67 Q100.74,218.1 100.46,222.27 L100.18,226.44 L100.18,235.29 L100.18,244.16 L100.18,254.68 L100.46,259.93 Q100.74,265.18 100.46,270.18 L100.18,275.19 L99.63,280.18 Q98.52,290.17 100.73,299.32 L105.72,306.29" fill-rule="evenodd" style="fill:none;stroke:var(--fg);stroke-linecap:round;stroke-linejoin:round;stroke-width:4;" />
	<path d="M293.56,99.05 L293.84,99.05 Q294.12,99.05 296.6,103.17 Q299.08,107.29 299.65,111.99 L300.21,116.7 L301.29,125.54 L301.88,137.17 L302.96,147.73 L304.07,157.16 L305.17,167.12 L305.76,177.11 L306.3,182.09 Q306.84,187.07 306.85,192.88 L306.86,198.7 L307.42,210.33 L306.86,221.96 L306.86,233.08 L306.31,242.49 L305.2,251.35 L304.65,260.22 L304.09,268.53 L304.09,277.95 L303.54,286.82 L303.54,296.82 L303.54,300.99 Q303.54,305.17 301.34,308.76 L296.34,314.6" fill-rule="evenodd" style="fill:none;stroke:var(--fg);stroke-linecap:round;stroke-linejoin:round;stroke-width:4;" />
	<path d="M371.2,116.49 L371.05,116.49 L370.91,116.49 L368.8,117.2 Q366.69,117.9 364.71,119.04 Q362.72,120.17 360.76,121.99 Q358.8,123.8 357.95,126.06 Q357.1,128.32 358.36,130.29 Q359.62,132.27 361.88,132 Q364.13,131.73 365.4,129.76 Q366.67,127.78 367.24,125.53 Q367.81,123.27 368.93,125.78 Q370.05,128.29 370.9,130.84 L372.45,135.5 L373.16,137.62 L374.01,139.6 L375.14,141.87" fill-rule="evenodd" style="fill:none;stroke:var(--fg);stroke-linecap:round;stroke-linejoin:round;stroke-width:4;" />
	<path d="M363.58,161.61 L363.58,161.89 L363.58,167.78 L363.58,173.11 L363.86,179.03 L364.15,183.27 L364.15,185.4 Q364.15,187.54 364.99,185.02 Q365.82,182.5 367.09,180.39 Q368.35,178.27 370.47,176.71 Q372.58,175.16 374.98,174.72 Q377.37,174.29 379.35,175.56 Q381.34,176.83 381.48,179.08 Q381.63,181.33 380.23,183.16 Q378.82,185 376.57,185.85 Q374.32,186.69 372.19,187.4 L369.09,188.12" fill-rule="evenodd" style="fill:none;stroke:var(--fg);stroke-linecap:round;stroke-linejoin:round;stroke-width:4;" />
	<path d="M378.25,216.03 L377.91,216.03 L377.58,216.03 L375.39,216.44 Q373.21,216.86 370.95,217.85 Q368.68,218.84 367.4,220.52 Q366.12,222.21 365.98,224.61 Q365.84,227 367.38,228.84 Q368.92,230.68 371.31,231.11 L373.71,231.54 L376.11,231.54 L380.78,231.82" fill-rule="evenodd" style="fill:none;stroke:var(--fg);stroke-linecap:round;stroke-linejoin:round;stroke-width:4;" />
	<path d="M378.25,261.15 L378.25,261.43 L378.48,266.94 L378.81,272.3 L379.09,277.41 L379.23,279.83 Q379.37,282.24 378.67,280.16 Q377.96,278.08 376.42,276.52 Q374.87,274.96 372.48,275.38 Q370.09,275.8 368.25,276.93 Q366.41,278.05 365.14,279.89 Q363.86,281.72 364.43,283.84 Q364.99,285.95 367.09,286.24 Q369.2,286.52 371.46,286.38 L376.55,285.96" fill-rule="evenodd" style="fill:none;stroke:var(--fg);stroke-linecap:round;stroke-linejoin:round;stroke-width:4;" />
	<path d="M354.47,102.13 L354.33,102.13 L354.19,102.13 L351.96,102.12 Q349.73,102.12 347.63,103.51 Q345.53,104.9 344.27,107.12 Q343.02,109.35 342.04,112 Q341.06,114.65 340.36,117.86 L339.66,121.07 L339.23,124.01 Q338.81,126.94 338.81,129.74 L338.81,134.93 Q338.81,137.32 339.08,139.41 L339.35,141.51 L339.63,145.7 L340.19,149.9 L340.75,154.92 L341.31,160.24 L341.87,166.66 L342.43,174.47 L342.99,185.33 L343.55,192.28 L343.56,198.72 L343.56,202.99 L343.02,210.27 L343,215.88 L342.86,218.4 Q342.72,220.92 342.86,223.44 L343,225.96 L343.28,230.71 L343.28,237.13 L343.56,244.13 L344.11,251.66 L344.39,258.1 L344.68,265.07 L344.68,271.54 L344.68,276.86 L344.68,281.9 L344.95,287.51 L345.23,292.26 L345.52,296.46 L345.52,301.22 L345.52,303.6 Q345.52,305.98 347.6,307.53 Q349.67,309.08 352.31,308.95 L355.03,308.8" fill-rule="evenodd" style="fill:none;stroke:var(--fg);stroke-linecap:round;stroke-linejoin:round;stroke-width:4;" />
	<path d="M399.22,102.97 L399.57,102.97 Q399.92,102.97 402.04,104.2 Q404.17,105.43 405.17,107.92 Q406.17,110.42 406.88,113.9 L407.59,117.39 L408.02,121.15 Q408.45,124.92 408.17,128.29 L407.89,131.66 L407.05,138.08 L406.77,144.26 L406.77,149.54 L406.77,152.23 Q406.77,154.91 406.49,157.29 L406.21,159.66 L405.93,164.4 L405.37,170.86 L405.37,177.84 L405.37,184.55 L405.37,190.71 L405.65,197.14 L406.2,203.01 L406.21,209.72 L405.93,215.33 L405.65,220.92 L405.65,228.35 L405.65,231.57 L405.65,235.77 L405.65,241.34 L405.92,247.48 L405.93,253.64 L406.21,259.78 L406.48,262.3 Q406.75,264.83 406.76,267.21 L406.77,269.59 L407.05,274.07 L407.05,279.37 L407.05,284.14 L407.05,288.9 L407.33,293.94 L407.33,298.43 L407.33,300.67 Q407.33,302.92 406.63,305.01 Q405.93,307.11 403.84,308.09 L398.1,310.48" fill-rule="evenodd" style="fill:none;stroke:var(--fg);stroke-linecap:round;stroke-linejoin:round;stroke-width:4;" />
	<path d="M433.65,189.37 L434.35,188.93 L437.7,188.93 L441.05,188.93 L444.56,189.15 Q448.08,189.37 452.03,189.58 Q455.98,189.79 459.28,189.8 Q462.58,189.8 465.87,190.24 L471.8,191.12" fill-rule="evenodd" style="fill:none;stroke:var(--fg);stroke-linecap:round;stroke-linejoin:round;stroke-width:4;" />
	<path d="M431.46,220.5 L431.67,220.5 L431.89,220.5 L435.38,220.28 Q438.87,220.07 443.9,219.85 Q448.93,219.63 452.22,219.84 Q455.51,220.05 459.24,219.84 Q462.97,219.63 466.5,219.41 Q470.03,219.19 473.32,218.97 L478.38,218.75" fill-rule="evenodd" style="fill:none;stroke:var(--fg);stroke-linecap:round;stroke-linejoin:round;stroke-width:4;" />
	<path d="M523.29,117.42 L523.29,117.71 Q523.29,118 524.85,122.19 Q526.41,126.39 527.2,130.98 L528.56,142.59" fill-rule="evenodd" style="fill:none;stroke:var(--fg);stroke-linecap:round;stroke-linejoin:round;stroke-width:4;" />
	<path d="M575.4,165.43 L575.4,166.92 L575.4,177.07 L575.4,181.76 L575.4,194.7" fill-rule="evenodd" style="fill:none;stroke:var(--fg);stroke-linecap:round;stroke-linejoin:round;stroke-width:4;" />
	<path d="M623.41,216.95 L623.41,217.54 L623.41,222.69 Q623.41,227.83 622.83,232.56 L621.66,245.92" fill-rule="evenodd" style="fill:none;stroke:var(--fg);stroke-linecap:round;stroke-linejoin:round;stroke-width:4;" />
	<path d="M674.35,264.96 L674.35,265.25 Q674.35,265.55 675.23,270.53 L676.11,275.51 L676.69,280.75 L677.87,294.24" fill-rule="evenodd" style="fill:none;stroke:var(--fg);stroke-linecap:round;stroke-linejoin:round;stroke-width:4;" />
	<path d="M619.32,274.33 L619.02,274.61 Q618.73,274.88 616.1,278.69 Q613.46,282.5 616.66,286.01 Q619.85,289.53 624.53,290.13 Q629.21,290.72 632.75,287.81 Q636.3,284.89 635.71,280.21 Q635.12,275.52 630.75,272.88 L626.34,270.23" fill-rule="evenodd" style="fill:none;stroke:var(--fg);stroke-linecap:round;stroke-linejoin:round;stroke-width:4;" />
	<path d="M569.55,263.79 L569.26,263.79 Q568.96,263.79 566.33,268.2 Q563.69,272.61 563.39,277.56 Q563.09,282.5 566.88,285.14 Q570.67,287.77 575.65,287.49 Q580.63,287.21 582.99,283.42 Q585.36,279.62 584.19,274.94 L576.57,266.72" fill-rule="evenodd" style="fill:none;stroke:var(--fg);stroke-linecap:round;stroke-linejoin:round;stroke-width:4;" />
	<path d="M529.15,255.59 L528.86,255.59 Q528.56,255.59 523.28,258.83 Q517.99,262.06 513.64,265.53 Q509.3,269 507.81,273.69 Q506.31,278.37 510.39,281.9 Q514.46,285.43 519.73,285.44 Q525,285.45 529.41,282.83 Q533.81,280.21 535.58,275.53 L534.42,263.79" fill-rule="evenodd" style="fill:none;stroke:var(--fg);stroke-linecap:round;stroke-linejoin:round;stroke-width:4;" />
	<path d="M573.06,214.02 L572.77,214.02 Q572.48,214.02 569.27,217.51 Q566.06,220.99 564.59,226.54 Q563.11,232.08 565.72,236.78 Q568.32,241.49 573.59,241.53 Q578.87,241.57 582.39,238.93 Q585.92,236.3 586.22,231.91 Q586.53,227.51 582.16,224 L570.43,216.95" fill-rule="evenodd" style="fill:none;stroke:var(--fg);stroke-linecap:round;stroke-linejoin:round;stroke-width:4;" />
	<path d="M516.27,204.66 L515.98,204.66 Q515.68,204.66 514.51,209.9 Q513.34,215.15 515.66,220.42 Q517.98,225.69 521.49,228.63 Q525,231.57 529.68,231.58 Q534.36,231.59 537.6,228.09 Q540.84,224.59 539.97,220.2 Q539.1,215.81 535.02,212.88 L529.15,209.34" fill-rule="evenodd" style="fill:none;stroke:var(--fg);stroke-linecap:round;stroke-linejoin:round;stroke-width:4;" />
	<path d="M525.64,167.77 L525.34,167.77 Q525.05,167.77 520.96,170.97 Q516.88,174.16 517.15,179.15 Q517.41,184.14 522.08,186.77 Q526.74,189.4 531.14,189.71 Q535.54,190.02 538.78,186.52 Q542.03,183.02 539.11,178.63 L530.91,170.7" fill-rule="evenodd" style="fill:none;stroke:var(--fg);stroke-linecap:round;stroke-linejoin:round;stroke-width:4;" />
	<path d="M571.31,114.49 L571.01,114.49 Q570.72,114.49 566.91,117.43 Q563.1,120.37 562.22,124.72 Q561.35,129.08 564.25,133.48 Q567.15,137.88 571.84,140.22 Q576.52,142.57 580.63,140.54 Q584.75,138.52 585.34,134.13 Q585.94,129.74 583.61,125.93 L575.4,118.59" fill-rule="evenodd" style="fill:none;stroke:var(--fg);stroke-linecap:round;stroke-linejoin:round;stroke-width:4;" />
	<path d="M619.9,113.32 L619.61,113.6 Q619.32,113.88 617.56,118.53 Q615.8,123.19 616.96,128.46 Q618.12,133.74 621.33,137.57 Q624.53,141.4 629.23,142.29 Q633.92,143.18 635.4,138.8 Q636.88,134.42 635.71,130.03 Q634.54,125.64 631.04,122.71 L624.59,118.59" fill-rule="evenodd" style="fill:none;stroke:var(--fg);stroke-linecap:round;stroke-linejoin:round;stroke-width:4;" />
	<path d="M672.01,114.49 L671.72,114.49 Q671.43,114.49 669.67,118.84 Q667.91,123.2 667.62,127.58 Q667.33,131.97 668.19,136.36 Q669.06,140.76 672.27,144 Q675.47,147.25 680.74,146.97 Q686,146.69 687.79,142.62 Q689.58,138.55 688.7,134.15 Q687.82,129.74 685.62,125.48 L679.62,119.17" fill-rule="evenodd" style="fill:none;stroke:var(--fg);stroke-linecap:round;stroke-linejoin:round;stroke-width:4;" />
	<path d="M618.15,166.6 L617.71,166.89 Q617.27,167.18 614.77,171.29 Q612.28,175.41 611.41,179.76 Q610.53,184.12 614.6,187.36 Q618.68,190.6 624.23,190.31 Q629.78,190.02 633.62,187.53 Q637.47,185.04 634.83,181.11 Q632.2,177.17 628.11,174.81 L622.83,171.28" fill-rule="evenodd" style="fill:none;stroke:var(--fg);stroke-linecap:round;stroke-linejoin:round;stroke-width:4;" />
	<path d="M671.43,168.35 L671.13,168.35 Q670.84,168.35 669.38,172.98 Q667.91,177.6 667.62,182.9 Q667.33,188.21 670.82,191.15 Q674.3,194.09 679.85,193.81 Q685.39,193.53 689.8,191.2 Q694.21,188.87 693.66,184.19 Q693.12,179.51 688.73,176.28 Q684.35,173.06 680.24,170.71 L676.11,168.35" fill-rule="evenodd" style="fill:none;stroke:var(--fg);stroke-linecap:round;stroke-linejoin:round;stroke-width:4;" />
	<path d="M670.25,219.88 L669.96,219.88 Q669.67,219.88 667.33,224.24 Q664.99,228.61 666.73,232.72 Q668.47,236.83 673.44,236.85 Q678.4,236.86 681.92,234.24 Q685.45,231.62 685.61,227.06 L680.21,219.29" fill-rule="evenodd" style="fill:none;stroke:var(--fg);stroke-linecap:round;stroke-linejoin:round;stroke-width:4;" />
	<path d="M502.22,96.92 L501.92,96.92 Q501.63,96.92 499.87,101.57 Q498.12,106.22 498.11,113.22 L498.09,120.23 L498.12,129.02 L498.7,140.73 L498.7,151.3 L499.26,161.82 L499.29,172.96 L499.85,184.09 L500.43,194.62 L501.02,205.16 L501.6,216.29 L502.19,227.38 L502.22,236.75 L502.22,246.12 L502.22,258.99 L502.22,270.15 L502.22,280.12 L502.22,289.52 L502.51,293.92 Q502.8,298.32 506.57,300.65 L512.76,303.61" fill-rule="evenodd" style="fill:none;stroke:var(--fg);stroke-linecap:round;stroke-linejoin:round;stroke-width:4;" />
	<path d="M698.36,99.27 L698.65,99.56 Q698.94,99.85 700.41,107.16 L701.87,114.48 L703.65,126.3 L705.42,139.27 L706.58,150.44 L708.27,162.91 L708.86,172.38 L709.45,181.15 L710.07,191.69 L710.65,202.22 L711.24,210.99 L711.8,220.94 L712.38,231.46 L712.41,242 L712.41,251.97 L712.41,263.11 L712.41,273.66 L712.41,283.62 L712.41,289.77 Q712.41,295.91 711.83,300.59 Q711.24,305.28 709.78,309.7 Q708.31,314.12 703.94,315.88 L695.14,319.41" fill-rule="evenodd" style="fill:none;stroke:var(--fg);stroke-linecap:round;stroke-linejoin:round;stroke-width:4;" />
	<path d="M133.64,379.73 L134.43,382.08 Q135.21,384.42 135.21,397.66 L135.21,424.19 L135.21,451.53 L135.21,478.1 L135.21,490.62 L136.77,517.27 L136.77,545.36 L136.77,576.66 L136.77,589.16 Q136.77,601.67 138.3,616.52 Q139.83,631.36 139.86,645.45 L139.9,659.53 L140.68,671.3 Q141.47,683.08 140.68,694.84 L139.9,706.6 L139.12,719.89 L136.77,747.35" fill-rule="evenodd" style="fill:none;stroke:var(--fg);stroke-linecap:round;stroke-linejoin:round;stroke-width:4;" />
	<path d="M89.84,708.24 L90.62,708.24 Q91.41,708.24 103.17,705.9 Q114.93,703.55 131.19,701.99 Q147.45,700.42 159.19,698.86 Q170.92,697.29 187.32,696.51 Q203.72,695.73 215.43,694.95 Q227.15,694.16 241.21,693.38 L255.27,692.6 L269.35,692.6 L283.43,692.6 L310.14,691.04 L325.81,691.04 L356.35,691.04 L385.29,691.04 L399.38,691.04 L412.66,690.25 Q425.94,689.47 437.68,688.69 L449.42,687.91 L461.16,687.91 L487,687.91 L514.41,687.91 L539.44,687.91 L562.96,687.91 L574.79,687.91" fill-rule="evenodd" style="fill:none;stroke:var(--fg);stroke-linecap:round;stroke-linejoin:round;stroke-width:4;" />
	<path d="M542.22,661.87 L543.1,662.28 Q543.98,662.69 550.92,666.81 Q557.85,670.92 563.63,674.63 L569.41,678.34 L575.12,682.01 Q580.82,685.68 578.8,692.25 Q576.79,698.81 571.06,704.52 L565.33,710.23 L554.63,720.14 L549.68,725.1 L543.04,731.33" fill-rule="evenodd" style="fill:none;stroke:var(--fg);stroke-linecap:round;stroke-linejoin:round;stroke-width:4;" />
	<path d="M135.06,370.59 L135.06,371.16 Q135.06,371.73 133.35,380.76 Q131.65,389.8 128.82,399.47 L126,409.15 L120.26,428.51 L117.41,437.12 L113.43,448.6" fill-rule="evenodd" style="fill:none;stroke:var(--fg);stroke-linecap:round;stroke-linejoin:round;stroke-width:4;" />
	<path d="M141.89,378.56 L141.89,379.13 Q141.89,379.7 149.8,388.72 L157.72,397.74 L163.41,404.61 Q169.11,411.47 174.84,419.48 L182.89,430.95" fill-rule="evenodd" style="fill:none;stroke:var(--fg);stroke-linecap:round;stroke-linejoin:round;stroke-width:4;" />
	<path d="M202.25,481.05 L202.25,481.62 Q202.25,482.19 205.64,491.82 L209.03,501.45 L213.59,518.5 L218.13,536.68 L223.84,558.29 L230.66,581.04 L236.36,602.75 L243.19,624.38 L246.04,632.92 Q248.88,641.46 252.87,650.59 L256.85,659.73 L263.68,676.8 L267.11,685.35 Q270.53,693.91 276.77,701.9 Q283,709.89 290.39,716.72 Q297.78,723.54 306.89,728.1 Q316,732.65 325.68,735.5 Q335.36,738.35 344.48,738.95 Q353.6,739.54 363.28,737.84 Q372.96,736.13 381.49,732.71 Q390.03,729.29 397.43,724.2 Q404.82,719.11 412.8,712.84 Q420.78,706.57 427.6,698.07 Q434.43,689.56 438.99,681.01 L443.55,672.47 L452.72,652.01 L461.83,629.24 L465.78,619.6 Q469.73,609.97 472.58,600.27 L475.44,590.58 L478.85,579.23 Q482.26,567.89 484,555.34 L485.74,542.78 L489.16,515.51 L492.58,488.17 L495.97,463.19 L499.4,442.55 L503.96,423.09 L506.24,414.49 L508.57,404.75" fill-rule="evenodd" style="fill:none;stroke:var(--fg);stroke-linecap:round;stroke-linejoin:round;stroke-width:4;" />
	<path d="M250.07,606.31 L250.63,605.74 Q251.18,605.17 259.68,598.94 L268.18,592.7 L285.21,580.23 L293.16,574.54 Q301.1,568.84 311.34,562.57 Q321.58,556.3 330.69,549.51 Q339.79,542.73 347.81,537.56 Q355.82,532.4 363.82,526.68 Q371.82,520.96 380.35,515.84 Q388.89,510.71 395.75,504.99 L410.64,493.58" fill-rule="evenodd" style="fill:none;stroke:var(--fg);stroke-linecap:round;stroke-linejoin:round;stroke-width:4;" />
	<path d="M375.33,484.47 L375.9,484.47 Q376.47,484.47 385.56,486.74 Q394.64,489.02 401.46,495.25 Q408.29,501.48 407.75,510.03 L403.8,532.85" fill-rule="evenodd" style="fill:none;stroke:var(--fg);stroke-linecap:round;stroke-linejoin:round;stroke-width:4;" />
	<path d="M246.66,590.37 L246.66,589.23 L246.66,569.92 L246.66,545.04 L245.52,521.2 L243.24,497.3 L239.83,474.47 L238.69,457.32 L238.12,448.16 L239.26,432.08" fill-rule="evenodd" style="fill:none;stroke:var(--fg);stroke-linecap:round;stroke-linejoin:round;stroke-width:4;" />
	<path d="M219.33,474.22 L219.9,473.86 Q220.47,473.5 222.18,463.6 Q223.9,453.69 227.28,445.17 Q230.67,436.64 239.19,438.89 Q247.71,441.15 255.7,444.59 L276.26,456" fill-rule="evenodd" style="fill:none;stroke:var(--fg);stroke-linecap:round;stroke-linejoin:round;stroke-width:4;" />
	<path d="M282.87,506.3 L282.62,506.3 Q282.37,506.3 280.34,509.55 Q278.32,512.8 277.05,517.11 Q275.78,521.42 276.02,525.73 Q276.26,530.03 277.27,533.83 Q278.29,537.63 281.57,540.44 Q284.85,543.24 289.16,542.5 Q293.46,541.77 296.76,538.73 Q300.05,535.7 302.08,531.41 Q304.11,527.11 304.63,522.79 Q305.15,518.48 304.01,514.79 Q302.87,511.11 299.47,508.96 Q296.06,506.81 292.01,506.05 L284.66,505.29" fill-rule="evenodd" style="fill:none;stroke:var(--fg);stroke-linecap:round;stroke-linejoin:round;stroke-width:4;" />
	<path d="M273.25,519.97 L273.51,520.15 Q273.76,520.34 279.04,520.91 Q284.32,521.49 289.13,521.99 Q293.95,522.48 297.77,522.49 L309.2,522" fill-rule="evenodd" style="fill:none;stroke:var(--fg);stroke-linecap:round;stroke-linejoin:round;stroke-width:4;" />
	<path d="M903.62,80.39 L903.09,80.39 Q902.55,80.39 893.42,82.01 Q884.29,83.63 876.81,88.96 Q869.33,94.29 862.89,101.78 Q856.45,109.26 853.75,118.92 Q851.04,128.57 853.16,136.62 Q855.28,144.67 859.58,151.67 Q863.87,158.68 870.29,164.04 Q876.7,169.41 884.75,172.63 Q892.8,175.85 900.85,177.48 Q908.9,179.11 918.02,179.11 Q927.14,179.11 935.19,176.99 Q943.24,174.86 950.75,171.11 Q958.25,167.36 965.22,162.53 Q972.2,157.71 977.05,150.73 Q981.91,143.75 983.55,135.16 Q985.18,126.57 982.5,118.53 Q979.81,110.48 973.93,103.51 Q968.06,96.53 960.54,92.75 Q953.03,88.97 943.94,86.83 Q934.84,84.68 926.23,82.53 L905.77,80.39" fill-rule="evenodd" style="fill:none;stroke:var(--fg);stroke-linecap:round;stroke-linejoin:round;stroke-width:4;" />
	<path d="M911.14,193.06 L911.14,194.11 Q911.14,195.15 912.21,205.3 L913.28,215.45 L914.35,232.58 L914.35,249.72 L914.89,259.95 Q915.43,270.17 914.89,279.32 L914.35,288.46 L914.35,297.08 L914.35,317.55" fill-rule="evenodd" style="fill:none;stroke:var(--fg);stroke-linecap:round;stroke-linejoin:round;stroke-width:4;" />
	<path d="M874.65,310.03 L875.19,310.03 Q875.72,310.03 882.66,316.97 L889.59,323.9 L896.05,329.82 Q902.51,335.75 911.09,336.84 Q919.67,337.93 926.62,332.59 Q933.58,327.25 940.55,321.35 L959.43,306.81" fill-rule="evenodd" style="fill:none;stroke:var(--fg);stroke-linecap:round;stroke-linejoin:round;stroke-width:4;" />
	<path d="M841.38,361.54 L842.94,361.01 Q844.5,360.47 857.45,361.01 Q870.39,361.55 879.97,361.55 Q889.55,361.54 898.66,361.01 L907.78,360.47 L916.91,359.93 Q926.03,359.4 934.06,358.32 Q942.09,357.25 951.75,356.71 L961.41,356.18 L970.02,356.18 L978.63,356.18 L986.69,355.64 Q994.74,355.1 1003.33,354.57 L1021.11,352.96" fill-rule="evenodd" style="fill:none;stroke:var(--fg);stroke-linecap:round;stroke-linejoin:round;stroke-width:4;" />
	<path d="M849.97,364.76 L849.43,364.76 Q848.89,364.76 843.6,373.24 Q838.31,381.71 831.31,390.87 L824.31,400.03 L814.64,412.93 L800.7,431.15 L794.78,438.68 Q788.86,446.2 799.93,450.55 Q811,454.9 821.26,453.83 L831.53,452.76 L841.75,451.68 Q851.98,450.61 860.57,450.61 L869.16,450.61 L885.24,449.54 L893.83,449.54 L914.19,449.54 Q925.96,449.54 934.55,448.46 Q943.15,447.39 952.24,445.78 Q961.34,444.17 971.57,442.56 Q981.8,440.95 990.96,440.42 Q1000.12,439.88 1008.21,440.95 L1017.37,442.03" fill-rule="evenodd" style="fill:none;stroke:var(--fg);stroke-linecap:round;stroke-linejoin:round;stroke-width:4;" />
	<path d="M1050.64,345.45 L1050.1,346.28 Q1049.57,347.1 1046.4,354.65 L1043.23,362.19 L1036.75,379.48 L1030.3,395.68 L1023.81,411.89 L1020.59,419.43 L1016.3,429.15" fill-rule="evenodd" style="fill:none;stroke:var(--fg);stroke-linecap:round;stroke-linejoin:round;stroke-width:4;" />
	<path d="M924.04,450.44 L924.04,451.33 Q924.04,452.22 925.81,461.9 L927.57,471.58 L929.24,487.73 L930.11,504.12 L930.53,511.47 Q930.95,518.83 930.53,526.2 L930.11,533.57 L929.68,541.84 L928.38,563.22" fill-rule="evenodd" style="fill:none;stroke:var(--fg);stroke-linecap:round;stroke-linejoin:round;stroke-width:4;" />
	<path d="M887.61,539.8 L888.04,539.8 Q888.47,539.8 895.82,546.28 L903.17,552.76 L909.66,558.82 Q916.15,564.87 920.07,570.49 L923.98,576.11 L927.46,581.78 Q930.95,587.44 936.57,583.6 Q942.2,579.76 946.55,574.54 Q950.9,569.32 956.51,564.12 L962.21,558.88" fill-rule="evenodd" style="fill:none;stroke:var(--fg);stroke-linecap:round;stroke-linejoin:round;stroke-width:4;" />
	<path d="M835.56,595.32 L835.56,595.75 Q835.56,596.18 834.69,603.6 L833.82,611.01 L832.95,624.64 L832.09,637.7 L831.65,644.65 L830.35,660.38" fill-rule="evenodd" style="fill:none;stroke:var(--fg);stroke-linecap:round;stroke-linejoin:round;stroke-width:4;" />
	<path d="M836.42,598.79 L837.44,598.79 L838.45,598.79 L856.43,597.05 L868.42,597.05 L880.42,597.05 L888.65,597.47 Q896.88,597.89 903.44,597.9 Q909.99,597.92 916.95,598.34 Q923.91,598.75 930.87,599.19 Q937.82,599.62 945.19,599.64 L952.55,599.65 L962.08,599.65 Q971.6,599.65 979.86,597.94 Q988.13,596.22 997.22,596.64 Q1006.31,597.05 1014.55,596.62 Q1022.8,596.18 1025.47,603.93 Q1028.14,611.68 1026.4,621.18 L1024.67,630.68 L1023.37,638.05 Q1022.07,645.43 1021.63,654.14 Q1021.2,662.85 1022.07,670.25 Q1022.93,677.66 1013.49,677.26 Q1004.04,676.86 996.23,675.15 Q988.41,673.43 979.34,672.54 Q970.27,671.65 960.27,670.37 Q950.26,669.09 941.15,669.07 Q932.04,669.05 925.49,669.92 Q918.94,670.79 911.6,670.77 Q904.25,670.75 897.29,670.77 Q890.32,670.79 883.79,669.92 Q877.27,669.05 870.35,668.18 Q863.44,667.32 856.04,666.45 Q848.64,665.58 840.84,664.71 L823.84,666.45" fill-rule="evenodd" style="fill:none;stroke:var(--fg);stroke-linecap:round;stroke-linejoin:round;stroke-width:4;" />
	<path d="M934.45,676.86 L934.02,676.86 Q933.58,676.86 931.85,684.63 Q930.11,692.39 929.24,699.77 L928.38,707.15 L927.08,713.68 L925.78,721.1" fill-rule="evenodd" style="fill:none;stroke:var(--fg);stroke-linecap:round;stroke-linejoin:round;stroke-width:4;" />
	<path d="M890.21,715.9 L891.04,716.73 Q891.88,717.56 898.35,722.3 L904.81,727.03 L910.46,730.97 Q916.1,734.92 923.47,734.98 Q930.85,735.05 936.07,730.27 L944.86,723.7" fill-rule="evenodd" style="fill:none;stroke:var(--fg);stroke-linecap:round;stroke-linejoin:round;stroke-width:4;" />
	<path d="M927.51,756.67 L927.08,756.67 Q926.64,756.67 920.57,760.12 Q914.5,763.57 918.36,769.21 Q922.22,774.85 929.16,776.6 Q936.1,778.36 943.06,775.34 Q950.03,772.32 952.65,766.02 Q955.27,759.72 949.65,756.03 L938.79,749.73" fill-rule="evenodd" style="fill:none;stroke:var(--fg);stroke-linecap:round;stroke-linejoin:round;stroke-width:4;" />
	<path d="M1230.23,100.99 L1229.82,100.99 Q1229.41,100.99 1222.83,103.46 Q1216.24,105.93 1211.7,110.47 Q1207.17,115.02 1204.29,121.93 Q1201.42,128.83 1204.26,136.27 Q1207.09,143.7 1213.25,147.43 Q1219.42,151.17 1225.6,152.4 Q1231.79,153.63 1238.36,151.61 Q1244.93,149.6 1250.73,145.07 Q1256.53,140.54 1259,133.57 Q1261.47,126.59 1260.26,120.4 Q1259.04,114.2 1253.73,109.69 L1237.23,100.17" fill-rule="evenodd" style="fill:none;stroke:var(--fg);stroke-linecap:round;stroke-linejoin:round;stroke-width:4;" />
	<path d="M1232.7,156.97 L1232.7,157.79 L1232.7,171.68 L1232.7,186.48 L1232.7,199.66 L1232.7,212.04 L1232.29,218.24 L1232.7,226.11" fill-rule="evenodd" style="fill:none;stroke:var(--fg);stroke-linecap:round;stroke-linejoin:round;stroke-width:4;" />
	<path d="M1229.41,233.51 L1229,233.51 Q1228.59,233.51 1221.98,239.3 Q1215.37,245.08 1206.85,251.58 L1198.32,258.08 L1184.39,268.68 L1177,274.03 Q1169.61,279.38 1164.24,282.71 Q1158.87,286.03 1151.39,289.78 Q1143.92,293.53 1147.92,300.51 Q1151.93,307.49 1158.92,313.24 L1165.91,319 L1179.09,330.53 L1186.09,337.11 Q1193.08,343.7 1198.46,349.47 L1213.34,363.96" fill-rule="evenodd" style="fill:none;stroke:var(--fg);stroke-linecap:round;stroke-linejoin:round;stroke-width:4;" />
	<path d="M1249.16,231.04 L1249.56,231.85 Q1249.95,232.65 1254.56,239.75 Q1259.17,246.86 1264.84,252.51 L1270.52,258.16 L1275.85,263.89 Q1281.19,269.63 1287.37,275.41 L1293.55,281.19 L1299.31,286.54 Q1305.07,291.89 1310,295.6 Q1314.93,299.32 1314.96,306.76 Q1315,314.19 1310.05,318.74 Q1305.09,323.29 1299.78,328.98 L1294.47,334.68 L1289.97,339.2 Q1285.47,343.72 1280.92,349.08 L1276.37,354.43 L1271.84,359.37 Q1267.31,364.31 1264,369.68 Q1260.69,375.04 1256.57,379.98 Q1252.46,384.93 1245.1,386.59 Q1237.74,388.26 1231.97,385.81 L1219.12,380.85" fill-rule="evenodd" style="fill:none;stroke:var(--fg);stroke-linecap:round;stroke-linejoin:round;stroke-width:4;" />
	<path d="M1231.06,387.43 L1231.06,387.85 Q1231.06,388.26 1230.23,394.46 L1229.41,400.66 L1227.76,414.56 L1226.12,430.1 L1225.29,444.13 L1224.88,451.13 L1224.47,468.5" fill-rule="evenodd" style="fill:none;stroke:var(--fg);stroke-linecap:round;stroke-linejoin:round;stroke-width:4;" />
	<path d="M1175.08,482.09 L1175.5,482.09 L1175.91,482.09 L1182.09,481.68 Q1188.27,481.27 1196.13,480.86 Q1203.98,480.44 1215.28,480.03 Q1226.59,479.62 1233.6,479.21 L1240.61,478.8 L1247.71,478.8 L1254.81,478.8 L1261.83,478.39 Q1268.84,477.98 1275.01,477.56 L1288.25,477.15" fill-rule="evenodd" style="fill:none;stroke:var(--fg);stroke-linecap:round;stroke-linejoin:round;stroke-width:4;" />
	<path d="M1170.15,487.85 L1170.15,489.4 L1170.56,499.08 Q1170.97,508.76 1168.91,518.9 L1166.85,529.04 L1163.53,543.12 L1158.65,562.56 L1156.99,570.42 Q1155.33,578.29 1161.86,577.93 Q1168.38,577.57 1174.55,576.35 Q1180.73,575.13 1186.9,573.88 Q1193.07,572.63 1199.64,571.4 Q1206.22,570.16 1213.62,568.54 Q1221.02,566.91 1227.2,565.26 Q1233.39,563.61 1241.62,563.18 L1249.86,562.75 L1257.27,562.75 L1271.69,562.75 L1278.69,562.75 L1285.7,563.15 L1302.67,561.11" fill-rule="evenodd" style="fill:none;stroke:var(--fg);stroke-linecap:round;stroke-linejoin:round;stroke-width:4;" />
	<path d="M1296.9,469.74 L1296.9,470.57 L1296.89,485.33 L1296.9,504.88 L1296.08,523.76 L1296.08,536.23 L1296.49,542.48 L1296.08,555.35" fill-rule="evenodd" style="fill:none;stroke:var(--fg);stroke-linecap:round;stroke-linejoin:round;stroke-width:4;" />
	<path d="M1242.57,572.74 L1242.14,573.84 Q1241.72,574.94 1240.87,583.97 L1240.03,593.01 L1239.18,605.78 L1238.76,612.51 L1238.34,620.11" fill-rule="evenodd" style="fill:none;stroke:var(--fg);stroke-linecap:round;stroke-linejoin:round;stroke-width:4;" />
	<path d="M1207.89,455.18 L1208.31,455.18 Q1208.73,455.18 1213.8,459.82 Q1218.87,464.47 1226.45,461.96 Q1234.03,459.45 1239.53,455.22 L1250.18,447.57" fill-rule="evenodd" style="fill:none;stroke:var(--fg);stroke-linecap:round;stroke-linejoin:round;stroke-width:4;" />
	<path d="M1215.5,198.91 L1215.92,198.91 Q1216.35,198.91 1220.13,205.22 L1223.92,211.52 L1227.31,217.04 Q1230.69,222.56 1237.03,220.9 Q1243.37,219.24 1249.28,215.84 L1257.79,211.6" fill-rule="evenodd" style="fill:none;stroke:var(--fg);stroke-linecap:round;stroke-linejoin:round;stroke-width:4;" />
	<path d="M1215.5,602.35 L1215.5,602.77 Q1215.5,603.19 1218.87,608.66 L1222.23,614.12 L1225.62,620.06 Q1229,625.99 1236.17,626.45 Q1243.33,626.91 1248.86,623.53 L1260.33,618.42" fill-rule="evenodd" style="fill:none;stroke:var(--fg);stroke-linecap:round;stroke-linejoin:round;stroke-width:4;" />
	<path d="M1232.42,648.02 L1231.99,648.02 Q1231.57,648.02 1225.68,652.6 Q1219.8,657.19 1217.2,663.54 Q1214.6,669.9 1219.23,675.43 Q1223.86,680.95 1230.64,682.67 Q1237.43,684.39 1243.34,681.87 Q1249.26,679.35 1253.08,673.83 Q1256.9,668.32 1253.75,662.61 L1245.95,654.79" fill-rule="evenodd" style="fill:none;stroke:var(--fg);stroke-linecap:round;stroke-linejoin:round;stroke-width:4;" />
	<path d="M1448.31,126.97 L1447.9,127.37 Q1447.5,127.77 1443.14,132.86 Q1438.77,137.95 1436.67,143.8 Q1434.56,149.64 1438.57,154.87 Q1442.58,160.1 1449.46,160.93 Q1456.33,161.75 1463.2,158.94 Q1470.08,156.12 1475.76,152.87 Q1481.44,149.62 1479.83,143.17 Q1478.23,136.72 1472.59,134.27 L1465.29,131.82" fill-rule="evenodd" style="fill:none;stroke:var(--fg);stroke-linecap:round;stroke-linejoin:round;stroke-width:4;" />
	<path d="M1455.59,174.69 L1455.59,175.1 Q1455.59,175.5 1454.78,183.12 L1453.16,198.43 L1452.35,206.12 L1450.73,220.68 L1449.93,232.86 L1449.52,239.35 L1449.12,251.53" fill-rule="evenodd" style="fill:none;stroke:var(--fg);stroke-linecap:round;stroke-linejoin:round;stroke-width:4;" />
	<path d="M1426.47,244.25 L1426.47,244.65 Q1426.47,245.06 1428.88,251.11 Q1431.29,257.16 1438.55,258.39 Q1445.8,259.62 1451.86,257.21 Q1457.91,254.8 1464.39,253.16 L1473.38,251.53" fill-rule="evenodd" style="fill:none;stroke:var(--fg);stroke-linecap:round;stroke-linejoin:round;stroke-width:4;" />
	<path d="M1436.98,268.51 L1436.58,269.36 Q1436.18,270.21 1426.48,280.17 Q1416.79,290.12 1407.88,297.92 Q1398.97,305.72 1392.65,312.04 L1386.33,318.36 L1375.43,328.45 L1371.02,332.83 Q1366.62,337.21 1373.73,343.18 Q1380.85,349.14 1386.94,355.17 Q1393.04,361.19 1399.16,368.94 Q1405.29,376.7 1410.57,382.39 Q1415.86,388.09 1419.92,393.34 Q1423.98,398.6 1427.23,403.89 L1433.75,413.29" fill-rule="evenodd" style="fill:none;stroke:var(--fg);stroke-linecap:round;stroke-linejoin:round;stroke-width:4;" />
	<path d="M1448.31,272.56 L1448.91,273.57 Q1449.52,274.58 1457.18,281.88 Q1464.84,289.18 1473.77,294.12 Q1482.71,299.06 1491.65,304.32 L1500.59,309.57 L1509.12,314.84 Q1517.65,320.1 1524.59,323.4 Q1531.53,326.7 1531.98,332.77 Q1532.42,338.84 1527.59,343.68 L1522.75,348.52 L1509.85,360.61 L1497.71,372.75 L1486.39,383.29 L1475.07,393.8 L1470.61,398.27 Q1466.14,402.74 1461.27,406.38 L1451.54,412.88" fill-rule="evenodd" style="fill:none;stroke:var(--fg);stroke-linecap:round;stroke-linejoin:round;stroke-width:4;" />
	<path d="M1441.03,423.8 L1441.28,425.11 Q1441.52,426.41 1441.68,433.88 Q1441.84,441.35 1441.03,448.72 L1440.22,456.09 L1439.41,468.25 L1438.6,480.39 L1438.6,486.86 L1438.6,495.37" fill-rule="evenodd" style="fill:none;stroke:var(--fg);stroke-linecap:round;stroke-linejoin:round;stroke-width:4;" />
	<path d="M1372.28,507.92 L1372.68,507.92 L1380.99,507.92 L1388.89,507.92 L1399.05,508.3 Q1409.21,508.69 1421.3,509.09 Q1433.39,509.5 1440.26,509.11 Q1447.12,508.73 1455.7,509.52 Q1464.29,510.31 1471.97,509.92 Q1479.65,509.54 1486.14,509.13 Q1492.63,508.73 1500.72,508.32 L1508.82,507.92 L1514.9,507.92 L1532.42,507.92" fill-rule="evenodd" style="fill:none;stroke:var(--fg);stroke-linecap:round;stroke-linejoin:round;stroke-width:4;" />
	<path d="M1378.75,505.49 L1378.35,506.08 Q1377.94,506.66 1374.29,513.39 Q1370.63,520.13 1365.45,527.68 L1360.26,535.24 L1348.91,549.84 L1339.22,562.79 L1335.55,567.69 Q1331.88,572.59 1340.64,573.01 Q1349.39,573.43 1357.51,572.64 Q1365.62,571.85 1372.91,571.43 Q1380.2,571.01 1388.67,571.41 Q1397.14,571.82 1407.63,571.41 Q1418.12,571.01 1426.25,570.6 Q1434.37,570.2 1443.24,570.6 Q1452.1,571.01 1459.82,571.8 Q1467.55,572.59 1474.04,573.81 Q1480.53,575.02 1486.65,573.82 Q1492.76,572.62 1497.16,566.21 L1501.57,559.8 L1512.04,544.48 L1516.92,537.98 Q1521.8,531.48 1527.08,525.4 L1538.49,514.39" fill-rule="evenodd" style="fill:none;stroke:var(--fg);stroke-linecap:round;stroke-linejoin:round;stroke-width:4;" />
	<path d="M1421.62,567.77 L1421.62,568.58 L1421.62,577.03 Q1421.62,585.48 1420.4,594.35 L1419.19,603.23 L1416.76,618.55 L1415.15,630.71 L1414.34,636.81 L1413.53,650.67" fill-rule="evenodd" style="fill:none;stroke:var(--fg);stroke-linecap:round;stroke-linejoin:round;stroke-width:4;" />
	<path d="M1387.65,637.33 L1387.65,637.73 Q1387.65,638.14 1393.32,642.59 Q1398.98,647.04 1405.43,648.25 Q1411.88,649.46 1417.52,646.24 L1425.66,642.18" fill-rule="evenodd" style="fill:none;stroke:var(--fg);stroke-linecap:round;stroke-linejoin:round;stroke-width:4;" />
	<path d="M1419.19,664.02 L1418.79,664.02 Q1418.38,664.02 1408.31,666.03 Q1398.24,668.05 1387.39,672.45 Q1376.54,676.85 1370.11,680.45 Q1363.68,684.05 1358.31,690.94 Q1352.94,697.82 1352.09,706.32 Q1351.25,714.82 1353.25,721.31 Q1355.25,727.79 1359.68,733.46 Q1364.12,739.12 1370.96,743.18 Q1377.8,747.23 1385.1,749.28 Q1392.4,751.34 1398.46,752.95 Q1404.53,754.57 1413.41,753.8 Q1422.29,753.02 1429.98,749.39 Q1437.68,745.75 1444.56,740.51 Q1451.43,735.27 1455.49,730.03 Q1459.55,724.8 1462.39,718.74 Q1465.23,712.68 1467.25,706.61 Q1469.27,700.55 1470.9,693.24 Q1472.54,685.93 1471.75,679.08 Q1470.95,672.22 1466.52,666.52 Q1462.09,660.82 1454.46,659.59 Q1446.83,658.36 1439.96,657.55 Q1433.09,656.74 1425.77,654.72 L1410.29,654.72" fill-rule="evenodd" style="fill:none;stroke:var(--fg);stroke-linecap:round;stroke-linejoin:round;stroke-width:4;" />
	<path d="M1374.71,340.5 L1373.7,340.5 Q1372.68,340.5 1366.62,341.91 Q1360.55,343.33 1358.33,335.89 Q1356.1,328.46 1357.3,320.78 L1358.49,313.1 L1360.15,297.74 L1361.72,285.66 L1362.54,273.47 L1364.19,257.3 L1365.39,250.43 Q1366.58,243.56 1367,236.64 L1367.43,229.72 L1367.43,223.25 Q1367.43,216.79 1366.62,209.53 L1365.81,202.26 L1365,195.8 Q1364.19,189.33 1364.19,183.26 L1364.19,170.32 L1364.19,163.44 L1364,157.14 Q1363.81,150.85 1358.76,147.4 Q1353.72,143.96 1346.08,141.93 Q1338.44,139.91 1332.35,138.7 Q1326.27,137.49 1319.38,136.68 Q1312.5,135.87 1305.22,134.25 Q1297.95,132.63 1291.46,131.82 L1277.26,131.02" fill-rule="evenodd" style="fill:none;stroke:var(--fg);stroke-linecap:round;stroke-linejoin:round;stroke-width:4;" />
	<path d="M1302.72,108.37 L1302.32,108.37 Q1301.91,108.37 1296.68,111.58 Q1291.44,114.8 1290.19,120.84 Q1288.93,126.89 1291.75,132.95 L1294.57,139 L1297.81,145.08 L1306.77,160.13" fill-rule="evenodd" style="fill:none;stroke:var(--fg);stroke-linecap:round;stroke-linejoin:round;stroke-width:4;" />
	<path d="M1148.83,295.04 L1148.45,295.04 L1148.08,295.04 L1134.54,294.28 L1127.41,294.28 Q1120.28,294.28 1115.38,298 Q1110.47,301.72 1108.59,308.05 Q1106.71,314.39 1106.34,321.88 L1105.96,329.37 L1105.96,345.17 L1106.71,360.91 L1107.46,375.23 L1107.46,389.65 L1107.81,396.79 Q1108.16,403.93 1107.81,410.33 Q1107.46,416.74 1108.2,423.9 L1108.93,431.05 L1109.68,443.06 L1110.43,454.32 L1111.19,465.62 L1111.94,478.38 L1112.73,494.92 L1113.44,506.22 L1114.19,518.26 L1114.23,531.8 L1115.7,546.13 L1117.96,561.13 L1119.45,572.39 L1120.97,585.92 L1121.71,593.05 Q1122.46,600.18 1122.48,606.59 L1122.51,613 L1122.88,619.41 Q1123.26,625.81 1122.88,633.71 L1122.51,641.61 L1122.51,655.94 L1121.75,668.72 L1121.75,682.26 L1121.75,695.04 L1121.75,707.07 L1122.51,718.43 L1122.88,724.08 Q1123.26,729.73 1126.98,734.25 Q1130.71,738.77 1136.33,739.88 Q1141.95,740.99 1149.83,741.75 Q1157.71,742.5 1163.35,743.25 Q1168.99,744 1175.36,744.02 Q1181.72,744.04 1188.13,743.66 L1194.54,743.29 L1200.93,742.91 Q1207.31,742.53 1214.08,742.16 Q1220.86,741.78 1229.14,741.41 Q1237.42,741.03 1243.82,740.65 L1250.22,740.28 L1262.97,739.53 L1269.36,739.15 Q1275.75,738.77 1283.66,738.02 L1291.57,737.27 L1299.1,737.27 L1306.63,737.27 L1318.69,736.52 L1325.48,736.52 L1332.27,736.52 L1338.3,737.27 L1348.13,739.53" fill-rule="evenodd" style="fill:none;stroke:var(--fg);stroke-linecap:round;stroke-linejoin:round;stroke-width:4;" />
	<path d="M1320.31,715.46 L1320.68,715.83 Q1321.06,716.21 1326.29,719.57 Q1331.53,722.92 1336.43,727.07 Q1341.33,731.22 1342.12,737.96 Q1342.91,744.71 1339.53,750.35 L1331.59,763.59" fill-rule="evenodd" style="fill:none;stroke:var(--fg);stroke-linecap:round;stroke-linejoin:round;stroke-width:4;" />
</svg>