<?xml version="1.0" encoding="UTF-8"?>
<!-- Created with Grafika (https://www.grafika.cc/) -->
<svg xmlns="http://www.w3.org/2000/svg" xmlns:svg="http://www.w3.org/2000/svg" xmlns:xlink="http://www.w3.org/1999/xlink" width="800" height="300" viewBox="0 0 800 300" preserveAspectRatio="xMidYMid meet">
	<rect x="0" y="0" width="800" height="300" fill="var(--bg)" />
	<path d="M54.08,36.18 L54.08,37.48 L54.08,73.16 L54.08,85.51 L52.78,105 L52.78,127.09 L51.48,147.89 L51.48,168.65 L50.18,189.49 L48.88,208.98 L47.58,229.78 L46.28,239.52 L44.98,255.79" fill-rule="evenodd" style="fill:none;stroke:var(--fg);stroke-linecap:round;stroke-linejoin:round;stroke-width:8;" />
	<path d="M13.8,150.53 L14.45,150.53 L15.1,150.53 L25.46,151.17 Q35.82,151.8 46.86,152.47 L57.91,153.13 L68.96,153.13 L80.02,153.13 L102.11,154.43 L114.45,154.43 L126.79,154.43 L137.18,153.78 Q147.57,153.13 158.61,152.48 Q169.64,151.83 180.7,150.53 Q191.76,149.24 203.45,148.59 Q215.15,147.94 225.56,147.93 Q235.97,147.92 247.01,147.93 Q258.06,147.94 269.73,147.29 L281.4,146.64 L292.45,146.64 L303.51,146.64 L314.56,145.99 Q325.61,145.34 337.3,144.69 L349,144.04 L361.99,144.04 L384.73,144.04 L394.49,144.04 L405.53,143.39 Q416.57,142.74 426.33,142.09 L455.61,141.44" fill-rule="evenodd" style="fill:none;stroke:var(--fg);stroke-linecap:round;stroke-linejoin:round;stroke-width:8;" />
	<path d="M44.98,156.42 L45.63,156.42 Q46.28,156.42 52.77,147.98 L59.26,139.54 L65.75,131.75 Q72.23,123.97 80.04,116.16 Q87.84,108.36 96.94,101.86 Q106.03,95.37 115.78,91.46 Q125.52,87.55 135.26,85.6 Q145,83.65 155.41,84.3 Q165.82,84.95 174.91,90.14 Q184.01,95.33 190.5,103.12 Q196.99,110.91 202.84,120.66 L208.68,130.4 L217.78,148.55 L222.33,158.32 Q226.88,168.08 232.07,177.17 Q237.26,186.27 243.76,194.07 Q250.26,201.87 260.66,205.12 Q271.06,208.37 282.09,207.73 Q293.11,207.09 302.86,203.21 Q312.6,199.33 321.71,193.48 Q330.82,187.63 338.61,181.13 Q346.41,174.63 352.91,166.84 L359.42,159.04 L365.26,151.23 L375.04,135.63" fill-rule="evenodd" opacity="0.5" style="fill:#C60105;stroke:#062B67;stroke-linecap:round;stroke-linejoin:round;stroke-width:8;" />
	<path d="M418.56,111.25 L418.56,111.65 Q418.56,112.05 423.7,115.59 Q428.83,119.13 434.4,122.32 Q439.97,125.52 445.58,129.91 Q451.18,134.3 456.79,137.91 Q462.4,141.52 458.46,147.88 Q454.52,154.24 449.75,158.24 Q444.99,162.23 440.18,165.84 L432.92,172.29" fill-rule="evenodd" style="fill:none;stroke:var(--fg);stroke-linecap:round;stroke-linejoin:round;stroke-width:8;" />
	<path d="M40.54,67.39 L41.09,66.46 Q41.65,65.54 45.17,57.57 L48.69,49.61 L51.65,42.57 Q54.61,35.53 60.11,37.33 Q65.61,39.12 70.09,44.69 L79.42,55.89" fill-rule="evenodd" style="fill:none;stroke:var(--fg);stroke-linecap:round;stroke-linejoin:round;stroke-width:8;" />
	<path d="M147.77,38.57 L147.56,38.77 Q147.34,38.98 144.59,43.22 L141.83,47.46 L137.12,54.74 L134.97,57.76 L132.36,62.11" fill-rule="evenodd" style="fill:none;stroke:var(--fg);stroke-linecap:round;stroke-linejoin:round;stroke-width:8;" />
	<path d="M152.05,38.57 L152.05,38.79 Q152.05,39 152.81,42.23 L153.57,45.46 L155.72,52.76 L158.03,59.96 L159.31,63.16 L161.04,68.74" fill-rule="evenodd" style="fill:none;stroke:var(--fg);stroke-linecap:round;stroke-linejoin:round;stroke-width:8;" />
	<path d="M139.64,58.26 L139.85,58.26 L143.49,58.26 L146.91,58.26 L150.12,58.05 L156.33,57.83" fill-rule="evenodd" style="fill:none;stroke:var(--fg);stroke-linecap:round;stroke-linejoin:round;stroke-width:8;" />
	<path d="M268.46,227.75 L268.46,227.96 Q268.46,228.17 267.82,232.38 L267.18,236.59 L266.32,243.12 L265.9,249.96 L265.47,253.18 L265.04,256.42" fill-rule="evenodd" style="fill:none;stroke:var(--fg);stroke-linecap:round;stroke-linejoin:round;stroke-width:8;" />
	<path d="M267.61,229.89 L267.82,229.89 Q268.04,229.89 271.43,228.39 Q274.83,226.89 279.09,226.46 Q283.35,226.03 287.22,225.82 Q291.1,225.61 293.26,228.38 Q295.43,231.15 293.51,234.14 Q291.6,237.14 288.83,238.85 Q286.06,240.56 283.05,241.84 Q280.05,243.13 283.22,245.05 Q286.39,246.98 289.61,248.26 Q292.83,249.55 293.27,252.76 Q293.72,255.97 291.59,258.75 Q289.46,261.54 285.62,261.76 Q281.78,261.98 278.56,261.56 L270.4,259.21" fill-rule="evenodd" style="fill:none;stroke:var(--fg);stroke-linecap:round;stroke-linejoin:round;stroke-width:8;" />
	<path d="M538.87,32.02 L538.87,32.21 Q538.87,32.4 535.46,39.99 L532.05,47.57 L528.97,56.02 L527.83,58.85 L525.55,64.96" fill-rule="evenodd" style="fill:none;stroke:var(--fg);stroke-linecap:round;stroke-linejoin:round;stroke-width:8;" />
	<path d="M543.44,31.64 L543.44,31.83 Q543.44,32.02 545.52,35.04 L547.59,38.05 L550.99,43.74 L554.45,49.45 L557.49,54.42 L559.21,57.29 L564.19,64.96" fill-rule="evenodd" style="fill:none;stroke:var(--fg);stroke-linecap:round;stroke-linejoin:round;stroke-width:8;" />
	<path d="M533.16,51.82 L533.35,51.82 L533.54,51.82 L536.91,51.63 Q540.28,51.44 543.91,51.25 Q547.53,51.06 550.41,50.87 L557.15,50.3" fill-rule="evenodd" style="fill:none;stroke:var(--fg);stroke-linecap:round;stroke-linejoin:round;stroke-width:8;" />
	<path d="M580.38,40.78 L580.57,40.78 L580.76,40.78 L586.77,40.02 L590.75,40.02 L599.87,40.02 L609.13,40.02" fill-rule="evenodd" style="fill:none;stroke:var(--fg);stroke-linecap:round;stroke-linejoin:round;stroke-width:8;" />
	<path d="M581.9,56.01 L582.38,55.73 Q582.86,55.44 585.88,55.51 Q588.9,55.57 592.37,55.41 Q595.84,55.25 598.95,55.24 Q602.05,55.23 604.91,55.99 L610.46,57.16" fill-rule="evenodd" style="fill:none;stroke:var(--fg);stroke-linecap:round;stroke-linejoin:round;stroke-width:8;" />
	<path d="M631.41,46.11 L631.6,46.11 L631.79,46.11 L635.74,45.17 Q639.7,44.23 642.55,44.02 Q645.41,43.8 648.3,44.76 L652.35,46.11" fill-rule="evenodd" style="fill:none;stroke:var(--fg);stroke-linecap:round;stroke-linejoin:round;stroke-width:8;" />
	<path d="M672.92,27.83 L672.92,28.41 Q672.92,28.98 674.22,33.48 L675.53,37.99 L676.48,41.91 Q677.44,45.84 677.82,49.85 L678.21,53.86 L678.58,62.21 L678.77,65.33 L679.01,70.86" fill-rule="evenodd" style="fill:none;stroke:var(--fg);stroke-linecap:round;stroke-linejoin:round;stroke-width:8;" />
	<path d="M671.39,35.07 L671.75,34.72 Q672.1,34.36 675.51,32.06 Q678.91,29.76 682.72,29.18 Q686.53,28.6 689.78,29.73 Q693.04,30.86 694.77,33.34 Q696.5,35.81 695.76,38.85 Q695.02,41.88 692.55,44.55 Q690.07,47.21 687.3,48.57 Q684.53,49.92 688.03,50.86 Q691.53,51.8 694.58,53.7 Q697.62,55.59 699.92,57.7 Q702.22,59.8 701.1,62.47 Q699.97,65.13 697.31,66.84 Q694.64,68.56 691.6,69.14 L685.86,69.34" fill-rule="evenodd" style="fill:none;stroke:var(--fg);stroke-linecap:round;stroke-linejoin:round;stroke-width:8;" />
	<path d="M567.46,101.55 L567.46,102.07 Q567.46,102.6 567.98,107.34 L568.5,112.07 L570.65,125.45 L572.25,139.34 L573.32,152.21 L574.39,158.09 Q575.46,163.97 575.73,170.65 L575.99,177.34 L576.56,188.57 L577.09,198.77 L577.63,208.42 L578.67,218.56 L579.2,228.15 L579.74,237.34 L580.31,246.42 L580.57,251.52 Q580.84,256.63 580.57,261.19 L580.31,273.3" fill-rule="evenodd" style="fill:none;stroke:var(--fg);stroke-linecap:round;stroke-linejoin:round;stroke-width:8;" />
	<path d="M635.95,103.16 L635.95,104.18 L637.02,115.45 L638.09,124.58 L639.69,133.65 L641.84,144.38 L643.42,157.06 L644.99,169.17 L646.08,177.28 L647.15,190.18 L648.22,200.38 L648.75,210.53 L649.32,220.65 L649.82,230.86 L650.36,239.97 L650.39,251.25 L650.93,261.44 L650.93,269.48 L651.2,273.53 L651.46,278.9" fill-rule="evenodd" style="fill:none;stroke:var(--fg);stroke-linecap:round;stroke-linejoin:round;stroke-width:8;" />
	<path d="M506.47,177.53 L506.47,177.26 Q506.47,176.99 511.6,175.7 Q516.73,174.4 523.42,173.32 Q530.11,172.24 538.87,170.9 Q547.62,169.56 552.98,169.26 Q558.35,168.97 563.42,168.46 Q568.5,167.95 574.81,167.66 Q581.12,167.36 586.97,167.09 Q592.82,166.83 599.01,166.56 Q605.19,166.29 611.08,166.02 L616.97,165.76 L621.29,165.76 L630.69,165.76 L639.81,165.76 L643.85,165.76 L648.38,165.49 Q652.91,165.22 657.48,164.95 L662.04,164.69 L666.6,164.42 Q671.16,164.15 675.71,163.62 L680.26,163.08 L684.55,163.08 L688.85,163.08 L697.42,162.55 L701.45,162.55 L705.47,162.55 L709.49,163.08 L717.27,164.15" fill-rule="evenodd" style="fill:none;stroke:var(--fg);stroke-linecap:round;stroke-linejoin:round;stroke-width:8;" />
	<path d="M510.22,232.63 L510.73,232.37 Q511.25,232.1 517.08,230.24 Q522.9,228.39 528.78,227.57 Q534.65,226.75 541.06,226.48 Q547.47,226.21 553.63,225.93 Q559.79,225.65 565.67,225.13 Q571.55,224.61 577.18,223.81 Q582.8,223 590.01,222.2 Q597.22,221.4 603.65,220.86 Q610.08,220.33 615.97,219.26 Q621.85,218.19 627.76,217.39 Q633.66,216.58 638.22,216.32 Q642.78,216.05 649.16,215.78 Q655.54,215.51 661.18,215.25 Q666.82,214.98 671.12,214.44 Q675.42,213.91 680.5,213.64 Q685.59,213.37 690.16,212.84 Q694.73,212.3 698.76,212.04 L702.8,211.77 L707.08,211.77 L715.13,211.77" fill-rule="evenodd" style="fill:none;stroke:var(--fg);stroke-linecap:round;stroke-linejoin:round;stroke-width:8;" />
	<path d="M534.83,248.15 L534.56,248.15 Q534.29,248.15 531.62,251.34 Q528.94,254.54 529.47,259.09 Q529.99,263.64 532.66,266.85 Q535.34,270.06 539.6,271.41 Q543.87,272.76 547.89,270.91 Q551.91,269.05 554.06,265.03 Q556.2,261.02 555.41,256.74 Q554.62,252.46 551.16,250.3 L546.6,248.15" fill-rule="evenodd" style="fill:none;stroke:#095542;stroke-linecap:round;stroke-linejoin:round;stroke-width:8;" />
	<path d="M601.17,241.73 L601.44,242 Q601.71,242.27 605.67,245.44 L609.63,248.62 L616.59,254.51 L620.61,257.72 Q624.63,260.93 628.11,263.35 L635.95,268.48" fill-rule="evenodd" style="fill:none;stroke:#8338EC;stroke-linecap:round;stroke-linejoin:round;stroke-width:8;" />
	<path d="M634.88,234.24 L634.61,234.24 Q634.34,234.24 630.41,238.17 Q626.49,242.1 623.5,245.59 L620.52,249.08 L613.55,256.64 L610.85,259.87 L603.85,269.55" fill-rule="evenodd" style="fill:none;stroke:#8338EC;stroke-linecap:round;stroke-linejoin:round;stroke-width:8;" />
	<path d="M605.45,176.46 L605.18,176.46 Q604.92,176.46 602.51,179.9 Q600.1,183.35 599.28,187.9 Q598.47,192.45 601.39,195.94 Q604.32,199.43 608.6,200.5 Q612.88,201.57 617.43,200.79 Q621.98,200 625.2,197.34 Q628.42,194.68 628.44,190.4 Q628.46,186.12 624.99,182.91 L616.15,178.6" fill-rule="evenodd" style="fill:none;stroke:#095542;stroke-linecap:round;stroke-linejoin:round;stroke-width:8;" />
	<path d="M661.09,110.65 L661.38,110.92 Q661.66,111.18 664.62,114.43 L667.58,117.67 L675.34,125.43 L679.65,130.01 Q683.96,134.58 687.46,137.82 L695.34,145.43" fill-rule="evenodd" style="fill:none;stroke:#8338EC;stroke-linecap:round;stroke-linejoin:round;stroke-width:8;" />
	<path d="M697.48,109.58 L696.94,110.08 L692.44,114.06 Q687.95,118.04 684.74,121.51 Q681.53,124.99 679.1,128.21 L676.67,131.43 L671.29,138.4 L668.6,141.9 L663.23,148.1" fill-rule="evenodd" style="fill:none;stroke:#8338EC;stroke-linecap:round;stroke-linejoin:round;stroke-width:8;" />
	<path d="M600.64,120.81 L600.37,120.81 Q600.1,120.81 596.91,124.53 Q593.71,128.24 592.36,132.78 Q591.01,137.32 592.86,141.09 Q594.72,144.86 598.72,146.47 Q602.71,148.07 607.26,148.35 Q611.81,148.64 615.03,145.45 Q618.25,142.26 619.59,137.98 Q620.93,133.69 619.09,129.94 L612.67,122.15" fill-rule="evenodd" style="fill:none;stroke:#095542;stroke-linecap:round;stroke-linejoin:round;stroke-width:8;" />
	<path d="M669.65,176.46 L669.92,176.46 Q670.19,176.46 674.17,179.9 L678.15,183.35 L681.36,186.29 Q684.57,189.23 688.32,191.92 L692.06,194.61 L695.54,197.02 Q699.01,199.43 702.25,201.84 L706.04,204.81" fill-rule="evenodd" style="fill:none;stroke:#8338EC;stroke-linecap:round;stroke-linejoin:round;stroke-width:8;" />
	<path d="M707.11,172.71 L707.11,172.98 Q707.11,173.25 703.09,177.27 L699.07,181.29 L685.98,193.3 L681.7,197.07 Q677.42,200.83 674.36,203.86 L668.85,209.09" fill-rule="evenodd" style="fill:none;stroke:#8338EC;stroke-linecap:round;stroke-linejoin:round;stroke-width:8;" />
	<path d="M687.85,236.38 L687.58,236.38 Q687.31,236.38 683.09,239.54 Q678.88,242.7 675.39,245.91 Q671.89,249.12 668.92,253.14 Q665.94,257.15 664.85,261.72 Q663.77,266.28 666.93,269.76 Q670.09,273.25 674.37,274.33 Q678.65,275.4 683.99,274.62 Q689.32,273.83 694.16,271.46 Q698.99,269.08 702.48,266.12 Q705.97,263.16 708.13,259.7 Q710.29,256.23 711.64,251.94 Q712.99,247.65 711.4,243.37 Q709.81,239.08 705.01,236.68 Q700.21,234.27 695.92,234.24 L691.59,234.24" fill-rule="evenodd" style="fill:none;stroke:#095542;stroke-linecap:round;stroke-linejoin:round;stroke-width:8;" />
	<path d="M517.71,125.09 L518.23,125.35 Q518.75,125.6 523.52,129.05 L528.29,132.49 L532.29,135.45 Q536.29,138.4 540.31,141.87 Q544.33,145.33 548.1,148.01 L551.87,150.69 L555.64,153.4 L560.23,156.92" fill-rule="evenodd" style="fill:none;stroke:#8338EC;stroke-linecap:round;stroke-linejoin:round;stroke-width:8;" />
	<path d="M556.76,116.53 L556.5,116.53 Q556.23,116.53 551.69,120.54 Q547.14,124.55 541.51,130.45 Q535.87,136.36 531.65,141.89 L527.42,147.43 L524.47,150.93 Q521.52,154.42 519.34,158.2 L517.17,162.28" fill-rule="evenodd" style="fill:none;stroke:#8338EC;stroke-linecap:round;stroke-linejoin:round;stroke-width:8;" />
</svg>