<?xml version="1.0" encoding="UTF-8"?>
<!-- Created with Grafika (https://www.grafika.cc/) -->
<svg xmlns="http://www.w3.org/2000/svg" xmlns:svg="http://www.w3.org/2000/svg" xmlns:xlink="http://www.w3.org/1999/xlink" width="200" height="200" viewBox="0 0 200 200" preserveAspectRatio="xMidYMid meet">
	<rect x="0" y="0" width="200" height="200" fill="var(--bg)" />
	<g transform="matrix(1, 0, 0, 1, 100, 100)">
		<path d="M-53.13,-63.53 L-53.31,-63.53 Q-53.48,-63.53 -55.19,-60.8 L-56.9,-58.06 L-58.62,-54.97 Q-60.33,-51.89 -61.37,-49.48 L-62.41,-47.08 L-64.48,-41.24 L-66.2,-34.71 L-67.59,-28.52 L-68.62,-21.97 L-69.66,-14.73 L-70.35,-7.51 L-70.69,-0.28 L-71.38,6.96 L-71.38,13.48 L-71.38,20.04 L-71.39,26.58 L-71.39,29.85 Q-71.38,33.12 -71.04,36.05 Q-70.7,38.99 -69.67,42.6 Q-68.64,46.22 -66.93,49.32 Q-65.22,52.42 -62.81,55.18 Q-60.41,57.93 -58.01,59.99 Q-55.61,62.04 -52.69,64.12 Q-49.77,66.2 -44.99,68.6 L-40.21,70.99 L-37.1,72.54 Q-33.99,74.09 -29.67,74.98 Q-25.34,75.87 -22.07,76.05 Q-18.8,76.23 -15.52,75.88 L-12.24,75.54 L-8.97,75.19 Q-5.7,74.85 -2.43,74 Q0.84,73.14 4.96,71.94 Q9.07,70.74 13.2,68.51 Q17.33,66.29 20.44,64.74 L23.54,63.18 L27.15,61.3 Q30.76,59.41 33.7,57.5 Q36.64,55.6 39.57,53.37 Q42.49,51.14 45.08,48.9 Q47.67,46.67 50.25,43.92 Q52.83,41.17 55.23,38.08 Q57.63,35 59.71,31.73 Q61.79,28.46 63.68,24.16 Q65.58,19.87 66.44,17.29 L67.3,14.72 L69.37,9.21 L71.42,3.39 L72.99,-1.28 Q74.55,-5.95 75.06,-9.19 L75.57,-12.43 L75.76,-15.53 Q75.94,-18.63 76.62,-22.78 Q77.31,-26.94 77.49,-29.68 Q77.66,-32.42 77.32,-36.57 L76.99,-40.72 L76.65,-43.3 Q76.31,-45.87 75.28,-50.02 L74.25,-54.16 L72.88,-58.11 Q71.51,-62.05 69.46,-65 Q67.4,-67.94 65.32,-69.85 Q63.25,-71.76 61.02,-73.14 Q58.8,-74.51 55.71,-75.38 Q52.63,-76.25 49.87,-76.77 Q47.1,-77.29 44.35,-76.79 Q41.6,-76.29 38.84,-75.43 Q36.08,-74.58 32.81,-73.72 Q29.55,-72.86 26.11,-70.81 Q22.67,-68.75 20.25,-67.7 Q17.83,-66.65 15.59,-65.11 Q13.35,-63.58 11.29,-61.69 L9.22,-59.79 L6.81,-57.56 Q4.4,-55.33 2.16,-52.92 Q-0.07,-50.52 -1.8,-47.93 L-3.54,-45.35 L-7.32,-39.18 L-9.04,-36.24 Q-10.76,-33.3 -11.98,-30.39 L-13.19,-27.47 L-15.25,-21.6 L-17.31,-15.09 L-18.52,-12.15 Q-19.73,-9.21 -20.59,-6.12 Q-21.45,-3.03 -22.64,-0.44 L-23.84,2.14 L-26.25,6.97 L-27.64,9.57 Q-29.02,12.16 -31.09,13.89 Q-33.15,15.63 -35.9,16.66 Q-38.65,17.69 -41.57,16.85 Q-44.5,16 -46.57,13.94 Q-48.64,11.87 -49.68,9.29 Q-50.72,6.72 -51.07,3.45 Q-51.41,0.18 -51.24,-2.91 L-51.07,-6 L-50.4,-11.48 L-49.37,-16.64 L-48.33,-22.16 L-46.95,-29.74 L-46.27,-36.98 L-45.91,-43.18 L-45.91,-46.45 Q-45.91,-49.73 -46.77,-52.49 Q-47.63,-55.24 -49.17,-57.83 L-53.13,-64.39" fill-rule="evenodd" style="fill:#5B9BFF;stroke:#3A86FF;stroke-linecap:round;stroke-linejoin:round;stroke-width:4;" />
		<path d="M29.83,-45.98 L29.53,-45.8 Q29.24,-45.63 27.12,-43.74 Q25,-41.84 23.11,-39.77 Q21.21,-37.7 19.67,-35.14 Q18.13,-32.58 17.27,-30 Q16.4,-27.43 16.23,-24.85 Q16.06,-22.27 16.91,-19.34 Q17.76,-16.4 19.82,-14.68 Q21.87,-12.95 24.79,-12.42 Q27.71,-11.9 30.29,-12.41 Q32.88,-12.93 35.81,-14.47 Q38.75,-16.02 40.65,-17.91 Q42.55,-19.8 44.1,-22.2 Q45.64,-24.6 46.51,-27.19 Q47.37,-29.78 47.55,-32.54 Q47.73,-35.29 46.87,-37.87 Q46.01,-40.45 43.95,-42.18 Q41.89,-43.91 39.48,-45.12 L33.27,-47.01" fill-rule="evenodd" style="fill:#AACAFE;stroke:#3A86FF;stroke-linecap:round;stroke-linejoin:round;stroke-width:4;" />
		<path d="M-56.65,-37.03 L-56.65,-36.68 L-56.98,-31 L-57.31,-24.96 L-57.64,-19.5 L-58.31,-13.98 L-58.64,-8.49 L-58.64,-2.63 L-58.31,2.53 L-57.64,8.04 L-57.15,10.63 Q-56.66,13.21 -56.49,15.97 Q-56.31,18.72 -55.82,21.48 Q-55.33,24.23 -54.5,26.81 L-53.67,29.38 L-52.67,31.79 Q-51.68,34.2 -50.18,36.44 L-48.68,38.69 L-47.02,40.93 Q-45.36,43.16 -43.04,45.23 Q-40.71,47.3 -38.22,48.33 Q-35.73,49.36 -32.9,50.05 Q-30.08,50.74 -27.25,50.92 Q-24.42,51.1 -21.93,50.92 Q-19.43,50.75 -16.61,49.89 Q-13.78,49.03 -11.29,47.66 Q-8.8,46.29 -6.47,44.57 Q-4.14,42.85 -1.98,40.96 Q0.18,39.06 2.18,37 Q4.19,34.94 6.18,32.53 L8.18,30.13 L10.01,27.88 Q11.84,25.64 13.33,23.23 Q14.83,20.82 15.99,18.24 Q17.15,15.66 17.99,13.16 L19.5,9.1" fill-rule="evenodd" style="fill:none;stroke:#E6D491;stroke-linecap:round;stroke-linejoin:round;stroke-width:4;" />
	</g>
</svg>