<?xml version="1.0" encoding="UTF-8"?>
<!-- Created with Grafika (https://www.grafika.cc/) -->
<svg xmlns="http://www.w3.org/2000/svg" xmlns:svg="http://www.w3.org/2000/svg" xmlns:xlink="http://www.w3.org/1999/xlink" width="200" height="200" viewBox="0 0 200 200" preserveAspectRatio="xMidYMid meet">
	<rect x="0" y="0" width="200" height="200" fill="var(--bg)" />
	<g transform="matrix(1, 0, 0, 1, 100, 100)">
		<path d="M-42.47,-3.55 L-42.66,-3.9 Q-42.86,-4.24 -46.22,-5.92 Q-49.57,-7.59 -52.19,-8.77 Q-54.81,-9.95 -56.86,-11.8 Q-58.92,-13.65 -60.79,-16.01 Q-62.66,-18.37 -64.16,-21.74 L-66.77,-27.63 Q-67.9,-30.16 -68.27,-33.19 Q-68.65,-36.23 -68.47,-38.92 Q-68.29,-41.62 -67.16,-44.48 Q-66.04,-47.35 -63.98,-49.54 Q-61.93,-51.74 -59.31,-53.6 Q-56.69,-55.46 -53.33,-56.13 Q-49.96,-56.8 -47.15,-56.47 Q-44.35,-56.13 -41.73,-54.78 Q-39.11,-53.44 -37.05,-51.25 Q-34.99,-49.06 -33.49,-51.58 Q-31.99,-54.1 -32.18,-57.3 L-32.36,-60.5 L-32.36,-63.53 Q-32.36,-66.57 -31.43,-69.6 Q-30.5,-72.63 -29.38,-74.99 Q-28.25,-77.36 -25.82,-79.55 Q-23.4,-81.74 -20.59,-83.76 Q-17.79,-85.79 -14.8,-87.3 Q-11.82,-88.82 -8.26,-90 Q-4.71,-91.18 -1.53,-91.18 Q1.66,-91.19 4.66,-89.84 Q7.65,-88.5 9.34,-86.14 Q11.03,-83.78 12.33,-80.58 Q13.64,-77.38 14.2,-74.51 L14.77,-71.64 L15.14,-69.11 Q15.52,-66.58 18.32,-68.09 Q21.11,-69.6 23.35,-71.29 L25.6,-72.97 L28.4,-75.16 Q31.2,-77.34 34.19,-79.2 Q37.19,-81.06 39.99,-82.41 Q42.8,-83.76 45.42,-84.77 Q48.03,-85.78 51.78,-85.96 Q55.52,-86.13 58.71,-85.29 Q61.89,-84.45 64.32,-82.77 Q66.76,-81.09 67.7,-77.72 Q68.64,-74.35 68.26,-71.65 Q67.89,-68.95 66.59,-66.25 Q65.28,-63.56 63.23,-61.2 Q61.17,-58.84 58.93,-56.82 L56.68,-54.79 L54.62,-52.77 Q52.55,-50.74 55.17,-48.55 Q57.78,-46.36 60.4,-45.18 Q63.02,-44.01 65.45,-41.65 Q67.88,-39.29 69.57,-36.42 Q71.25,-33.56 71.82,-30.69 Q72.95,-24.96 70.7,-19.9 Q69.02,-17.04 66.78,-15.18 Q64.54,-13.33 61.73,-12.15 Q58.93,-10.97 55.56,-10.46 Q52.19,-9.96 49.29,-9.79 Q46.39,-9.62 48.16,-7.26 Q49.94,-4.9 51.06,-2.54 Q52.18,-0.19 52.92,2.68 Q53.67,5.54 52.93,8.07 Q52.19,10.59 50.69,12.96 Q49.2,15.32 46.39,16.67 Q43.59,18.02 40.41,18.69 Q37.24,19.36 34.06,19.7 Q30.88,20.04 27.51,19.2 Q24.14,18.37 21.7,16.51 Q19.27,14.66 17.02,12.64 Q14.78,10.61 12.15,11.95 Q9.53,13.29 8.41,15.65 Q7.29,18.01 5.79,20.54 Q4.3,23.07 1.87,24.76 Q-0.56,26.44 -3.74,27.12 L-6.92,27.8 L-10.1,27.8 L-13.28,27.8 L-16.09,27.12 Q-18.89,26.45 -21.42,25.02 Q-23.95,23.58 -27.03,23.67 Q-30.12,23.75 -33.1,24.93 L-36.09,26.11 L-39.64,27.45 Q-43.18,28.79 -46.37,29.3 Q-49.55,29.81 -52.55,28.98 Q-55.55,28.14 -57.61,25.62 Q-59.67,23.09 -59.86,20.56 Q-60.05,18.03 -58.93,15 Q-57.81,11.97 -55.94,9.77 Q-54.07,7.58 -51.82,5.39 L-46.95,0.83" fill-rule="evenodd" style="fill:#2C7C1C;stroke:#3A5A40;stroke-linecap:round;stroke-linejoin:round;stroke-width:5;" />
		<path d="M-31,87.5 L-31,87.33 Q-31,87.17 -29.34,85 L-27.67,82.83 L-25.84,80.67 Q-24.01,78.51 -22.51,76.34 L-21,74.17 L-18.34,69.84 L-15.67,65.5 L-14.34,63.34 Q-13,61.17 -11.84,58.51 L-10.67,55.84 L-9.67,53.18 Q-8.67,50.51 -8.01,47.85 Q-7.34,45.18 -7,42.01 L-6.67,38.85 L-6.33,32.51 L-6.33,30.01 Q-6.33,27.51 -6.67,24.85 L-7.33,19.51 L-7.67,16.84 L-9,10.51 L-9.33,8.01 Q-9.67,5.51 -10.33,3.01 L-11,0.51 L-12.67,-5.15 L-14.67,-10.81 L-16.66,-15.48 L-17.82,-18.65 Q-18.99,-21.82 -19.66,-24.41 Q-20.33,-27 -18,-25.59 Q-15.67,-24.17 -14.34,-21.85 Q-13.01,-19.52 -12.01,-17.02 L-11.01,-14.51 L-9.01,-9.85 L-7.01,-4.52 L-6.01,-2.18 Q-5.01,0.16 -3.67,2.33 Q-2.33,4.5 -2.33,1.84 Q-2.33,-0.83 -2.67,-3.66 Q-3,-6.49 -3,-9.65 L-3,-15.82 Q-3,-18.82 -2.67,-21.48 L-2.35,-24.14 L-1.34,-30.48 L-1,-33.32 Q-0.67,-36.16 -0.01,-38.66 L0.65,-41.15 L1.16,-43.74 Q1.67,-46.33 1.83,-43.26 L2,-40.19 L2,-32.85 L2.32,-25.86 L2.99,-19.85 L3.99,-14.85 L4.66,-12.18 Q5.33,-9.52 5.66,-7.02 L6,-4.52 L6.5,-2.02 Q7,0.48 8.83,-1.34 Q10.66,-3.15 11.99,-5.82 L13.32,-8.49 L14.49,-11.15 Q15.66,-13.81 16.99,-16.15 L18.32,-18.48 L19.49,-20.81 Q20.65,-23.14 22.15,-25.31 L23.65,-27.48 L25.32,-29.99 Q26.99,-32.49 27,-29.51 Q27,-26.54 26,-23.36 L25.01,-20.19 L23.68,-15.21 L22,-8.21 L20.67,-1.86 L19.33,4.8 L18.33,11.14 L17.67,16.48 L17.33,22.48 L17.17,25.48 Q17,28.48 17.16,31.64 Q17.33,34.81 17.16,37.81 L17,40.81 L17,46.81 L17,52.15 L17.33,57.14 L17.67,60.31 Q18,63.48 18.66,66.48 L19.33,69.49 L19.99,71.99 Q20.66,74.48 21.66,77.15 Q22.66,79.83 24.33,81.99 Q25.99,84.16 27.91,85.91 L31,88.99" fill-rule="evenodd" style="fill:#B68E6B;stroke:#BC6C25;stroke-linecap:round;stroke-linejoin:round;stroke-width:5;" />
	</g>
</svg>