<?xml version="1.0" encoding="iso-8859-1"?>
<!-- Uploaded to: SVG Repo, www.svgrepo.com, Generator: SVG Repo Mixer Tools -->
<svg version="1.1" id="Layer_1" xmlns="http://www.w3.org/2000/svg" xmlns:xlink="http://www.w3.org/1999/xlink" 
	 viewBox="0 0 512 512" xml:space="preserve">
<polygon style="fill:#F7B239;" points="490.669,78.794 490.669,390.449 156.753,390.449 156.753,359.53 459.738,359.53 
	459.738,109.726 52.245,109.726 52.245,359.53 82.546,359.53 82.546,390.449 21.338,390.449 21.338,78.794 "/>
<rect x="21.338" y="78.794" style="fill:#E09B2D;" width="115.502" height="311.655"/>
<polygon style="fill:#2BA5F7;" points="156.753,359.53 156.753,390.449 82.546,390.449 82.546,359.53 82.546,345.22 156.753,345.22 
	"/>
<polygon style="fill:#2197D8;" points="108.521,359.53 108.521,390.449 82.546,390.449 82.546,359.53 82.546,345.22 108.521,345.22 
	"/>
<polygon style="fill:#F7B239;" points="502.728,390.449 502.728,433.204 9.28,433.204 9.28,390.449 21.338,390.449 82.546,390.449 
	156.753,390.449 490.669,390.449 "/>
<polygon style="fill:#E09B2D;" points="66.346,390.449 66.346,433.204 9.28,433.204 9.28,390.449 10.675,390.449 17.753,390.449 
	26.335,390.449 64.952,390.449 "/>
<polygon style="fill:#666666;" points="459.738,109.726 459.738,359.53 156.753,359.53 156.753,345.22 82.546,345.22 82.546,359.53 
	52.245,359.53 52.245,109.726 "/>
<g>
	<path style="fill:#FFFFFF;" d="M428.818,337.886c-5.123,0-9.276-4.153-9.276-9.276V172.011c0-5.123,4.153-9.276,9.276-9.276
		c5.123,0,9.276,4.153,9.276,9.276V328.61C438.094,333.733,433.941,337.886,428.818,337.886z"/>
	<circle style="fill:#FFFFFF;" cx="428.815" cy="140.647" r="9.276"/>
	<circle style="fill:#FFFFFF;" cx="475.701" cy="411.822" r="9.276"/>
</g>
<path style="fill:#333333;" d="M502.724,381.172h-2.783V78.796c0-5.123-4.153-9.276-9.276-9.276H21.334
	c-5.123,0-9.276,4.153-9.276,9.276v302.375H9.276c-5.123,0-9.276,4.153-9.276,9.276v42.758c0,5.123,4.153,9.276,9.276,9.276h493.448
	c5.123,0,9.276-4.153,9.276-9.276v-42.758C512,385.325,507.847,381.172,502.724,381.172z M30.61,88.071h450.78v293.1H166.03v-12.371
	h293.712c5.123,0,9.276-4.153,9.276-9.276V109.721c0-5.123-4.153-9.276-9.276-9.276H52.25c-5.123,0-9.276,4.153-9.276,9.276v249.804
	c0,5.123,4.153,9.276,9.276,9.276h21.025v12.371H30.61V88.071z M156.754,335.943H82.551c-5.123,0-9.276,4.153-9.276,9.276v5.029
	H61.526V118.997h388.941v231.252H166.03v-5.029C166.03,340.096,161.876,335.943,156.754,335.943z M91.827,354.495h55.651v26.676
	H91.827V354.495z M493.448,423.93H18.552v-24.206h474.897V423.93z"/>
</svg>