<!DOCTYPE svg PUBLIC "-//W3C//DTD SVG 1.1//EN" "http://www.w3.org/Graphics/SVG/1.1/DTD/svg11.dtd">
<!-- Uploaded to: SVG Repo, www.svgrepo.com, Transformed by: SVG Repo Mixer Tools -->
<svg width="800px" height="800px" viewBox="0 0 20.00 20.00" xmlns="http://www.w3.org/2000/svg" fill="#000000">
<g id="SVGRepo_bgCarrier" stroke-width="0"/>
<g id="SVGRepo_tracerCarrier" stroke-linecap="round" stroke-linejoin="round" stroke="#57a8ff" stroke-width="2.56"> <g id="iceberg-2" transform="translate(-3 -2)"> <path id="secondary" fill="#8ab9ff" d="M6,10l1.42,5.67,2.17.42L12.98,21l3.96-3.49L18,10Z"/> <path id="primary" d="M18,10l-1.06,7.51L13,21,9.59,16.09l-2.17-.42L6,10,7.06,4.59,10,3l3.39,2.49,3.17.9ZM4,10H20" fill="none" stroke="#b3d4ff" stroke-linecap="round" stroke-linejoin="round" stroke-width="0.82"/> </g> </g>
<g id="SVGRepo_iconCarrier"> <g id="iceberg-2" transform="translate(-3 -2)"> <path id="secondary" fill="#8ab9ff" d="M6,10l1.42,5.67,2.17.42L12.98,21l3.96-3.49L18,10Z"/> <path id="primary" d="M18,10l-1.06,7.51L13,21,9.59,16.09l-2.17-.42L6,10,7.06,4.59,10,3l3.39,2.49,3.17.9ZM4,10H20" fill="none" stroke="#b3d4ff" stroke-linecap="round" stroke-linejoin="round" stroke-width="0.82"/> </g> </g>
</svg>