<?xml version="1.0" encoding="iso-8859-1"?>
<!-- Uploaded to: SVG Repo, www.svgrepo.com, Generator: SVG Repo Mixer Tools -->
<svg xmlns="http://www.w3.org/2000/svg" xmlns:xlink="http://www.w3.org/1999/xlink" version="1.1" id="Capa_1"  viewBox="0 0 455 455" xml:space="preserve" width="512" height="512">
<g>
	<path style="fill:#CC8073;" d="M251.5,382.5h91l15,10l15-10H390c35.9,0,65-29.1,65-65s-29.1-65-65-65h-37.5v30H390   c19.3,0,35,15.7,35,35s-15.7,35-35,35h-17.5l-15-10l-15,10h-91V382.5z M211.5,352.5H202.5l-15-20l-15,20H65c-19.3,0-35-15.7-35-35   s15.7-35,35-35h7.5l15,10l15-10h40l20-15l-20-15h-40l-15-10l-15,10H65c-35.9,0-65,29.1-65,65s29.1,65,65,65h107.5l15,20l15-20   h9.001l20-15L211.5,352.5z M312.5,252.5l-130,0v30h130l20-15L312.5,252.5z"/>
	<rect x="142.5" y="252.5" style="fill:#B26156;" width="40" height="30"/>
	<rect x="312.5" y="252.5" style="fill:#B26156;" width="40" height="30"/>
	<rect x="211.5" y="352.5" style="fill:#B26156;" width="40" height="30"/>
	<path style="fill:#CC8073;" d="M251.5,212.5h91l15,10l15-10H390c35.9,0,65-29.1,65-65s-29.1-65-65-65l-37.5,0v30H390   c19.3,0,35,15.7,35,35s-15.7,35-35,35h-17.5l-15-10l-15,10h-91V212.5z M211.5,182.5H202.5l-15-20l-15,20H65c-19.3,0-35-15.7-35-35   s15.7-35,35-35h7.5l15,10l15-10h40l20-15l-20-15l-40,0l-15-10l-15,10H65c-35.9,0-65,29.1-65,65s29.1,65,65,65h107.5l15,20l15-20   h9.001l20-15L211.5,182.5z M312.5,82.5l-130,0v30h130l20-15L312.5,82.5z"/>
	<rect x="142.5" y="82.5" style="fill:#B26156;" width="40" height="30"/>
	<rect x="312.5" y="82.5" style="fill:#B26156;" width="40" height="30"/>
	<rect x="211.5" y="182.5" style="fill:#B26156;" width="40" height="30"/>
	<path style="fill:#FFC5BB;" d="M137.5,0c-35.9,0-65,29.1-65,65v17.5h30V65c0-19.3,15.7-35,35-35s35,15.7,35,35v117.5h30V65   C202.5,29.1,173.4,0,137.5,0z"/>
	<polygon style="fill:#FFA4A9;" points="102.5,282.5 102.5,312.5 87.5,332.5 72.5,312.5 72.5,282.5  "/>
	<path style="fill:#FFC5BB;" d="M172.5,382.5v7.5c0,19.3-15.7,35-35,35s-35-15.7-35-35v-77.5h-30V390c0,35.9,29.1,65,65,65   s65-29.1,65-65v-7.5H172.5z"/>
	<polygon style="fill:#FFA4A9;" points="272.5,282.5 272.5,312.5 257.5,332.5 242.5,312.5 242.5,282.5  "/>
	<path style="fill:#FFC5BB;" d="M342.5,382.5v7.5c0,19.3-15.7,35-35,35s-35-15.7-35-35v-77.5h-30V390c0,35.9,29.1,65,65,65   s65-29.1,65-65v-7.5H342.5z"/>
	<polygon style="fill:#FFA4A9;" points="372.5,212.5 372.5,242.5 357.5,262.5 342.5,242.5 342.5,212.5  "/>
	<polygon style="fill:#FFA4A9;" points="102.5,112.5 102.5,142.5 87.5,162.5 72.5,142.5 72.5,112.5  "/>
	<polygon style="fill:#FFA4A9;" points="272.5,112.5 272.5,142.5 257.5,162.5 242.5,142.5 242.5,112.5  "/>
	<rect x="72.5" y="142.5" style="fill:#FFC5BB;" width="30" height="110"/>
	<rect x="242.5" y="142.5" style="fill:#FFC5BB;" width="30" height="110"/>
	<path style="fill:#FFC5BB;" d="M307.5,0c-35.9,0-65,29.1-65,65v17.5h30V65c0-19.3,15.7-35,35-35s35,15.7,35,35v117.5h30V65   C372.5,29.1,343.4,0,307.5,0z"/>
	<rect x="342.5" y="242.5" style="fill:#FFC5BB;" width="30" height="110"/>
	<polygon style="fill:#FFA4A9;" points="202.5,212.5 202.5,242.5 187.5,262.5 172.5,242.5 172.5,212.5  "/>
	<rect x="172.5" y="242.5" style="fill:#FFC5BB;" width="30" height="110"/>
</g>















</svg>