<!DOCTYPE svg PUBLIC "-//W3C//DTD SVG 1.1//EN" "http://www.w3.org/Graphics/SVG/1.1/DTD/svg11.dtd">
<!-- Uploaded to: SVG Repo, www.svgrepo.com, Transformed by: SVG Repo Mixer Tools -->
<svg height="800px" width="800px" version="1.1" id="Layer_1" xmlns="http://www.w3.org/2000/svg" xmlns:xlink="http://www.w3.org/1999/xlink" viewBox="0 0 512 512" xml:space="preserve" fill="#000000" transform="rotate(90)matrix(1, 0, 0, -1, 0, 0)">
<g id="SVGRepo_bgCarrier" stroke-width="0"/>
<g id="SVGRepo_tracerCarrier" stroke-linecap="round" stroke-linejoin="round"/>
<g id="SVGRepo_iconCarrier"> <path style="fill:#7AB9E8;" d="M412.444,213.333h-42.667v-128H256V42.667C256,19.102,236.898,0,213.333,0 s-42.667,19.102-42.667,42.667v42.667H56.889v128h42.667c23.565,0,42.667,19.102,42.667,42.667 c0,23.565-19.102,42.667-42.667,42.667H56.889v128h113.778v42.667c0,23.565,19.102,42.667,42.667,42.667S256,492.898,256,469.333 v-42.667h113.778v-128h42.667c23.565,0,42.667-19.102,42.667-42.667C455.111,232.435,436.009,213.333,412.444,213.333z"/> <path style="fill:#579ADF;" d="M412.444,213.333h-42.667v-128H256V42.667C256,19.102,236.898,0,213.333,0v512 C236.898,512,256,492.898,256,469.333v-42.667h113.778v-128h42.667c23.565,0,42.667-19.102,42.667-42.667 C455.111,232.435,436.009,213.333,412.444,213.333z"/> </g>
</svg>