<?xml version="1.0" encoding="iso-8859-1"?>
<!-- Uploaded to: SVG Repo, www.svgrepo.com, Generator: SVG Repo Mixer Tools -->
<svg version="1.1" id="Layer_1" xmlns="http://www.w3.org/2000/svg" xmlns:xlink="http://www.w3.org/1999/xlink" 
	 viewBox="0 0 512.001 512.001" xml:space="preserve">
<path style="fill:#B5CDDF;" d="M502.987,108.052L403.95,9.013c-12.017-12.017-31.501-12.017-43.516,0.002L240.387,129.061
	c-12.017,12.017-12.016,31.499,0,43.516l38.435,38.436l-90.735,90.734l22.166,22.167l90.736-90.734l38.435,38.436
	c12.018,12.017,31.501,12.017,43.518,0L502.988,151.57C515.006,139.551,515.004,120.069,502.987,108.052z"/>
<path style="fill:#C9E5F9;" d="M453.47,58.533L403.95,9.012c-12.017-12.017-31.501-12.017-43.516,0.002L240.387,129.061
	c-12.017,12.017-12.016,31.499,0,43.516l49.519,49.521L453.47,58.533z"/>
<path style="fill:#FB7100;" d="M10.765,449.261c-14.353,14.352-14.351,37.622-0.001,51.975c14.354,14.353,37.622,14.353,51.975,0
	l180.317-180.318l-51.973-51.973L10.765,449.261z"/>
<g>
	
		<rect x="320.376" y="28.061" transform="matrix(-0.7071 -0.7071 0.7071 -0.7071 499.6606 416.3061)" style="fill:#088690;" width="31.348" height="153.219"/>
	
		<rect x="356.011" y="63.7" transform="matrix(-0.7071 -0.7071 0.7071 -0.7071 535.2924 502.3436)" style="fill:#088690;" width="31.348" height="153.219"/>
	
		<rect x="391.656" y="99.339" transform="matrix(-0.7071 -0.7071 0.7071 -0.7071 570.942 588.3884)" style="fill:#088690;" width="31.348" height="153.219"/>
</g>
<path style="fill:#FF9845;" d="M217.07,294.931l-25.987-25.987L10.765,449.261c-14.353,14.352-14.351,37.622-0.001,51.975
	l0.001,0.001L217.07,294.931z"/>
</svg>