<?xml version="1.0" encoding="iso-8859-1"?>
<!-- Uploaded to: SVG Repo, www.svgrepo.com, Generator: SVG Repo Mixer Tools -->
<svg height="800px" width="800px" version="1.1" id="Layer_1" xmlns="http://www.w3.org/2000/svg" xmlns:xlink="http://www.w3.org/1999/xlink" 
	 viewBox="0 0 512 512" xml:space="preserve">
<path style="fill:#CED7E2;" d="M456.923,289.391c-1.556-13.946-4.933-27.332-9.992-39.869
	c-21.612-53.554-73.56-91.988-134.832-94.499H256h-56.098c-61.193,2.509-113.095,40.842-134.757,94.285
	c-5.106,12.597-8.503,26.059-10.067,40.083c-0.626,5.621-1.03,11.308-1.03,17.098v33.659c0,46.401,37.746,84.147,84.147,84.147H256
	h117.806c46.401,0,84.147-37.746,84.147-84.147v-33.659C457.953,300.699,457.549,295.012,456.923,289.391z"/>
<path style="fill:#D67227;" d="M503.729,266.547c-9.426,14.473-25.356,23.112-42.522,23.112c-1.46,0-2.805-0.112-4.265-0.224
	c-17.053-1.459-34.554-11.22-41.625-28.161c-14.473-34.893-43.195-64.737-86.391-71.244c-5.834-0.898-11.894-1.346-18.176-1.346
	H201.248c-6.282,0-12.342,0.449-18.176,1.346c-44.542,6.507-72.479,37.025-86.727,71.918c-6.171,15.371-23.786,26.029-41.287,27.488
	c-1.46,0.112-2.805,0.224-4.265,0.224c-17.166,0-33.098-8.639-42.522-23.112c-9.422-14.361-10.883-32.425-3.926-48.132
	C36.432,145.6,105.209,96.346,183.072,88.829c7.068-0.785,14.137-1.122,21.317-1.122h103.219c7.181,0,14.249,0.337,21.317,1.122
	c77.863,7.517,146.641,56.771,178.727,129.586C514.612,234.122,513.152,252.185,503.729,266.547z"/>
<path style="fill:#C95C23;" d="M503.729,266.547c-9.426,14.473-25.356,23.112-42.522,23.112c-1.46,0-2.805-0.112-4.265-0.224
	c-17.053-1.459-34.554-11.22-41.625-28.161c-14.473-34.893-43.195-64.737-86.391-71.244c-5.834-0.898-11.894-1.346-18.176-1.346
	h-54.752V87.707h51.61c7.181,0,14.249,0.337,21.317,1.122c77.863,7.517,146.641,56.771,178.727,129.586
	C514.612,234.122,513.152,252.185,503.729,266.547z"/>
<path style="fill:#575771;" d="M307.609,87.707H204.39c-7.181,0-14.249,0.337-21.317,1.122v335.466h145.855V88.829
	C321.859,88.042,314.791,87.707,307.609,87.707z"/>
<path style="fill:#494965;" d="M328.928,88.828v335.465H256V87.706h51.61C314.791,87.707,321.859,88.042,328.928,88.828z"/>
</svg>