<?xml version="1.0" encoding="iso-8859-1"?>
<!-- Uploaded to: SVG Repo, www.svgrepo.com, Generator: SVG Repo Mixer Tools -->
<svg height="800px" width="800px" version="1.1" id="Layer_1" xmlns="http://www.w3.org/2000/svg" xmlns:xlink="http://www.w3.org/1999/xlink" 
	 viewBox="0 0 460 460" xml:space="preserve">
<g id="XMLID_3312_">
	<path id="XMLID_2658_" style="fill:#D0D9DD;" d="M350,25.714V30v4.286C350,48.487,336.569,60,320,60v220v120
		c0,33.137-26.863,60-60,60h-30h-30c-33.137,0-60-26.863-60-60V280V60c-16.569,0-30-11.513-30-25.714V30v-4.286
		C110,11.513,123.431,0,140,0h90h90C336.569,0,350,11.513,350,25.714z"/>
	<path id="XMLID_2671_" style="fill:#E7EFF2;" d="M350,25.714V30H110v-4.286C110,11.513,123.431,0,140,0h90h90
		C336.569,0,350,11.513,350,25.714z"/>
	<path id="XMLID_921_" style="fill:#E7EFF2;" d="M140,60h90v267.667h-90V60z"/>
	<path id="XMLID_2771_" style="fill:#C3CED1;" d="M300,60h20v270h-20V60z"/>
	<path id="XMLID_2770_" style="fill:#F8FDFF;" d="M180,60v220v110c0,5.523-4.477,10-10,10s-10-4.477-10-10V280V60H180z"/>
	<path id="XMLID_2772_" style="fill:#EA905E;" d="M320,280v120c0,33.137-26.863,60-60,60h-30h-30c-33.137,0-60-26.863-60-60V280h90
		H320z"/>
	<path id="XMLID_2780_" style="fill:#F4A37A;" d="M160,390V280h20v110c0,5.523-4.477,10-10,10l0,0C164.477,400,160,395.523,160,390z
		"/>
	<path id="XMLID_2773_" style="fill:#ED724C;" d="M320,280v120c0,33.137-26.863,60-60,60h-30V280H320z"/>
	<path id="XMLID_2777_" style="fill:#E5503C;" d="M300,280h20v120c0,17.767-7.729,33.724-20,44.71V280z"/>
	<path id="XMLID_2592_" style="fill:#9A989B;" d="M260,110c0,5.523-4.477,10-10,10h-20h-20c-5.523,0-10-4.477-10-10s4.477-10,10-10
		h20h20C255.523,100,260,104.477,260,110z"/>
	<path id="XMLID_2655_" style="fill:#9A989B;" d="M260,230c0,5.523-4.477,10-10,10h-20h-20c-5.523,0-10-4.477-10-10s4.477-10,10-10
		h20h20C255.523,220,260,224.477,260,230z"/>
	<path id="XMLID_2603_" style="fill:#9A989B;" d="M250,170c0,5.523-4.477,10-10,10h-10h-10c-5.523,0-10-4.477-10-10s4.477-10,10-10
		h10h10C245.523,160,250,164.477,250,170z"/>
	<path id="XMLID_1273_" style="fill:#B0ADB2;" d="M230,120h-20c-5.523,0-10-4.477-10-10l0,0c0-5.523,4.477-10,10-10h20V120z"/>
	<path id="XMLID_1470_" style="fill:#B0ADB2;" d="M230,240h-20c-5.523,0-10-4.477-10-10l0,0c0-5.523,4.477-10,10-10h20V240z"/>
	<path id="XMLID_1282_" style="fill:#B0ADB2;" d="M230,180h-10c-5.523,0-10-4.477-10-10l0,0c0-5.523,4.477-10,10-10h10V180z"/>
</g>
</svg>