<?xml version="1.0" encoding="iso-8859-1"?>
<!-- Uploaded to: SVG Repo, www.svgrepo.com, Generator: SVG Repo Mixer Tools -->
<svg height="800px" width="800px" version="1.1" id="Layer_1" xmlns="http://www.w3.org/2000/svg" xmlns:xlink="http://www.w3.org/1999/xlink" 
	 viewBox="0 0 512 512" xml:space="preserve">
<g>
	<path style="fill:#B3D8F4;" d="M472.263,449.004c-11.404,11.407-16.995,16.451-30.078,16.451c-0.003,0-0.006,0-0.012,0
		c-13.075,0-18.671-5.046-30.081-16.454c-12.688-12.687-30.059-30.056-62.914-30.085c-0.029,0-0.059-0.005-0.088-0.005
		c-32.915,0-50.306,17.392-63.004,30.092c-11.407,11.408-17,16.452-30.079,16.452c-0.002,0-0.005,0-0.006,0
		c-0.002,0-0.003,0-0.006,0c-13.076,0-18.672-5.046-30.082-16.454c-12.687-12.685-30.056-30.053-62.906-30.085
		c-0.033,0-0.061-0.005-0.092-0.005c-32.915,0-50.306,17.392-63.004,30.092c-11.407,11.408-17,16.452-30.079,16.452
		c-0.006,0-0.011,0-0.012,0c-13.078,0-18.674-5.046-30.082-16.455c-9.089-9.089-23.822-9.089-32.912-0.002
		s-9.09,23.822-0.003,32.912C19.518,494.609,36.907,512,69.812,512c0.011,0,0.019,0,0.023,0c32.903,0,50.292-17.389,62.99-30.087
		c11.399-11.399,16.995-16.444,30.048-16.457c0.014,0,0.026,0.002,0.039,0.002c13.081,0,18.677,5.044,30.089,16.455
		c12.699,12.698,30.085,30.085,62.99,30.085c0.008,0,0.008,0,0.011,0c0.003,0,0.008,0,0.011,0c32.903,0,50.292-17.389,62.99-30.087
		c11.399-11.401,16.998-16.446,30.053-16.457c0.014,0,0.028,0.002,0.04,0.002c13.079,0,18.676,5.044,30.087,16.455
		c12.699,12.698,30.085,30.085,62.988,30.085c0.006,0,0.016,0,0.023,0c32.905-0.002,50.295-17.391,62.99-30.089
		c9.086-9.089,9.084-23.825-0.005-32.912C496.085,439.912,481.353,439.913,472.263,449.004z"/>
	<path style="fill:#B3D8F4;" d="M69.812,418.909c0.011,0,0.019,0,0.023,0c27.277,0,43.888-11.951,56.007-23.273
		c2.499-2.335,4.813-4.644,6.983-6.814c11.399-11.399,16.995-16.445,30.048-16.457c0.014,0,0.026,0.002,0.039,0.002
		c13.081,0,18.677,5.044,30.089,16.455c2.171,2.171,4.484,4.479,6.983,6.814c12.119,11.321,28.728,23.273,56.007,23.273
		c0.008,0,0.008,0,0.011,0c0.003,0,0.008,0,0.011,0c27.277,0,43.888-11.951,56.007-23.273c2.499-2.335,4.813-4.644,6.983-6.814
		c11.399-11.401,16.998-16.446,30.053-16.457c0.014,0,0.028,0.002,0.04,0.002c13.079,0,18.676,5.044,30.087,16.455
		c2.171,2.171,4.484,4.479,6.982,6.814c12.119,11.321,28.728,23.273,56.007,23.273c0.006,0,0.016,0,0.023,0
		c32.905-0.002,50.295-17.391,62.99-30.089c9.086-9.089,9.084-23.825-0.005-32.912c-9.09-9.087-23.822-9.086-32.914,0.005
		c-11.404,11.407-16.995,16.451-30.078,16.451c-0.003,0-0.006,0-0.012,0c-10.198,0-15.857-3.088-23.263-9.855V46.549H395.64
		l-139.636,0.008v186.171v139.636h-0.002L256,46.558l-139.636,0.008H93.091v315.949c-7.404,6.763-13.059,9.849-23.26,9.849
		c-0.006,0-0.011,0-0.012,0c-13.078,0-18.674-5.046-30.082-16.455c-9.089-9.089-23.822-9.089-32.912-0.002
		s-9.09,23.822-0.003,32.912C19.518,401.518,36.907,418.909,69.812,418.909z M111.717,344.799
		c-3.703,3.126-7.002,6.327-10.024,9.334C104.716,351.126,108.015,347.926,111.717,344.799z"/>
</g>
<path style="fill:#A78966;" d="M256,46.558l139.636-0.008h23.273l69.82-0.005C501.582,46.544,512,36.124,512,23.271
	S501.578-0.002,488.726,0L23.271,0.025C10.418,0.026,0,10.445,0,23.299S10.422,46.572,23.274,46.57l69.817-0.005h23.273L256,46.558z
	"/>
<path style="fill:#006DF0;" d="M209.455,295.306c12.853,0,23.273-10.42,23.273-23.273v-78.092c0-12.853-10.42-23.273-23.273-23.273
	c-12.853,0-23.273,10.42-23.273,23.273v78.092C186.182,284.886,196.602,295.306,209.455,295.306z"/>
<path style="fill:#78B9EB;" d="M302.545,93.091c-12.853,0-23.273,10.418-23.273,23.273v78.094c0,12.853,10.42,23.273,23.273,23.273
	s23.273-10.42,23.273-23.273v-78.094C325.818,103.509,315.398,93.091,302.545,93.091z"/>
<path style="fill:#3D9AE2;" d="M116.364,341.101c6.426-4.803,14.01-9.143,23.273-11.961c6.789-2.067,14.474-3.319,23.279-3.319
	c0.031,0,0.059,0.005,0.092,0.005c27.226,0.028,43.813,11.959,55.92,23.268c2.499,2.337,4.814,4.647,6.986,6.819
	c11.41,11.408,17.006,16.454,30.082,16.454c0.003,0,0.005,0,0.005,0l0-325.809l-139.636,0.008H93.091v315.949
	c2.09-1.908,4.309-4.093,6.82-6.603C104.58,351.243,109.888,345.94,116.364,341.101z M186.182,193.941
	c0-12.853,10.42-23.273,23.273-23.273c12.853,0,23.273,10.42,23.273,23.273v78.092c0,12.853-10.42,23.273-23.273,23.273
	c-12.853,0-23.273-10.42-23.273-23.273V193.941z"/>
<g>
	<path style="fill:#78B9EB;" d="M255.994,465.455c-13.076,0-18.672-5.046-30.082-16.454c-12.687-12.685-30.056-30.053-62.906-30.085
		c-0.033,0-0.061-0.005-0.092-0.005c-32.915,0-50.306,17.392-63.004,30.092c-11.407,11.408-17,16.452-30.079,16.452
		c-0.006,0-0.011,0-0.012,0c-13.078,0-18.674-5.046-30.082-16.455c-9.089-9.089-23.822-9.089-32.912-0.002
		s-9.09,23.822-0.003,32.912C19.518,494.609,36.907,512,69.812,512c0.011,0,0.019,0,0.023,0c32.903,0,50.292-17.389,62.99-30.087
		c11.399-11.399,16.995-16.444,30.048-16.457c0.014,0,0.026,0.002,0.039,0.002c13.081,0,18.677,5.044,30.089,16.455
		c12.699,12.698,30.085,30.085,62.99,30.085c0.008,0,0.008,0,0.011,0v-46.545C255.998,465.455,255.997,465.455,255.994,465.455z"/>
	<path style="fill:#78B9EB;" d="M255.994,372.364c-13.076,0-18.672-5.046-30.082-16.454c-2.171-2.172-4.487-4.482-6.986-6.819
		c-12.106-11.307-28.694-23.24-55.92-23.268c-0.033,0-0.061-0.005-0.092-0.005c-8.805,0-16.49,1.254-23.279,3.319
		c-9.263,2.818-16.846,7.159-23.273,11.961c-6.476,4.841-11.784,10.142-16.452,14.811c-2.51,2.51-4.731,4.695-6.82,6.603
		c-7.402,6.766-13.058,9.852-23.259,9.852c-0.006,0-0.011,0-0.012,0c-13.078,0-18.674-5.046-30.082-16.455
		c-9.089-9.089-23.822-9.089-32.912-0.002s-9.09,23.822-0.003,32.912c12.698,12.699,30.087,30.09,62.992,30.09
		c0.011,0,0.019,0,0.023,0c27.277,0,43.888-11.951,56.007-23.273c2.499-2.335,4.813-4.644,6.983-6.814
		c11.399-11.399,16.995-16.445,30.048-16.457c0.014,0,0.026,0.002,0.039,0.002c13.081,0,18.677,5.044,30.089,16.455
		c2.171,2.171,4.484,4.479,6.983,6.814c12.119,11.321,28.728,23.273,56.007,23.273c0.008,0,0.008,0,0.011,0v-46.545
		C256,372.364,255.997,372.364,255.994,372.364z"/>
</g>
</svg>