<!DOCTYPE svg PUBLIC "-//W3C//DTD SVG 1.1//EN" "http://www.w3.org/Graphics/SVG/1.1/DTD/svg11.dtd">
<!-- Uploaded to: SVG Repo, www.svgrepo.com, Transformed by: SVG Repo Mixer Tools -->
<svg height="800px" width="800px" version="1.1" id="Layer_1" xmlns="http://www.w3.org/2000/svg" xmlns:xlink="http://www.w3.org/1999/xlink" viewBox="0 0 512 512" xml:space="preserve" fill="#000000" transform="matrix(-1, 0, 0, 1, 0, 0)">
<g id="SVGRepo_bgCarrier" stroke-width="0"/>
<g id="SVGRepo_tracerCarrier" stroke-linecap="round" stroke-linejoin="round"/>
<g id="SVGRepo_iconCarrier"> <path style="fill:#C7C5CB;" d="M503.996,104.885c0-11.884-14.369-17.836-22.772-9.433l-48.141,48.141 c-12.558,12.558-32.917,12.558-45.475,0l-17.874-17.874c-12.558-12.558-12.558-32.917,0-45.475l49.468-49.468 c8.404-8.403,2.451-22.772-9.433-22.773h-38.802c-10.696,0-20.954,4.25-28.517,11.813l-38.397,38.398 c-7.563,7.563-11.813,17.821-11.813,28.517v70.614L157.346,292.24H86.732c-10.696,0-20.954,4.25-28.517,11.813L19.817,342.45 c-7.563,7.563-11.813,17.821-11.813,28.516v38.803c0,11.884,14.369,17.836,22.772,9.433l49.468-49.468 c12.558-12.558,32.917-12.558,45.475,0l17.874,17.874c12.558,12.558,12.558,32.917,0,45.475l-48.141,48.141 c-8.403,8.403-2.451,22.773,9.433,22.773h36.147c10.696,0,20.955-4.25,28.518-11.813l38.397-38.396 c7.563-7.563,11.813-17.822,11.813-28.518v-71.006l134.254-134.748l71.254,0.247c10.696,0,20.954-4.25,28.517-11.813l38.397-38.397 c7.563-7.563,11.813-17.822,11.813-28.518L503.996,104.885z"/> <g> <path style="fill:#AEADB3;" d="M400.97,12.545l-49.468,49.468c-12.558,12.558-12.558,32.917,0,45.475l17.874,17.873 c0.06,0.06,0.123,0.114,0.182,0.174c-12.378-12.571-12.323-32.794,0.175-45.291l49.468-49.468 c8.404-8.404,2.451-22.772-9.433-22.773h-5.787C403.34,9.619,402.352,11.163,400.97,12.545z"/> <path style="fill:#AEADB3;" d="M503.996,104.885c0-9.93-10.029-15.71-18.231-12.443v30.359c0,10.696-4.25,20.954-11.813,28.518 l-38.397,38.397c-7.563,7.563-17.821,11.813-28.517,11.813l-71.254-0.247L201.529,336.03v71.006 c0,10.696-4.25,20.954-11.813,28.518l-38.397,38.396c-7.563,7.563-17.822,11.813-28.518,11.813H92.441 c-3.267,8.201,2.514,18.231,12.444,18.231h36.147c10.696,0,20.955-4.25,28.518-11.813l38.397-38.396 c7.563-7.563,11.813-17.822,11.813-28.518v-71.006l134.254-134.748l71.254,0.247c10.696,0,20.954-4.25,28.517-11.813l38.397-38.397 c7.563-7.563,11.813-17.822,11.813-28.518L503.996,104.885z"/> <path style="fill:#AEADB3;" d="M125.538,369.559c-0.06-0.061-0.114-0.124-0.175-0.184l-17.874-17.874 c-12.558-12.558-32.917-12.558-45.475,0L12.545,400.97c-1.382,1.382-2.926,2.368-4.541,3.012v5.787 c0,11.884,14.369,17.836,22.772,9.433l49.468-49.468C92.743,357.236,112.967,357.181,125.538,369.559z"/> </g> <path style="fill:#D8D8DA;" d="M183.987,325.802L183.987,325.802c-7.576-7.576-7.576-19.858,0-27.433l112.17-112.17 c7.576-7.576,19.858-7.576,27.433,0l0,0c7.576,7.576,7.576,19.858,0,27.433l-112.17,112.17 C203.845,333.377,191.562,333.377,183.987,325.802z"/> <g> <path style="fill:#1A1A1A;" d="M189.042,268.547c2.048,0,4.097-0.781,5.659-2.345l103.198-103.198 c1.502-1.5,2.345-3.537,2.345-5.659V86.731c0-8.635,3.363-16.753,9.468-22.858l38.396-38.396 c6.106-6.106,14.225-9.469,22.859-9.469h38.802c3.219,0,4.52,2.304,4.93,3.294c0.41,0.99,1.118,3.539-1.157,5.815l-49.468,49.468 c-15.659,15.658-15.659,41.137,0,56.795l17.874,17.873c15.658,15.659,41.136,15.659,56.795,0l12.766-12.766 c3.126-3.126,3.126-8.194,0-11.319c-3.126-3.126-8.194-3.126-11.319,0l-12.766,12.766c-4.561,4.561-10.627,7.073-17.078,7.073 c-6.451,0-12.517-2.512-17.078-7.073l-17.874-17.873c-9.417-9.417-9.417-24.74,0-34.156l49.468-49.468 c6.221-6.221,7.993-15.133,4.626-23.259C426.122,5.049,418.566,0,409.769,0h-38.802c-12.911,0-25.049,5.028-34.178,14.157 l-38.396,38.396c-9.129,9.129-14.156,21.267-14.156,34.177v67.299L183.384,254.883c-3.126,3.126-3.126,8.194,0,11.319 C184.945,267.766,186.994,268.547,189.042,268.547z"/> <path style="fill:#1A1A1A;" d="M498.824,85.167c-8.127-3.367-17.04-1.593-23.259,4.626l-14.132,14.132 c-3.126,3.126-3.126,8.194,0,11.319c3.126,3.126,8.194,3.126,11.319,0l14.132-14.132c2.275-2.274,4.825-1.566,5.815-1.157 c0.99,0.411,3.293,1.712,3.293,4.93v36.148c0,8.634-3.362,16.752-9.468,22.858l-38.397,38.397 c-6.105,6.105-14.223,9.468-22.83,9.468l-71.254-0.247c-0.01,0-0.018,0-0.028,0c-2.128,0-4.167,0.847-5.67,2.355L214.09,348.613 c-1.494,1.5-2.334,3.531-2.334,5.649v71.007c0,8.635-3.363,16.753-9.469,22.858l-38.396,38.396 c-6.106,6.106-14.225,9.469-22.858,9.469h-36.147c-3.218,0-4.518-2.304-4.929-3.293c-0.411-0.99-1.118-3.54,1.156-5.815 l48.141-48.141c15.658-15.658,15.658-41.136,0-56.795l-17.874-17.874c-15.658-15.659-41.136-15.659-56.795,0l-49.468,49.468 c-2.275,2.275-4.824,1.567-5.815,1.156c-0.99-0.41-3.293-1.712-3.293-4.929v-38.803c0-8.635,3.363-16.752,9.468-22.857 l38.397-38.397c6.105-6.105,14.223-9.468,22.858-9.468h70.614c2.123,0,4.159-0.843,5.659-2.345l10.287-10.287 c3.126-3.126,3.126-8.194,0-11.319c-3.126-3.126-8.194-3.126-11.319,0l-7.942,7.942H86.732c-12.911,0-25.048,5.027-34.177,14.156 l-38.397,38.397c-9.13,9.13-14.157,21.267-14.157,34.177v38.802c0,8.797,5.048,16.353,13.175,19.719 c8.128,3.368,17.04,1.593,23.259-4.626l49.468-49.468c4.561-4.561,10.627-7.073,17.078-7.073c6.451,0,12.517,2.512,17.078,7.073 l17.874,17.874c9.417,9.417,9.417,24.74,0,34.156l-48.141,48.141c-6.221,6.221-7.993,15.133-4.626,23.26 C88.533,506.951,96.089,512,104.886,512h36.148c12.911,0,25.048-5.028,34.178-14.157l38.396-38.396 c9.13-9.13,14.157-21.267,14.157-34.178v-67.7l129.563-130.04l67.941,0.235c12.911,0,25.048-5.028,34.177-14.156l38.397-38.397 c9.129-9.13,14.156-21.268,14.156-34.178v-36.147C512,96.088,506.951,88.533,498.824,85.167z"/> </g> </g>
</svg>