<?xml version="1.0" encoding="iso-8859-1"?>
<!-- Uploaded to: SVG Repo, www.svgrepo.com, Generator: SVG Repo Mixer Tools -->
<svg version="1.1" id="Layer_1" xmlns="http://www.w3.org/2000/svg" xmlns:xlink="http://www.w3.org/1999/xlink" 
	 viewBox="0 0 512 512" xml:space="preserve">
<polygon style="fill:#027EA8;" points="334.296,512 6.368,512 6.368,0 334.296,0 334.296,272.007 318.493,272.007 318.493,15.802 
	22.171,15.802 22.171,496.198 318.493,496.198 318.493,336.032 334.296,336.032 "/>
<polyline style="fill:#E6E6E6;" points="102.305,336.032 102.305,504.1 14.27,504.1 14.27,7.901 102.305,7.901 102.305,272.006 "/>
<rect x="70.542" y="72.657" width="104.213" height="15.632"/>
<rect x="229.987" y="39.31" style="fill:#045A71;" width="15.632" height="15.632"/>
<rect x="253.956" y="39.31" style="fill:#84DCCF;" width="16.674" height="15.632"/>
<rect x="278.967" y="39.31" style="fill:#045A71;" width="15.632" height="15.632"/>
<rect x="70.542" y="103.921" style="fill:#84DCCF;" width="32.306" height="15.632"/>
<rect x="70.542" y="151.859" style="fill:#027EA8;" width="87.539" height="15.632"/>
<rect x="174.755" y="151.859" width="47.938" height="15.632"/>
<rect x="70.542" y="184.165" width="119.845" height="15.632"/>
<rect x="206.018" y="184.165" style="fill:#027EA8;" width="57.317" height="15.632"/>
<rect x="70.542" y="216.471" width="32.306" height="15.632"/>
<rect x="118.48" y="216.471" style="fill:#027EA8;" width="111.508" height="15.632"/>
<rect x="70.542" y="247.735" style="fill:#84DCCF;" width="192.794" height="15.632"/>
<rect x="70.542" y="280.041" width="71.907" height="15.632"/>
<rect x="158.08" y="280.041" style="fill:#0071BC;" width="16.674" height="15.632"/>
<g>
	<rect x="70.542" y="312.347" style="fill:#84DCCF;" width="159.446" height="15.632"/>
	<rect x="70.542" y="399.886" style="fill:#84DCCF;" width="55.233" height="15.632"/>
</g>
<rect x="70.542" y="343.611" style="fill:#027EA8;" width="39.601" height="15.632"/>
<path style="fill:#FBB03B;" d="M481.735,172.973l11.319-11.319c6.251-6.251,6.251-16.385,0-22.636l0,0
	c-6.251-6.251-16.385-6.251-22.636,0l-11.319,11.319"/>
<g>
	<polyline style="fill:#F14507;" points="357.235,252.199 442.122,167.313 464.758,189.95 379.872,274.837 	"/>
	<polyline style="fill:#F14507;" points="311.962,342.746 294.985,359.723 261.03,382.359 249.712,371.042 272.349,337.086 
		289.326,320.109 	"/>
</g>
<rect x="310.589" y="249.455" transform="matrix(0.7071 0.7071 -0.7071 0.7071 308.3488 -149.469)" style="fill:#FBB03B;" width="48.021" height="96.042"/>
<path d="M498.641,133.431c-9.321-9.322-24.489-9.321-33.81-0.001l-5.732,5.732l-16.977-16.977l-62.178,62.179l11.175,11.174
	l51.003-51.004l45.345,45.345l11.175-11.174l-5.732-5.732l5.732-5.732C507.962,157.919,507.962,142.752,498.641,133.431z
	 M487.466,156.067l-5.731,5.732l-11.462-11.462l5.732-5.732c3.159-3.16,8.303-3.16,11.461,0
	C490.627,147.764,490.627,152.906,487.466,156.067z"/>
<path d="M442.122,156.139l-84.887,84.887l-5.659-5.659l-17.281,17.281V0H6.368v512h327.928V342.904l62.409-62.409l-5.659-5.659
	l84.888-84.887L442.122,156.139z M318.493,496.198H22.171V15.802h296.322V268.45l-46,46l5.659,5.659l-11.944,11.944l-26.664,39.995
	l4.652,4.652l-11.39,11.39l11.175,11.174l11.39-11.39l4.653,4.653l39.995-26.663l11.944-11.944l5.66,5.66l0.871-0.871
	L318.493,496.198L318.493,496.198z M289.326,331.282l11.462,11.462l-10.837,10.837l-27.914,18.61l-2.158-2.158l18.609-27.913
	L289.326,331.282z M318.821,336.032h-0.328v0.327l-0.871,0.871L294.84,314.45l56.736-56.736l22.781,22.781L318.821,336.032z
	 M379.872,263.662l-11.462-11.462l73.713-73.713l11.462,11.462L379.872,263.662z"/>
<polygon style="fill:#027EA8;" points="225.123,415.519 183.095,415.519 183.095,399.887 219.583,399.887 228.191,392.907 
	238.037,405.049 "/>
</svg>