<svg xmlns="http://www.w3.org/2000/svg" fill="none" viewBox="0 0 28 28" width="1em" height="1em">
<!-- #3e508e -->
<g fill="var(--fg)" clip-path="url(#clip0_6456_10837)">
<path d="M0 .13v27.74q.01.12.13.13h27.74q.12-.01.13-.13V.13a.13.13 0 0 0-.13-.13H.13A.13.13 0 0 0 0 .13m25.54 25.54H2.47a.13.13 0 0 1-.14-.13V2.47q.01-.13.14-.14h23.07q.12.01.13.14v23.07q-.01.12-.13.13" stroke-width="0.1"></path>
<path d="M12.38 17.3q-.03-.02 0-.04a2.8 2.8 0 0 0-1.6-5.13H4.67v11.2h6.09c1.79 0 3.26-1.38 3.24-3.23a3.1 3.1 0 0 0-1.62-2.8m-5.46-3.26h2.63c.7 0 1.8.15 1.8 1.25 0 1.07-1.04 1.26-1.8 1.25H6.92zm2.53 7.33H6.92v-2.99h2.53c.83 0 2.17.16 2.17 1.5 0 .92-.76 1.5-2.17 1.5M22.51 17.94v5.4h-2v-4.65c0-1.46-.93-1.99-1.85-1.9-.55.06-1.38.42-1.36 1.69v4.85h-2.25v-11.2h2.25V16c1.55-1.9 5.21-1.07 5.21 1.95M17.34 4.67c-1.46 0-2.07.76-2.07 1.87 0 1.12.62 1.86 2.06 1.86 1.55 0 2.1-.82 2.1-1.86 0-1.03-.54-1.87-2.09-1.87m.01 2.86c-.63 0-.89-.45-.89-1 0-.54.26-.99.9-.99.62 0 .88.46.88 1 0 .48-.2.99-.89.99M23.34 4.67v.98L21.75 8.4h-1.43l1.58-2.75h-2.16v-.98zM14.6 4.67h-1.25V8.4h1.24zM45.38 17.05c0 2.25-1.63 3.58-4.27 3.58H36V8.82h5.1c2.34 0 3.8 1.25 3.8 3.26q0 1.31-1.05 2.2a3.1 3.1 0 0 1 1.53 2.77m-7.33-3.59h3.12c.98 0 1.62-.58 1.62-1.47s-.64-1.48-1.62-1.48h-3.12zm5.24 3.59c0-1.1-.8-1.83-2-1.83h-3.23v3.65h3.23c1.2 0 2-.73 2-1.83M46.23 16.35c0-2.59 2.02-4.46 4.61-4.46s4.62 1.87 4.62 4.46a4.47 4.47 0 0 1-4.62 4.47 4.47 4.47 0 0 1-4.61-4.47m7.2.01c0-1.57-1.1-2.7-2.59-2.7s-2.57 1.13-2.57 2.7 1.07 2.7 2.57 2.7 2.58-1.13 2.58-2.7M64.34 15.08v5.55h-1.96v-5.07c0-1.16-.75-1.9-1.86-1.9s-1.88.74-1.88 1.9v5.07H56.7V8.82h1.95v4.1c.5-.66 1.37-1.02 2.38-1.02 1.96 0 3.32 1.3 3.32 3.18M70.94 11.99v1.71h-1.06c-1.2 0-2.02.76-2.02 2.1v4.83H65.9v-8.55h1.85v1.2c.45-.94 1.3-1.3 2.38-1.3zM71.94 8.82h1.95v1.98h-1.95zm0 3.27h1.95v8.54h-1.95zM83.16 12.09v8.54H81.3v-.98c-.49.74-1.38 1.17-2.46 1.17-1.96 0-3.33-1.46-3.33-3.42v-5.31h1.96v5.07c0 1.15.75 1.9 1.88 1.9s1.86-.75 1.86-1.9v-5.07zM97.66 15.08v5.55h-1.95v-5.08c0-1.18-.69-1.9-1.73-1.9-1.05 0-1.73.72-1.73 1.9v5.08h-1.96v-5.08c0-1.18-.68-1.9-1.73-1.9s-1.71.72-1.71 1.9v5.08h-1.96v-8.55h1.84v1.05c.46-.8 1.3-1.24 2.37-1.24 1.17 0 2.14.53 2.69 1.41a3.1 3.1 0 0 1 2.74-1.4c1.83 0 3.13 1.28 3.13 3.18" stroke-width="0.1"></path>
</g>
</svg>
