<?xml version="1.0" encoding="UTF-8" standalone="no"?>
<!DOCTYPE svg PUBLIC "-//W3C//DTD SVG 1.1//EN" "http://www.w3.org/Graphics/SVG/1.1/DTD/svg11.dtd">
<!-- url https://media.theresanaiforthat.com/icons/dola-ai.svg?width=40 [20260417] -->
<svg xmlns="http://www.w3.org/2000/svg" version="1.1" viewBox="0.00 0.00 76.00 76.00">
<g stroke-width="2.00" fill="none" stroke-linecap="butt">
<path stroke="#7a818d" vector-effect="non-scaling-stroke" d="
  M 58.29 70.13
  L 55.95 66.98
  A 0.81 0.81 0.0 0 1 55.85 66.18
  C 57.42 62.32 56.65 59.04 55.85 54.72
  A 2.59 2.58 64.6 0 1 56.70 52.31
  Q 60.22 49.28 60.06 44.39"
/>
<path stroke="#d7ced6" vector-effect="non-scaling-stroke" d="
  M 60.06 44.39
  L 60.31 42.64"
/>
<path stroke="#838792" vector-effect="non-scaling-stroke" d="
  M 60.31 42.64
  Q 61.87 35.05 60.60 27.46
  C 59.83 22.88 56.01 18.30 54.62 15.72
  C 52.91 12.53 50.34 11.58 47.20 11.91
  A 1.30 1.27 60.2 0 1 46.26 11.64
  L 44.47 10.22"
/>
<path stroke="#878b96" vector-effect="non-scaling-stroke" d="
  M 44.47 10.22
  Q 42.58 8.57 40.48 8.32
  Q 30.69 7.12 24.20 14.62"
/>
<path stroke="#a3afbd" vector-effect="non-scaling-stroke" d="
  M 24.20 14.62
  Q 22.48 16.55 22.01 18.88"
/>
<path stroke="#878b96" vector-effect="non-scaling-stroke" d="
  M 22.01 18.88
  C 17.46 24.49 14.50 30.69 14.92 38.01"
/>
<path stroke="#90939e" vector-effect="non-scaling-stroke" d="
  M 14.92 38.01
  L 14.86 41.04"
/>
<path stroke="#a3afbd" vector-effect="non-scaling-stroke" d="
  M 14.86 41.04
  L 16.10 47.55"
/>
<path stroke="#90939e" vector-effect="non-scaling-stroke" d="
  M 16.10 47.55
  L 15.60 48.83"
/>
<path stroke="#878b96" vector-effect="non-scaling-stroke" d="
  M 15.60 48.83
  L 12.22 65.80"
/>
<path stroke="#402e29" vector-effect="non-scaling-stroke" d="
  M 44.47 10.22
  Q 43.11 10.58 41.65 10.05
  A 0.52 0.51 -71.6 0 0 40.99 10.39
  Q 39.77 14.56 35.71 15.74
  A 2.28 2.19 -73.7 0 0 34.79 16.27
  Q 29.00 21.82 26.94 28.96
  A 1.60 1.53 46.2 0 0 26.94 29.81
  L 27.39 31.30
  A 0.04 0.04 0.0 0 0 27.46 31.31
  L 27.87 30.59
  A 0.92 0.91 -74.5 0 1 28.68 30.13
  L 32.09 30.20"
/>
<path stroke="#9f837b" vector-effect="non-scaling-stroke" d="
  M 32.09 30.20
  Q 28.67 29.87 28.81 31.76
  Q 28.89 32.91 30.03 33.03
  Q 34.91 33.55 35.74 36.28
  A 0.51 0.50 65.9 0 1 35.53 36.85
  Q 35.46 36.90 35.27 36.88
  A 0.42 0.41 6.3 0 0 34.81 37.24
  Q 34.45 39.94 32.00 40.72"
/>
<path stroke="#94756d" vector-effect="non-scaling-stroke" d="
  M 32.00 40.72
  Q 30.49 40.75 29.56 40.18"
/>
<path stroke="#605654" vector-effect="non-scaling-stroke" d="
  M 29.56 40.18
  Q 28.50 38.09 29.04 35.69
  A 0.24 0.24 0.0 0 0 28.93 35.43
  L 28.68 35.29
  A 0.36 0.35 -66.6 0 0 28.16 35.50
  Q 27.03 39.33 27.40 43.27"
/>
<path stroke="#94756d" vector-effect="non-scaling-stroke" d="
  M 27.40 43.27
  L 27.18 44.72"
/>
<path stroke="#855d52" vector-effect="non-scaling-stroke" d="
  M 27.18 44.72
  L 27.33 49.03"
/>
<path stroke="#2f211d" vector-effect="non-scaling-stroke" d="
  M 27.33 49.03
  L 27.03 48.65
  A 0.78 0.78 0.0 0 0 25.74 48.73
  C 20.55 57.41 18.63 63.59 22.65 72.72"
/>
<path stroke="#4d3a35" vector-effect="non-scaling-stroke" d="
  M 15.60 48.83
  Q 16.62 51.94 16.68 55.04
  C 16.74 58.30 16.95 60.24 17.32 62.72
  A 0.14 0.14 0.0 0 0 17.60 62.73
  C 18.27 59.10 19.20 55.60 21.02 52.03
  Q 23.09 47.96 24.39 43.95
  A 0.44 0.43 13.1 0 0 24.03 43.38
  Q 20.06 42.84 17.58 40.14
  A 0.34 0.34 0.0 0 0 17.04 40.18
  Q 17.01 40.23 16.99 40.24
  A 0.51 0.50 -32.6 0 1 16.30 40.09
  L 14.92 38.01"
/>
<path stroke="#605654" vector-effect="non-scaling-stroke" d="
  M 22.01 18.88
  Q 24.23 17.67 25.69 15.69
  A 0.31 0.31 0.0 0 0 25.51 15.20
  Q 24.79 15.04 24.20 14.62"
/>
<path stroke="#907169" vector-effect="non-scaling-stroke" d="
  M 60.31 42.64
  Q 58.77 41.68 57.60 41.72
  A 0.82 0.81 11.3 0 0 56.89 42.19
  L 54.55 47.16"
/>
<path stroke="#332320" vector-effect="non-scaling-stroke" d="
  M 54.55 47.16
  Q 54.40 47.26 53.64 46.92"
/>
<path stroke="#907169" vector-effect="non-scaling-stroke" d="
  M 53.64 46.92
  C 55.11 43.72 57.02 38.85 55.43 35.50
  C 54.43 33.39 54.06 32.03 51.51 31.71
  Q 48.64 31.35 45.99 31.93"
/>
<path stroke="#9a7e77" vector-effect="non-scaling-stroke" d="
  M 45.99 31.93
  Q 46.86 28.44 52.24 30.35
  A 0.29 0.29 0.0 0 0 52.61 29.97
  C 49.91 23.09 45.13 22.36 38.77 21.19
  A 2.45 2.44 42.7 0 0 37.70 21.23
  Q 32.74 22.57 30.10 27.54
  A 0.59 0.59 0.0 0 0 30.63 28.41
  Q 33.12 28.39 35.67 29.21
  A 1.69 1.67 -88.8 0 1 36.77 30.37
  L 36.78 30.41
  A 0.53 0.51 -0.8 0 1 36.15 31.03
  L 32.09 30.20"
/>
<path stroke="#efc6bb" vector-effect="non-scaling-stroke" d="
  M 45.99 31.93
  Q 43.68 36.02 44.54 38.70
  C 45.21 40.81 46.46 43.73 46.54 45.94
  Q 46.75 51.86 41.16 54.40
  A 1.37 1.34 40.6 0 1 40.23 54.46
  C 34.70 52.86 31.80 49.79 28.63 46.08
  A 2.53 2.53 0.0 0 1 29.31 42.24
  L 32.00 40.72"
/>
<path stroke="#dfaea0" vector-effect="non-scaling-stroke" d="
  M 36.64 48.86
  Q 38.23 51.95 41.90 51.02
  A 1.38 1.37 12.7 0 0 42.60 50.58
  L 44.01 48.93
  A 0.31 0.31 0.0 0 0 43.89 48.44
  Q 40.58 47.13 36.94 48.16
  A 0.49 0.49 0.0 0 0 36.64 48.86"
/>
<path stroke="#876b64" vector-effect="non-scaling-stroke" d="
  M 53.64 46.92
  Q 49.23 52.87 41.99 55.57"
/>
<path stroke="#d5a092" vector-effect="non-scaling-stroke" d="
  M 41.99 55.57
  Q 38.38 56.58 35.39 54.56
  Q 32.93 52.89 29.28 49.28
  Q 27.53 47.55 27.18 44.72"
/>
<path stroke="#b09994" vector-effect="non-scaling-stroke" d="
  M 27.40 43.27
  Q 27.14 41.20 29.56 40.18"
/>
<path stroke="#7f645d" vector-effect="non-scaling-stroke" d="
  M 53.84 36.59
  Q 50.34 33.24 46.39 36.12
  A 1.68 1.66 67.5 0 0 45.73 37.73
  C 46.10 40.13 46.04 42.18 49.38 41.79
  A 1.08 1.06 11.9 0 0 50.18 41.28
  Q 51.50 39.08 50.71 36.69
  A 0.32 0.31 -83.7 0 1 51.17 36.32
  Q 52.24 36.97 52.26 38.65
  A 0.18 0.18 0.0 0 0 52.60 38.72
  Q 53.00 37.88 53.79 37.30
  A 0.47 0.46 -41.3 0 0 53.84 36.59"
/>
<path stroke="#727a86" vector-effect="non-scaling-stroke" d="
  M 47.2569 37.8373
  A 0.60 0.50 -103.8 0 0 46.9144 38.5393
  A 0.60 0.50 -103.8 0 0 47.5431 39.0027
  A 0.60 0.50 -103.8 0 0 47.8856 38.3007
  A 0.60 0.50 -103.8 0 0 47.2569 37.8373"
/>
<path stroke="#695d5b" vector-effect="non-scaling-stroke" d="
  M 16.10 47.55
  Q 18.21 44.77 14.86 41.04"
/>
<path stroke="#876b64" vector-effect="non-scaling-stroke" d="
  M 60.06 44.39
  Q 58.17 46.73 54.55 47.16"
/>
<path stroke="#958e8d" vector-effect="non-scaling-stroke" d="
  M 51.27 73.59
  L 45.59 66.96"
/>
<path stroke="#372824" vector-effect="non-scaling-stroke" d="
  M 45.59 66.96
  Q 44.41 66.39 43.67 65.50"
/>
<path stroke="#876b64" vector-effect="non-scaling-stroke" d="
  M 43.67 65.50
  L 44.04 64.83"
/>
<path stroke="#785349" vector-effect="non-scaling-stroke" d="
  M 44.04 64.83
  Q 44.82 63.70 44.22 63.00
  Q 41.53 59.85 41.99 55.57"
/>
<path stroke="#d5a092" vector-effect="non-scaling-stroke" d="
  M 44.04 64.83
  C 40.65 59.77 34.76 57.47 30.99 64.14"
/>
<path stroke="#704c42" vector-effect="non-scaling-stroke" d="
  M 30.99 64.14
  Q 30.06 63.70 30.09 62.79
  A 1.21 1.18 -27.0 0 1 30.29 62.20
  Q 32.69 58.80 32.71 54.26
  A 0.94 0.92 21.8 0 0 32.39 53.54
  L 27.33 49.03"
/>
<path stroke="#7f645d" vector-effect="non-scaling-stroke" d="
  M 30.99 64.14
  Q 31.00 64.25 31.31 64.46"
/>
<path stroke="#2f211d" vector-effect="non-scaling-stroke" d="
  M 31.31 64.46
  Q 27.47 68.89 26.67 74.27"
/>
<path stroke="#94756d" vector-effect="non-scaling-stroke" d="
  M 43.67 65.50
  C 39.92 68.80 34.81 67.25 31.31 64.46"
/>
<path stroke="#a29996" vector-effect="non-scaling-stroke" d="
  M 45.59 66.96
  C 41.66 71.36 36.30 69.92 31.65 67.88
  A 0.65 0.64 -61.5 0 0 30.85 68.12
  L 26.86 74.37"
/>
</g>
<path fill="#cae4ff" d="
  M 40.79 0.00
  C 59.74 1.87 73.84 15.84 76.00 34.73
  L 76.00 40.48
  Q 74.15 59.62 58.29 70.13
  L 55.95 66.98
  A 0.81 0.81 0.0 0 1 55.85 66.18
  C 57.42 62.32 56.65 59.04 55.85 54.72
  A 2.59 2.58 64.6 0 1 56.70 52.31
  Q 60.22 49.28 60.06 44.39
  L 60.31 42.64
  Q 61.87 35.05 60.60 27.46
  C 59.83 22.88 56.01 18.30 54.62 15.72
  C 52.91 12.53 50.34 11.58 47.20 11.91
  A 1.30 1.27 60.2 0 1 46.26 11.64
  L 44.47 10.22
  Q 42.58 8.57 40.48 8.32
  Q 30.69 7.12 24.20 14.62
  Q 22.48 16.55 22.01 18.88
  C 17.46 24.49 14.50 30.69 14.92 38.01
  L 14.86 41.04
  L 16.10 47.55
  L 15.60 48.83
  L 12.22 65.80
  Q 1.24 55.40 0.00 40.74
  L 0.00 35.53
  Q 1.05 23.12 8.38 14.13
  Q 18.28 2.01 34.53 0.00
  L 40.79 0.00
  Z"
/>
<path fill="#44322d" d="
  M 44.47 10.22
  Q 43.11 10.58 41.65 10.05
  A 0.52 0.51 -71.6 0 0 40.99 10.39
  Q 39.77 14.56 35.71 15.74
  A 2.28 2.19 -73.7 0 0 34.79 16.27
  Q 29.00 21.82 26.94 28.96
  A 1.60 1.53 46.2 0 0 26.94 29.81
  L 27.39 31.30
  A 0.04 0.04 0.0 0 0 27.46 31.31
  L 27.87 30.59
  A 0.92 0.91 -74.5 0 1 28.68 30.13
  L 32.09 30.20
  Q 28.67 29.87 28.81 31.76
  Q 28.89 32.91 30.03 33.03
  Q 34.91 33.55 35.74 36.28
  A 0.51 0.50 65.9 0 1 35.53 36.85
  Q 35.46 36.90 35.27 36.88
  A 0.42 0.41 6.3 0 0 34.81 37.24
  Q 34.45 39.94 32.00 40.72
  Q 30.49 40.75 29.56 40.18
  Q 28.50 38.09 29.04 35.69
  A 0.24 0.24 0.0 0 0 28.93 35.43
  L 28.68 35.29
  A 0.36 0.35 -66.6 0 0 28.16 35.50
  Q 27.03 39.33 27.40 43.27
  L 27.18 44.72
  L 27.33 49.03
  L 27.03 48.65
  A 0.78 0.78 0.0 0 0 25.74 48.73
  C 20.55 57.41 18.63 63.59 22.65 72.72
  Q 15.94 69.69 12.22 65.80
  L 15.60 48.83
  Q 16.62 51.94 16.68 55.04
  C 16.74 58.30 16.95 60.24 17.32 62.72
  A 0.14 0.14 0.0 0 0 17.60 62.73
  C 18.27 59.10 19.20 55.60 21.02 52.03
  Q 23.09 47.96 24.39 43.95
  A 0.44 0.43 13.1 0 0 24.03 43.38
  Q 20.06 42.84 17.58 40.14
  A 0.34 0.34 0.0 0 0 17.04 40.18
  Q 17.01 40.23 16.99 40.24
  A 0.51 0.50 -32.6 0 1 16.30 40.09
  L 14.92 38.01
  C 14.50 30.69 17.46 24.49 22.01 18.88
  Q 24.23 17.67 25.69 15.69
  A 0.31 0.31 0.0 0 0 25.51 15.20
  Q 24.79 15.04 24.20 14.62
  Q 30.69 7.12 40.48 8.32
  Q 42.58 8.57 44.47 10.22
  Z"
/>
<path fill="#3b2925" d="
  M 44.47 10.22
  L 46.26 11.64
  A 1.30 1.27 60.2 0 0 47.20 11.91
  C 50.34 11.58 52.91 12.53 54.62 15.72
  C 56.01 18.30 59.83 22.88 60.60 27.46
  Q 61.87 35.05 60.31 42.64
  Q 58.77 41.68 57.60 41.72
  A 0.82 0.81 11.3 0 0 56.89 42.19
  L 54.55 47.16
  Q 54.40 47.26 53.64 46.92
  C 55.11 43.72 57.02 38.85 55.43 35.50
  C 54.43 33.39 54.06 32.03 51.51 31.71
  Q 48.64 31.35 45.99 31.93
  Q 46.86 28.44 52.24 30.35
  A 0.29 0.29 0.0 0 0 52.61 29.97
  C 49.91 23.09 45.13 22.36 38.77 21.19
  A 2.45 2.44 42.7 0 0 37.70 21.23
  Q 32.74 22.57 30.10 27.54
  A 0.59 0.59 0.0 0 0 30.63 28.41
  Q 33.12 28.39 35.67 29.21
  A 1.69 1.67 -88.8 0 1 36.77 30.37
  L 36.78 30.41
  A 0.53 0.51 -0.8 0 1 36.15 31.03
  L 32.09 30.20
  L 28.68 30.13
  A 0.92 0.91 -74.5 0 0 27.87 30.59
  L 27.46 31.31
  A 0.04 0.04 0.0 0 1 27.39 31.30
  L 26.94 29.81
  A 1.60 1.53 46.2 0 1 26.94 28.96
  Q 29.00 21.82 34.79 16.27
  A 2.28 2.19 -73.7 0 1 35.71 15.74
  Q 39.77 14.56 40.99 10.39
  A 0.52 0.51 -71.6 0 1 41.65 10.05
  Q 43.11 10.58 44.47 10.22
  Z"
/>
<path fill="#7b797a" d="
  M 24.20 14.62
  Q 24.79 15.04 25.51 15.20
  A 0.31 0.31 0.0 0 1 25.69 15.69
  Q 24.23 17.67 22.01 18.88
  Q 22.48 16.55 24.20 14.62
  Z"
/>
<path fill="#f9d3c9" d="
  M 45.99 31.93
  Q 43.68 36.02 44.54 38.70
  C 45.21 40.81 46.46 43.73 46.54 45.94
  Q 46.75 51.86 41.16 54.40
  A 1.37 1.34 40.6 0 1 40.23 54.46
  C 34.70 52.86 31.80 49.79 28.63 46.08
  A 2.53 2.53 0.0 0 1 29.31 42.24
  L 32.00 40.72
  Q 34.45 39.94 34.81 37.24
  A 0.42 0.41 6.3 0 1 35.27 36.88
  Q 35.46 36.90 35.53 36.85
  A 0.51 0.50 65.9 0 0 35.74 36.28
  Q 34.91 33.55 30.03 33.03
  Q 28.89 32.91 28.81 31.76
  Q 28.67 29.87 32.09 30.20
  L 36.15 31.03
  A 0.53 0.51 -0.8 0 0 36.78 30.41
  L 36.77 30.37
  A 1.69 1.67 -88.8 0 0 35.67 29.21
  Q 33.12 28.39 30.63 28.41
  A 0.59 0.59 0.0 0 1 30.10 27.54
  Q 32.74 22.57 37.70 21.23
  A 2.45 2.44 42.7 0 1 38.77 21.19
  C 45.13 22.36 49.91 23.09 52.61 29.97
  A 0.29 0.29 0.0 0 1 52.24 30.35
  Q 46.86 28.44 45.99 31.93
  Z
  M 36.64 48.86
  Q 38.23 51.95 41.90 51.02
  A 1.38 1.37 12.7 0 0 42.60 50.58
  L 44.01 48.93
  A 0.31 0.31 0.0 0 0 43.89 48.44
  Q 40.58 47.13 36.94 48.16
  A 0.49 0.49 0.0 0 0 36.64 48.86
  Z"
/>
<path fill="#e4b8ad" d="
  M 53.64 46.92
  Q 49.23 52.87 41.99 55.57
  Q 38.38 56.58 35.39 54.56
  Q 32.93 52.89 29.28 49.28
  Q 27.53 47.55 27.18 44.72
  L 27.40 43.27
  Q 27.14 41.20 29.56 40.18
  Q 30.49 40.75 32.00 40.72
  L 29.31 42.24
  A 2.53 2.53 0.0 0 0 28.63 46.08
  C 31.80 49.79 34.70 52.86 40.23 54.46
  A 1.37 1.34 40.6 0 0 41.16 54.40
  Q 46.75 51.86 46.54 45.94
  C 46.46 43.73 45.21 40.81 44.54 38.70
  Q 43.68 36.02 45.99 31.93
  Q 48.64 31.35 51.51 31.71
  C 54.06 32.03 54.43 33.39 55.43 35.50
  C 57.02 38.85 55.11 43.72 53.64 46.92
  Z
  M 53.84 36.59
  Q 50.34 33.24 46.39 36.12
  A 1.68 1.66 67.5 0 0 45.73 37.73
  C 46.10 40.13 46.04 42.18 49.38 41.79
  A 1.08 1.06 11.9 0 0 50.18 41.28
  Q 51.50 39.08 50.71 36.69
  A 0.32 0.31 -83.7 0 1 51.17 36.32
  Q 52.24 36.97 52.26 38.65
  A 0.18 0.18 0.0 0 0 52.60 38.72
  Q 53.00 37.88 53.79 37.30
  A 0.47 0.46 -41.3 0 0 53.84 36.59
  Z"
/>
<path fill="#1a0f0c" d="
  M 53.79 37.30
  Q 53.00 37.88 52.60 38.72
  A 0.18 0.18 0.0 0 1 52.26 38.65
  Q 52.24 36.97 51.17 36.32
  A 0.32 0.31 -83.7 0 0 50.71 36.69
  Q 51.50 39.08 50.18 41.28
  A 1.08 1.06 11.9 0 1 49.38 41.79
  C 46.04 42.18 46.10 40.13 45.73 37.73
  A 1.68 1.66 67.5 0 1 46.39 36.12
  Q 50.34 33.24 53.84 36.59
  A 0.47 0.46 -41.3 0 1 53.79 37.30
  Z
  M 47.2569 37.8373
  A 0.60 0.50 -103.8 0 0 46.9144 38.5393
  A 0.60 0.50 -103.8 0 0 47.5431 39.0027
  A 0.60 0.50 -103.8 0 0 47.8856 38.3007
  A 0.60 0.50 -103.8 0 0 47.2569 37.8373
  Z"
/>
<path fill="#7b797a" d="
  M 29.56 40.18
  Q 27.14 41.20 27.40 43.27
  Q 27.03 39.33 28.16 35.50
  A 0.36 0.35 -66.6 0 1 28.68 35.29
  L 28.93 35.43
  A 0.24 0.24 0.0 0 1 29.04 35.69
  Q 28.50 38.09 29.56 40.18
  Z"
/>
<ellipse fill="#cae4ff" cx="0.00" cy="0.00" transform="translate(47.40,38.42) rotate(-103.8)" rx="0.60" ry="0.50"/>
<path fill="#56413c" d="
  M 15.60 48.83
  L 16.10 47.55
  Q 18.21 44.77 14.86 41.04
  L 14.92 38.01
  L 16.30 40.09
  A 0.51 0.50 -32.6 0 0 16.99 40.24
  Q 17.01 40.23 17.04 40.18
  A 0.34 0.34 0.0 0 1 17.58 40.14
  Q 20.06 42.84 24.03 43.38
  A 0.44 0.43 13.1 0 1 24.39 43.95
  Q 23.09 47.96 21.02 52.03
  C 19.20 55.60 18.27 59.10 17.60 62.73
  A 0.14 0.14 0.0 0 1 17.32 62.72
  C 16.95 60.24 16.74 58.30 16.68 55.04
  Q 16.62 51.94 15.60 48.83
  Z"
/>
<path fill="#7b797a" d="
  M 16.10 47.55
  L 14.86 41.04
  Q 18.21 44.77 16.10 47.55
  Z"
/>
<path fill="#e4b8ad" d="
  M 60.31 42.64
  L 60.06 44.39
  Q 58.17 46.73 54.55 47.16
  L 56.89 42.19
  A 0.82 0.81 11.3 0 1 57.60 41.72
  Q 58.77 41.68 60.31 42.64
  Z"
/>
<path fill="#2a1d1b" d="
  M 60.06 44.39
  Q 60.22 49.28 56.70 52.31
  A 2.59 2.58 64.6 0 0 55.85 54.72
  C 56.65 59.04 57.42 62.32 55.85 66.18
  A 0.81 0.81 0.0 0 0 55.95 66.98
  L 58.29 70.13
  L 51.27 73.59
  L 45.59 66.96
  Q 44.41 66.39 43.67 65.50
  L 44.04 64.83
  Q 44.82 63.70 44.22 63.00
  Q 41.53 59.85 41.99 55.57
  Q 49.23 52.87 53.64 46.92
  Q 54.40 47.26 54.55 47.16
  Q 58.17 46.73 60.06 44.39
  Z"
/>
<path fill="#c58877" d="
  M 27.18 44.72
  Q 27.53 47.55 29.28 49.28
  Q 32.93 52.89 35.39 54.56
  Q 38.38 56.58 41.99 55.57
  Q 41.53 59.85 44.22 63.00
  Q 44.82 63.70 44.04 64.83
  C 40.65 59.77 34.76 57.47 30.99 64.14
  Q 30.06 63.70 30.09 62.79
  A 1.21 1.18 -27.0 0 1 30.29 62.20
  Q 32.69 58.80 32.71 54.26
  A 0.94 0.92 21.8 0 0 32.39 53.54
  L 27.33 49.03
  L 27.18 44.72
  Z"
/>
<path fill="#c58877" d="
  M 36.94 48.16
  Q 40.58 47.13 43.89 48.44
  A 0.31 0.31 0.0 0 1 44.01 48.93
  L 42.60 50.58
  A 1.38 1.37 12.7 0 1 41.90 51.02
  Q 38.23 51.95 36.64 48.86
  A 0.49 0.49 0.0 0 1 36.94 48.16
  Z"
/>
<path fill="#1a0f0c" d="
  M 27.33 49.03
  L 32.39 53.54
  A 0.94 0.92 21.8 0 1 32.71 54.26
  Q 32.69 58.80 30.29 62.20
  A 1.21 1.18 -27.0 0 0 30.09 62.79
  Q 30.06 63.70 30.99 64.14
  Q 31.00 64.25 31.31 64.46
  Q 27.47 68.89 26.67 74.27
  L 22.65 72.72
  C 18.63 63.59 20.55 57.41 25.74 48.73
  A 0.78 0.78 0.0 0 1 27.03 48.65
  L 27.33 49.03
  Z"
/>
<path fill="#e4b8ad" d="
  M 44.04 64.83
  L 43.67 65.50
  C 39.92 68.80 34.81 67.25 31.31 64.46
  Q 31.00 64.25 30.99 64.14
  C 34.76 57.47 40.65 59.77 44.04 64.83
  Z"
/>
<path fill="#44322d" d="
  M 31.31 64.46
  C 34.81 67.25 39.92 68.80 43.67 65.50
  Q 44.41 66.39 45.59 66.96
  C 41.66 71.36 36.30 69.92 31.65 67.88
  A 0.65 0.64 -61.5 0 0 30.85 68.12
  L 26.86 74.37
  Q 27.13 74.45 26.67 74.27
  Q 27.47 68.89 31.31 64.46
  Z"
/>
<path fill="#fffffe" d="
  M 51.27 73.59
  L 41.23 76.00
  L 35.35 76.00
  L 26.86 74.37
  L 30.85 68.12
  A 0.65 0.64 -61.5 0 1 31.65 67.88
  C 36.30 69.92 41.66 71.36 45.59 66.96
  L 51.27 73.59
  Z"
/>
</svg>
