<?xml version="1.0" encoding="UTF-8"?>
<svg version="1.1" xmlns="http://www.w3.org/2000/svg" width="360" height="357">
<path d="M0 0 C118.8 0 237.6 0 360 0 C360 117.81 360 235.62 360 357 C241.2 357 122.4 357 0 357 C0 239.19 0 121.38 0 0 Z " fill="#5063F0" transform="translate(0,0)"/>
<path d="M0 0 C0.66 0 1.32 0 2 0 C2 5.94 2 11.88 2 18 C-13.85972484 24.8899757 -29.73010702 31.75401632 -45.625 38.5625 C-46.35320953 38.87457397 -47.08141907 39.18664795 -47.83169556 39.50817871 C-54.98431833 42.57340444 -62.13821318 45.63552496 -69.29940796 48.68067932 C-71.91838557 49.79460723 -74.5364718 50.9106209 -77.15447998 52.02682495 C-78.95571164 52.79364555 -80.7583567 53.55714345 -82.56103516 54.32055664 C-83.63401855 54.77809326 -84.70700195 55.23562988 -85.8125 55.70703125 C-86.74707031 56.1038208 -87.68164062 56.50061035 -88.64453125 56.90942383 C-91.18535558 58.01250704 -91.18535558 58.01250704 -94 60 C-88.89749843 62.65284927 -83.7711781 65.14784788 -78.44921875 67.33203125 C-74.15552244 69.1053708 -69.87129068 70.89755829 -65.59765625 72.71875 C-64.52193359 73.17636719 -63.44621094 73.63398438 -62.33789062 74.10546875 C-60.15760324 75.03374853 -57.977913 75.96343215 -55.79882812 76.89453125 C-50.28522265 79.23723615 -44.75670285 81.4973188 -39.15625 83.625 C-34.47273379 85.40785545 -29.9499997 87.3233221 -25.4375 89.5 C-19.91594054 92.13501287 -14.34063665 94.5521857 -8.67578125 96.8671875 C-5.02324983 98.41351467 -1.51930103 100.17267062 2 102 C2 107.61 2 113.22 2 119 C-1.93824976 118.21235005 -4.85846515 117.35982963 -8.49609375 115.83984375 C-9.59187744 115.38440186 -10.68766113 114.92895996 -11.81665039 114.4597168 C-13.60897095 113.70621948 -13.60897095 113.70621948 -15.4375 112.9375 C-16.71787481 112.40305954 -17.99839644 111.8689707 -19.27905273 111.33520508 C-23.52248625 109.56420575 -27.76154308 107.78287075 -32 106 C-32.7386731 105.6894165 -33.47734619 105.37883301 -34.23840332 105.05883789 C-41.27903145 102.09824142 -48.31849701 99.13489534 -55.35522461 96.16503906 C-63.63316195 92.67246286 -71.91722718 89.19559388 -80.21484375 85.75 C-81.45567467 85.23449333 -81.45567467 85.23449333 -82.72157288 84.70857239 C-86.68107549 83.06404561 -90.64162382 81.42210741 -94.60375977 79.78393555 C-96.02753548 79.19326643 -97.45128372 78.60253111 -98.875 78.01171875 C-99.51078476 77.74991821 -100.14656952 77.48811768 -100.80162048 77.21838379 C-104.63978911 75.62279465 -108.26669262 73.86665369 -112 72 C-112 64.08 -112 56.16 -112 48 C-106.03524723 44.90982688 -100.27823918 42.07022695 -94 39.6953125 C-87.2726806 37.14525945 -80.69207383 34.30916033 -74.11129761 31.40945435 C-56.4946274 23.65369286 -56.4946274 23.65369286 -47.9375 20.5625 C-42.20487671 18.49084002 -36.71984814 16.10873684 -31.2109375 13.50390625 C-22.12217486 9.24700404 -12.84974774 5.48440537 -3.44921875 1.98046875 C-1.09209247 1.22331465 -1.09209247 1.22331465 0 0 Z " fill="#FAFAFE" transform="translate(129,121)"/>
<path d="M0 0 C3.82246912 0.76449382 6.51095408 1.50469461 10 3 C11.04285156 3.4434375 12.08570313 3.886875 13.16015625 4.34375 C14.44043602 4.89506333 15.72034675 5.44723402 17 6 C20.47847798 7.5016032 23.95753547 9.00184473 27.4375 10.5 C28.35934082 10.89711182 29.28118164 11.29422363 30.23095703 11.70336914 C34.91375231 13.71117495 39.60037264 15.65573335 44.375 17.4375 C51.56846943 20.13387255 58.57653557 23.25195558 65.60498047 26.34741211 C70.78987765 28.62654159 75.99442963 30.81208923 81.26098633 32.89477539 C86.4106797 34.97273794 91.50616644 37.18021286 96.60742188 39.3737793 C98.52413171 40.19787551 100.44169222 41.01996759 102.359375 41.84179688 C111.71851504 45.85925752 111.71851504 45.85925752 114 47 C114 54.92 114 62.84 114 71 C111.3703125 72.0828125 111.3703125 72.0828125 108.6875 73.1875 C104.75326351 74.82333817 100.8596702 76.50845701 97 78.3125 C91.05631733 81.04522767 84.98589887 83.43113382 78.90625 85.84033203 C70.68605116 89.10486412 62.53991856 92.53329494 54.39819336 95.98779297 C51.6870208 97.13209933 48.97086917 98.26404278 46.25390625 99.39453125 C39.80712505 102.07754041 33.37036694 104.78381609 26.9375 107.5 C25.84373047 107.96019531 24.74996094 108.42039062 23.62304688 108.89453125 C17.43439655 111.50841687 11.30914542 114.20857714 5.24438477 117.09960938 C3 118 3 118 0 118 C0 112.06 0 106.12 0 100 C2.32804688 99.01773438 2.32804688 99.01773438 4.703125 98.015625 C19.83761469 91.62447911 34.94771913 85.17878246 50.04394531 78.69775391 C56.84957399 75.77652083 63.65742648 72.86047208 70.46487427 69.94348145 C74.19149192 68.34658797 77.91800893 66.74945967 81.64453125 65.15234375 C82.90860951 64.6105945 84.17268826 64.0688464 85.43676758 63.52709961 C86.61263428 63.02315674 87.78850098 62.51921387 89 62 C91.33333333 61 93.66666667 60 96 59 C90.21103691 56.03897865 84.35847858 53.35493878 78.375 50.8125 C77.47346191 50.42739258 76.57192383 50.04228516 75.64306641 49.64550781 C67.97494433 46.38354662 60.26226219 43.2348054 52.54174805 40.09936523 C47.22140106 37.93174565 41.96776568 35.67335273 36.76171875 33.2421875 C33.0444083 31.57018648 29.27409543 30.03862559 25.5 28.5 C16.84096043 24.96589254 8.36791913 21.18395957 0 17 C0 11.39 0 5.78 0 0 Z " fill="#FAFBFE" transform="translate(219,122)"/>
<path d="M0 0 C5.94 0 11.88 0 18 0 C16.87578596 7.86949827 16.87578596 7.86949827 15.94140625 11.1953125 C15.72564941 11.97390625 15.50989258 12.7525 15.28759766 13.5546875 C15.04831543 14.40289062 14.8090332 15.25109375 14.5625 16.125 C14.01886745 18.08575358 13.47595428 20.04670669 12.93359375 22.0078125 C12.62921387 23.10512695 12.32483398 24.20244141 12.01123047 25.33300781 C10.02162538 32.54784809 8.07607933 39.77466564 6.125 47 C5.6911677 48.60506336 5.25732979 50.2101252 4.82348633 51.81518555 C2.11235716 61.85067835 -0.57716318 71.89174662 -3.25 81.9375 C-7.29187294 97.12732931 -11.40568775 112.29599268 -15.625 127.4375 C-18.91585815 139.25023636 -22.06034463 151.09439575 -25 163 C-31.27 163 -37.54 163 -44 163 C-43.27806004 158.66836022 -42.452721 154.60459465 -41.36328125 150.37109375 C-41.03642334 149.09967529 -40.70956543 147.82825684 -40.37280273 146.51831055 C-40.01963438 145.15797131 -39.66619412 143.79770263 -39.3125 142.4375 C-39.13292755 141.74371246 -38.9533551 141.04992493 -38.76834106 140.33511353 C-36.37561365 131.09690743 -33.88839154 121.89244124 -31.22216797 112.72900391 C-28.87976137 104.66282623 -26.70648208 96.55376304 -24.53491211 88.44018555 C-22.88650527 82.28476538 -21.21813899 76.13631241 -19.5 70 C-17.53974635 62.99070564 -15.63718312 55.96680477 -13.75 48.9375 C-11.08950097 39.03644015 -8.4217932 29.13737192 -5.73400879 19.24368286 C-5.32918615 17.75225344 -4.92512879 16.26061608 -4.52185059 14.76876831 C-3.95668909 12.67862502 -3.38883894 10.58923013 -2.8203125 8.5 C-2.49305176 7.2934375 -2.16579102 6.086875 -1.82861328 4.84375 C-1 2 -1 2 0 0 Z " fill="#FAFAFE" transform="translate(189,88)"/>
<path d="M0 0 C19.47 0 38.94 0 59 0 C59 20.13 59 40.26 59 61 C58.34 61 57.68 61 57 61 C56.70867187 59.82824219 56.41734375 58.65648437 56.1171875 57.44921875 C52.69687213 44.15192806 48.03478943 33.52051035 39 23 C38.50242187 22.40703125 38.00484375 21.8140625 37.4921875 21.203125 C27.33645943 10.07775455 14.10205182 5.07712383 0 1 C0 0.67 0 0.34 0 0 Z " fill="#F9FAFB" transform="translate(301,0)"/>
<path d="M0 0 C0.33 0 0.66 0 1 0 C1 20.46 1 40.92 1 62 C-17.15 62 -35.3 62 -54 62 C-50.66735801 60.333679 -47.56643511 59.14590284 -44.0625 57.9375 C-26.27290193 51.1291353 -13.38674816 37.84335768 -5.4609375 20.6640625 C-2.71099499 13.8937362 -0.97185858 7.23817058 0 0 Z " fill="#FCFCFD" transform="translate(359,295)"/>
<path d="M0 0 C0.33 0 0.66 0 1 0 C1.14695313 0.84820312 1.29390625 1.69640625 1.4453125 2.5703125 C4.21134806 17.03636055 9.43782541 28.67458754 19 40 C19.54140625 40.65484375 20.0828125 41.3096875 20.640625 41.984375 C27.95256024 50.03488956 38.40017758 56.0073507 48.6953125 59.24609375 C51 60 51 60 55 62 C36.85 62 18.7 62 0 62 C0 41.54 0 21.08 0 0 Z " fill="#F8F9FA" transform="translate(0,295)"/>
<path d="M0 0 C18.48 0 36.96 0 56 0 C53.47925268 2.52074732 51.56174003 2.7768051 48.125 3.6875 C30.45227461 9.01459214 16.35127055 21.62530619 7.5078125 37.71484375 C4.34410243 44.23882576 2.5180419 50.92814628 1 58 C0.67 58 0.34 58 0 58 C0 38.86 0 19.72 0 0 Z " fill="#FCFCFC" transform="translate(0,0)"/>
<path d="M0 0 C0.33 0 0.66 0 1 0 C1.08107646 2.75059381 1.14052813 5.49879021 1.1875 8.25 C1.21263672 9.02730469 1.23777344 9.80460937 1.26367188 10.60546875 C1.32099376 15.07657583 1.24428679 17.63495811 -2 21 C-2.45375 21.94875 -2.9075 22.8975 -3.375 23.875 C-5 27 -5 27 -7.5625 30.0625 C-10.0524871 32.71019256 -10.0524871 32.71019256 -10.7890625 35.30078125 C-12.44720899 38.99684327 -14.93109875 41.33070278 -17.8125 44.125 C-18.33392578 44.64964844 -18.85535156 45.17429687 -19.39257812 45.71484375 C-26.77917326 53 -26.77917326 53 -32 53 C-29.13426373 50.04470947 -26.19937479 47.2922467 -23.0625 44.625 C-9.75188919 33.01255342 -2.34164921 17.44004415 0 0 Z " fill="#DFE1EB" transform="translate(359,295)"/>
<path d="M0 0 C0.99 0.33 1.98 0.66 3 1 C2.2265625 1.556875 1.453125 2.11375 0.65625 2.6875 C-16.03983218 14.92027308 -26.99187602 29.29135944 -31 50 C-31.33 50 -31.66 50 -32 50 C-32.0814222 47.77144426 -32.13938079 45.54202345 -32.1875 43.3125 C-32.22230469 42.07113281 -32.25710937 40.82976563 -32.29296875 39.55078125 C-31.97946629 35.75113138 -31.20387833 34.04700854 -29 31 C-28.34 30.01 -27.68 29.02 -27 28 C-26.34 28 -25.68 28 -25 28 C-24.95875 27.34 -24.9175 26.68 -24.875 26 C-22.04425379 16.29458441 -11.7245057 7.2237745 -3.5625 1.8125 C-2.386875 1.214375 -1.21125 0.61625 0 0 Z " fill="#E0E2EB" transform="translate(32,8)"/>
<path d="M0 0 C4.92307692 4.30769231 4.92307692 4.30769231 5.3125 7.8125 C5.209375 8.534375 5.10625 9.25625 5 10 C5.66 10 6.32 10 7 10 C7 13.3 7 16.6 7 20 C5.32283443 16.64566886 4.10293709 13.54505579 2.9375 10 C2.59589844 8.96875 2.25429688 7.9375 1.90234375 6.875 C1.18554274 4.59116647 0.5432125 2.32965363 0 0 Z " fill="#D6D9E7" transform="translate(351,37)"/>
<path d="M0 0 C0.33 0 0.66 0 1 0 C1.99 5.28 2.98 10.56 4 16 C2.68 15.67 1.36 15.34 0 15 C0 10.05 0 5.1 0 0 Z " fill="#D3D6E1" transform="translate(0,295)"/>
<path d="M0 0 C0.33 0 0.66 0 1 0 C1 4.29 1 8.58 1 13 C0.34 13 -0.32 13 -1 13 C-1 13.66 -1 14.32 -1 15 C-1.66 15 -2.32 15 -3 15 C-2.01 10.05 -1.02 5.1 0 0 Z " fill="#D0D3E5" transform="translate(359,295)"/>
<path d="M0 0 C-0.66 1.32 -1.32 2.64 -2 4 C-5.3 4 -8.6 4 -12 4 C-4 0 -4 0 0 0 Z " fill="#D8DBF0" transform="translate(317,353)"/>
<path d="M0 0 C1.43655854 -0.08131463 2.8744483 -0.13933559 4.3125 -0.1875 C5.51326172 -0.23970703 5.51326172 -0.23970703 6.73828125 -0.29296875 C9.47851584 0.06198392 10.29171079 0.89366282 12 3 C9.18185434 4.40907283 7.82722796 3.50872691 4.875 2.5625 C3.96492188 2.27503906 3.05484375 1.98757812 2.1171875 1.69140625 C1.41851562 1.46324219 0.71984375 1.23507813 0 1 C0 0.67 0 0.34 0 0 Z " fill="#D7DBEF" transform="translate(301,0)"/>
<path d="M0 0 C0 0.99 0 1.98 0 3 C-0.99 3.66 -1.98 4.32 -3 5 C-2.625 3.0625 -2.625 3.0625 -2 1 C-1.34 0.67 -0.68 0.34 0 0 Z M-14 14 C-12 15 -12 15 -12 15 Z " fill="#EEEFEF" transform="translate(347,330)"/>
<path d="M0 0 C1 4 1 4 0.00390625 5.703125 C-1.33072917 7.13541667 -2.66536458 8.56770833 -4 10 C-4.66 9.67 -5.32 9.34 -6 9 C-4.02 6.03 -2.04 3.06 0 0 Z " fill="#D7DAE9" transform="translate(351,321)"/>
</svg>
