<?xml version="1.0" encoding="UTF-8"?>
<svg version="1.1" xmlns="http://www.w3.org/2000/svg" width="400" height="143">
<path d="M0 0 C13.4753505 10.95940893 22.76076628 25.41695587 25.38964844 42.76757812 C26.32837331 54.42150398 24.75238038 64.61351635 21.38964844 75.76757812 C20.72964844 75.76757812 20.06964844 75.76757812 19.38964844 75.76757812 C19.41027344 76.57195312 19.43089844 77.37632813 19.45214844 78.20507812 C19.38964844 80.76757812 19.38964844 80.76757812 18.38964844 81.76757812 C2.67259411 83.00028827 -10.21790071 75.99058679 -23.61035156 68.76757812 C-25.07098007 71.41496729 -25.61035156 72.66206147 -25.61035156 75.76757812 C-24.82660156 75.41695313 -24.04285156 75.06632812 -23.23535156 74.70507812 C-22.36910156 74.39570312 -21.50285156 74.08632812 -20.61035156 73.76757812 C-19.95035156 74.09757812 -19.29035156 74.42757812 -18.61035156 74.76757812 C-18.61035156 75.42757812 -18.61035156 76.08757812 -18.61035156 76.76757812 C-20.59035156 77.75757812 -20.59035156 77.75757812 -22.61035156 78.76757812 C-19.84758979 78.24489347 -17.28426397 77.65888226 -14.61035156 76.76757812 C-13.95035156 77.09757812 -13.29035156 77.42757812 -12.61035156 77.76757812 C-12.61035156 78.42757812 -12.61035156 79.08757812 -12.61035156 79.76757812 C-14.59035156 80.75757812 -14.59035156 80.75757812 -16.61035156 81.76757812 C-12.67446345 83.07954083 -10.52280789 81.90574724 -6.61035156 80.76757812 C-5.95035156 81.09757812 -5.29035156 81.42757812 -4.61035156 81.76757812 C-4.61035156 82.42757812 -4.61035156 83.08757812 -4.61035156 83.76757812 C-9.88621363 86.83493979 -9.88621363 86.83493979 -13.29785156 86.51757812 C-15.07134738 85.94239029 -16.84159052 85.35716514 -18.61035156 84.76757812 C-20.45838125 84.7517921 -22.307315 84.80076686 -24.15332031 84.88867188 C-25.60387817 84.95332642 -25.60387817 84.95332642 -27.08374023 85.01928711 C-28.30939697 85.08059814 -29.53505371 85.14190918 -30.79785156 85.20507812 C-34.69597656 85.39070313 -38.59410156 85.57632813 -42.61035156 85.76757812 C-42.61035156 95.33757812 -42.61035156 104.90757813 -42.61035156 114.76757812 C-59.5915359 114.76757812 -72.7640879 107.55277857 -84.61035156 95.76757812 C-85.23683594 95.17589844 -85.86332031 94.58421875 -86.50878906 93.97460938 C-90.62737465 89.75352506 -93.27530185 84.98417393 -95.92285156 79.76757812 C-96.26074707 79.10298584 -96.59864258 78.43839355 -96.94677734 77.75366211 C-103.44316691 64.37438891 -104.12404247 46.62900237 -99.92285156 32.39257812 C-99.2011542 30.49812255 -98.43370243 28.62011757 -97.61035156 26.76757812 C-97.25972656 25.90648437 -96.90910156 25.04539063 -96.54785156 24.15820312 C-89.32648284 8.01042029 -75.60584902 -2.60997057 -59.61035156 -9.23242188 C-39.83203359 -15.99301056 -16.69547481 -12.7772524 0 0 Z M-36.98535156 20.45507812 C-39.06308565 24.69045915 -39.37636584 28.12746865 -38.61035156 32.76757812 C-37.29271828 35.28650483 -37.29271828 35.28650483 -35.61035156 36.76757812 C-34.0875869 33.62687601 -33.6081012 31.80958492 -33.79785156 28.26757812 C-33.61035156 24.76757812 -33.61035156 24.76757812 -31.54785156 21.89257812 C-28.01351285 19.33582246 -25.96208931 18.76757812 -21.61035156 18.76757812 C-17.59516093 20.2827444 -16.00666803 21.17310342 -13.61035156 24.76757812 C-13.02274729 29.27000048 -13.10744882 33.45444318 -14.73535156 37.70507812 C-18.21134328 41.52866901 -21.3607352 42.70711282 -26.48535156 42.95507812 C-27.51660156 42.89320312 -28.54785156 42.83132812 -29.61035156 42.76757812 C-29.61035156 44.41757812 -29.61035156 46.06757812 -29.61035156 47.76757812 C-28.43472656 47.70570312 -28.43472656 47.70570312 -27.23535156 47.64257812 C-24.61035156 47.76757812 -24.61035156 47.76757812 -22.61035156 49.76757812 C-20.6034215 49.56974948 -20.6034215 49.56974948 -18.48535156 48.89257812 C-17.76089844 48.68890625 -17.03644531 48.48523437 -16.29003906 48.27539062 C-15.45859375 48.02402344 -15.45859375 48.02402344 -14.61035156 47.76757812 C-14.28035156 49.08757812 -13.95035156 50.40757813 -13.61035156 51.76757812 C-12.62035156 51.10757813 -11.63035156 50.44757813 -10.61035156 49.76757812 C-10.61035156 49.10757813 -10.61035156 48.44757812 -10.61035156 47.76757812 C-9.95035156 47.76757812 -9.29035156 47.76757812 -8.61035156 47.76757812 C-8.94035156 50.07757813 -9.27035156 52.38757813 -9.61035156 54.76757812 C-8.62035156 54.27257812 -8.62035156 54.27257812 -7.61035156 53.76757812 C-7.55618968 52.16378472 -7.51748519 50.55946406 -7.48535156 48.95507812 C-7.46214844 48.06175781 -7.43894531 47.1684375 -7.41503906 46.24804688 C-7.42749329 43.51355098 -7.42749329 43.51355098 -9.61035156 40.76757812 C-9.61035156 41.42757812 -9.61035156 42.08757813 -9.61035156 42.76757812 C-10.27035156 42.43757813 -10.93035156 42.10757813 -11.61035156 41.76757812 C-11.32160156 41.27128906 -11.03285156 40.775 -10.73535156 40.26367188 C-8.18117141 35.58987694 -6.83304823 32.20870145 -7.61035156 26.76757812 C-9.4675501 21.49392879 -11.81870403 17.83914705 -16.61035156 14.76757812 C-25.07312843 11.9466525 -31.06904995 13.76031577 -36.98535156 20.45507812 Z M-48.61035156 17.76757812 C-48.0876669 20.5303399 -47.5016557 23.09366572 -46.61035156 25.76757812 C-44.63498411 25.41971104 -44.63498411 25.41971104 -42.61035156 24.76757812 C-42.28035156 24.10757813 -41.95035156 23.44757812 -41.61035156 22.76757812 C-42.27035156 22.76757812 -42.93035156 22.76757812 -43.61035156 22.76757812 C-43.87847656 22.12820312 -44.14660156 21.48882812 -44.42285156 20.83007812 C-45.49702908 18.43626126 -45.49702908 18.43626126 -48.61035156 17.76757812 Z M-42.61035156 18.76757812 C-41.95035156 19.42757812 -41.29035156 20.08757813 -40.61035156 20.76757812 C-39.95035156 20.10757813 -39.29035156 19.44757812 -38.61035156 18.76757812 C-39.93035156 18.76757812 -41.25035156 18.76757812 -42.61035156 18.76757812 Z M-30.61035156 22.76757812 C-32.98258151 25.66337194 -32.98258151 25.66337194 -32.36035156 29.33007812 C-31.92450717 32.81350425 -31.92450717 32.81350425 -29.61035156 34.76757812 C-26.11035156 35.10091146 -26.11035156 35.10091146 -22.61035156 34.76757812 C-20.32306422 32.92873932 -20.32306422 32.92873932 -20.48535156 30.14257812 C-20.52660156 29.35882813 -20.56785156 28.57507812 -20.61035156 27.76757812 C-22.26035156 27.43757813 -23.91035156 27.10757813 -25.61035156 26.76757812 C-25.94035156 27.42757812 -26.27035156 28.08757813 -26.61035156 28.76757812 C-26.28035156 29.42757812 -25.95035156 30.08757813 -25.61035156 30.76757812 C-26.27035156 30.43757813 -26.93035156 30.10757813 -27.61035156 29.76757812 C-27.28035156 28.44757812 -26.95035156 27.12757812 -26.61035156 25.76757812 C-24.63035156 25.76757812 -22.65035156 25.76757812 -20.61035156 25.76757812 C-19.29345015 32.11264855 -19.29345015 32.11264855 -20.54785156 34.70507812 C-23.86543853 36.41413808 -26.9147636 35.94932835 -30.61035156 35.76757812 C-30.61035156 37.41757812 -30.61035156 39.06757812 -30.61035156 40.76757812 C-26.63507451 41.64213908 -24.22763258 41.99312311 -20.36035156 40.58007812 C-16.79047825 38.26937261 -16.79047825 38.26937261 -14.61035156 34.76757812 C-13.79547325 29.94168767 -13.86272573 26.82304989 -16.73535156 22.76757812 C-21.9441135 19.14409156 -25.53661155 18.8213359 -30.61035156 22.76757812 Z M-50.61035156 24.76757812 C-49.61035156 26.76757812 -49.61035156 26.76757812 -49.61035156 26.76757812 Z M-51.61035156 26.76757812 C-50.61035156 28.76757812 -50.61035156 28.76757812 -50.61035156 28.76757812 Z M-43.61035156 26.76757812 C-43.94035156 28.41757812 -44.27035156 30.06757812 -44.61035156 31.76757812 C-47.08535156 31.27257813 -47.08535156 31.27257813 -49.61035156 30.76757812 C-50.60035156 32.25257812 -50.60035156 32.25257812 -51.61035156 33.76757812 C-52.16722656 33.54070313 -52.72410156 33.31382813 -53.29785156 33.08007812 C-55.75521723 32.53921959 -55.75521723 32.53921959 -58.36035156 34.01757812 C-59.10285156 34.59507813 -59.84535156 35.17257813 -60.61035156 35.76757812 C-60.61035156 36.75757813 -60.61035156 37.74757813 -60.61035156 38.76757812 C-61.93035156 38.43757813 -63.25035156 38.10757813 -64.61035156 37.76757812 C-64.61035156 41.28474116 -63.78589572 42.1387956 -61.61035156 44.76757812 C-60.95035156 43.44757812 -60.29035156 42.12757812 -59.61035156 40.76757812 C-56.61035156 41.76757812 -56.61035156 41.76757812 -55.61035156 43.76757812 C-54.95035156 43.76757812 -54.29035156 43.76757812 -53.61035156 43.76757812 C-52.95035156 41.45757812 -52.29035156 39.14757812 -51.61035156 36.76757812 C-49.9436849 38.43424479 -48.27701823 40.10091146 -46.61035156 41.76757812 C-45.62035156 41.10757813 -44.63035156 40.44757812 -43.61035156 39.76757812 C-43.28035156 40.42757812 -42.95035156 41.08757813 -42.61035156 41.76757812 C-42.61035156 40.44757812 -42.61035156 39.12757812 -42.61035156 37.76757812 C-41.62035156 37.76757812 -40.63035156 37.76757812 -39.61035156 37.76757812 C-39.28035156 38.75757813 -38.95035156 39.74757813 -38.61035156 40.76757812 C-37.95035156 40.76757812 -37.29035156 40.76757812 -36.61035156 40.76757812 C-36.89910156 40.12820312 -37.18785156 39.48882812 -37.48535156 38.83007812 C-38.93512406 34.88347521 -39.76813219 30.88011742 -40.61035156 26.76757812 C-41.60035156 26.76757812 -42.59035156 26.76757812 -43.61035156 26.76757812 Z M-33.61035156 35.76757812 C-34.28093043 37.55778422 -34.94669846 39.34979301 -35.61035156 41.14257812 C-35.98160156 42.1403125 -36.35285156 43.13804688 -36.73535156 44.16601562 C-37.71661433 46.62605874 -37.71661433 46.62605874 -37.61035156 48.76757812 C-34.61035156 50.10091146 -34.61035156 50.10091146 -31.61035156 48.76757812 C-31.53380621 44.25140214 -31.5080646 40.17672596 -32.61035156 35.76757812 C-32.94035156 35.76757812 -33.27035156 35.76757812 -33.61035156 35.76757812 Z M-71.61035156 39.76757812 C-71.28035156 41.41757812 -70.95035156 43.06757812 -70.61035156 44.76757812 C-71.60035156 45.26257812 -71.60035156 45.26257812 -72.61035156 45.76757812 C-72.28035156 46.42757812 -71.95035156 47.08757813 -71.61035156 47.76757812 C-68.14535156 47.27257813 -68.14535156 47.27257813 -64.61035156 46.76757812 C-66.48984861 43.19653373 -67.78088313 41.22013512 -71.61035156 39.76757812 Z M-50.61035156 39.76757812 C-51.06410156 40.90195312 -51.51785156 42.03632812 -51.98535156 43.20507812 C-53.61035156 46.76757812 -53.61035156 46.76757812 -55.61035156 47.76757812 C-56.27035156 46.11757813 -56.93035156 44.46757813 -57.61035156 42.76757812 C-59.25590856 43.99566904 -59.25590856 43.99566904 -60.61035156 45.76757812 C-60.38277425 47.93057023 -60.38277425 47.93057023 -59.61035156 49.76757812 C-56.6419016 50.44222584 -54.2968538 50.91601104 -51.29785156 50.26757812 C-49.25221074 48.73316975 -49.25221074 48.73316975 -48.73535156 45.26757812 C-48.69410156 44.11257812 -48.65285156 42.95757812 -48.61035156 41.76757812 C-49.27035156 41.10757813 -49.93035156 40.44757812 -50.61035156 39.76757812 Z M-41.61035156 41.76757812 C-41.61035156 44.07757813 -41.61035156 46.38757812 -41.61035156 48.76757812 C-40.95035156 48.76757812 -40.29035156 48.76757812 -39.61035156 48.76757812 C-39.28035156 46.78757812 -38.95035156 44.80757812 -38.61035156 42.76757812 C-39.60035156 42.43757813 -40.59035156 42.10757813 -41.61035156 41.76757812 Z M-45.61035156 42.76757812 C-47.70385846 46.16952683 -47.78977319 48.82030224 -47.61035156 52.76757812 C-44.32220557 50.04151508 -44.32220557 50.04151508 -43.36035156 46.01757812 C-43.44285156 45.27507813 -43.52535156 44.53257813 -43.61035156 43.76757812 C-44.27035156 43.43757813 -44.93035156 43.10757813 -45.61035156 42.76757812 Z M-3.61035156 44.76757812 C-3.85785156 46.00507812 -4.10535156 47.24257813 -4.36035156 48.51757812 C-5.66273267 53.74557605 -8.19053733 55.82103531 -12.61035156 58.76757812 C-11.29035156 58.76757812 -9.97035156 58.76757812 -8.61035156 58.76757812 C-8.28035156 59.42757812 -7.95035156 60.08757812 -7.61035156 60.76757812 C-4.35763953 58.01528333 -2.77150938 56.37997783 -1.67285156 52.20507812 C-1.61290596 48.90806993 -1.78936057 47.44550606 -3.61035156 44.76757812 Z M-73.61035156 48.76757812 C-72.62035156 50.25257812 -72.62035156 50.25257812 -71.61035156 51.76757812 C-71.61035156 50.77757812 -71.61035156 49.78757813 -71.61035156 48.76757812 C-72.27035156 48.76757812 -72.93035156 48.76757812 -73.61035156 48.76757812 Z M-67.61035156 48.76757812 C-67.61035156 49.09757812 -67.61035156 49.42757812 -67.61035156 49.76757812 C-65.96035156 49.76757812 -64.31035156 49.76757812 -62.61035156 49.76757812 C-62.61035156 49.43757813 -62.61035156 49.10757813 -62.61035156 48.76757812 C-64.26035156 48.76757812 -65.91035156 48.76757812 -67.61035156 48.76757812 Z M-27.61035156 48.76757812 C-26.95035156 50.08757812 -26.29035156 51.40757813 -25.61035156 52.76757812 C-25.28035156 51.77757813 -24.95035156 50.78757813 -24.61035156 49.76757812 C-25.60035156 49.43757813 -26.59035156 49.10757813 -27.61035156 48.76757812 Z M-39.61035156 49.76757812 C-39.94035156 50.75757813 -40.27035156 51.74757812 -40.61035156 52.76757812 C-41.60035156 53.26257813 -41.60035156 53.26257813 -42.61035156 53.76757812 C-40.96035156 53.76757812 -39.31035156 53.76757812 -37.61035156 53.76757812 C-37.28035156 52.77757813 -36.95035156 51.78757812 -36.61035156 50.76757812 C-37.60035156 50.43757813 -38.59035156 50.10757813 -39.61035156 49.76757812 Z M-34.23535156 52.26757812 C-35.01910156 53.09257813 -35.80285156 53.91757813 -36.61035156 54.76757812 C-35.95035156 56.08757812 -35.29035156 57.40757813 -34.61035156 58.76757812 C-33.29035156 58.76757812 -31.97035156 58.76757812 -30.61035156 58.76757812 C-30.61035156 57.77757813 -30.61035156 56.78757812 -30.61035156 55.76757812 C-31.27035156 55.76757812 -31.93035156 55.76757812 -32.61035156 55.76757812 C-32.61035156 55.10757813 -32.61035156 54.44757813 -32.61035156 53.76757812 C-31.29035156 53.43757813 -29.97035156 53.10757813 -28.61035156 52.76757812 C-28.94035156 51.77757813 -29.27035156 50.78757813 -29.61035156 49.76757812 C-31.97313892 49.53769307 -31.97313892 49.53769307 -34.23535156 52.26757812 Z M-44.61035156 50.76757812 C-44.61035156 51.42757812 -44.61035156 52.08757812 -44.61035156 52.76757812 C-43.95035156 52.43757813 -43.29035156 52.10757813 -42.61035156 51.76757812 C-43.27035156 51.43757813 -43.93035156 51.10757813 -44.61035156 50.76757812 Z M-22.61035156 50.76757812 C-23.60035156 52.25257812 -23.60035156 52.25257812 -24.61035156 53.76757812 C-21.7431047 53.19412875 -20.74890006 52.90612662 -18.61035156 50.76757812 C-19.93035156 50.76757812 -21.25035156 50.76757812 -22.61035156 50.76757812 Z M-72.36035156 54.01757812 C-75.03251009 56.69135506 -75.03251009 56.69135506 -74.61035156 60.76757812 C-72.22507827 60.89573177 -72.22507827 60.89573177 -69.61035156 59.76757812 C-67.93836388 57.24090025 -66.75229585 54.56821245 -65.61035156 51.76757812 C-69.68657463 51.3454196 -69.68657463 51.3454196 -72.36035156 54.01757812 Z M-78.29785156 54.26757812 C-78.73097656 54.76257813 -79.16410156 55.25757812 -79.61035156 55.76757812 C-78.29035156 55.76757812 -76.97035156 55.76757812 -75.61035156 55.76757812 C-74.95035156 54.77757813 -74.29035156 53.78757812 -73.61035156 52.76757812 C-76.61294673 52.43539621 -76.61294673 52.43539621 -78.29785156 54.26757812 Z M-60.61035156 52.76757812 C-60.7534375 53.38117188 -60.89652344 53.99476562 -61.04394531 54.62695312 C-61.63736116 56.86965579 -62.51765432 58.7278766 -63.61035156 60.76757812 C-62.55847656 60.02507812 -62.55847656 60.02507812 -61.48535156 59.26757812 C-58.0951077 57.49875524 -56.38588614 57.22821604 -52.61035156 57.76757812 C-49.23535156 59.76757812 -49.23535156 59.76757812 -46.61035156 61.76757812 C-47.21352496 58.38980709 -48.2614241 56.28134261 -50.61035156 53.76757812 C-53.10442408 53.07250422 -53.10442408 53.07250422 -55.79785156 53.01757812 C-56.69890625 52.96085937 -57.59996094 52.90414062 -58.52832031 52.84570312 C-59.21539062 52.81992188 -59.90246094 52.79414062 -60.61035156 52.76757812 Z M-18.61035156 52.76757812 C-19.60035156 54.25257812 -19.60035156 54.25257812 -20.61035156 55.76757812 C-16.35303589 56.17507487 -16.35303589 56.17507487 -12.73535156 54.26757812 C-12.36410156 53.77257812 -11.99285156 53.27757813 -11.61035156 52.76757812 C-15.02677915 52.5174194 -15.02677915 52.5174194 -18.61035156 52.76757812 Z M-29.61035156 54.76757812 C-28.12535156 55.75757812 -28.12535156 55.75757812 -26.61035156 56.76757812 C-25.62035156 56.43757813 -24.63035156 56.10757813 -23.61035156 55.76757812 C-26.58035156 55.27257812 -26.58035156 55.27257812 -29.61035156 54.76757812 Z M-40.61035156 55.76757812 C-39.62035156 57.25257812 -39.62035156 57.25257812 -38.61035156 58.76757812 C-37.95035156 58.43757813 -37.29035156 58.10757813 -36.61035156 57.76757812 C-36.94035156 57.10757813 -37.27035156 56.44757813 -37.61035156 55.76757812 C-38.60035156 55.76757812 -39.59035156 55.76757812 -40.61035156 55.76757812 Z M-43.61035156 56.76757812 C-42.95035156 57.42757812 -42.29035156 58.08757812 -41.61035156 58.76757812 C-41.61035156 58.10757813 -41.61035156 57.44757813 -41.61035156 56.76757812 C-42.27035156 56.76757812 -42.93035156 56.76757812 -43.61035156 56.76757812 Z M-19.61035156 57.76757812 C-17.63035156 58.75757812 -17.63035156 58.75757812 -15.61035156 59.76757812 C-14.95035156 59.10757813 -14.29035156 58.44757813 -13.61035156 57.76757812 C-15.59035156 57.76757812 -17.57035156 57.76757812 -19.61035156 57.76757812 Z M-57.61035156 58.76757812 C-58.27035156 59.42757812 -58.93035156 60.08757812 -59.61035156 60.76757812 C-57.63035156 60.43757813 -55.65035156 60.10757813 -53.61035156 59.76757812 C-55.5021436 59.08609583 -55.5021436 59.08609583 -57.61035156 58.76757812 Z M-44.61035156 59.76757812 C-44.28035156 60.42757812 -43.95035156 61.08757812 -43.61035156 61.76757812 C-42.95035156 61.43757813 -42.29035156 61.10757813 -41.61035156 60.76757812 C-42.60035156 60.43757813 -43.59035156 60.10757813 -44.61035156 59.76757812 Z M-1.61035156 64.76757812 C0.36964844 64.76757812 2.34964844 64.76757812 4.38964844 64.76757812 C4.38964844 63.77757813 4.38964844 62.78757812 4.38964844 61.76757812 C1.62741566 61.76757812 0.4968339 63.08182976 -1.61035156 64.76757812 Z M-63.61035156 52.76757812 C-64.26003906 53.88132812 -64.26003906 53.88132812 -64.92285156 55.01757812 C-65.47972656 55.92507812 -66.03660156 56.83257812 -66.61035156 57.76757812 C-67.04347656 58.51007813 -67.47660156 59.25257812 -67.92285156 60.01757812 C-70.26133977 62.44267701 -72.33408774 62.47635467 -75.61035156 62.76757812 C-76.55898796 65.61348732 -76.88785769 67.90148209 -77.14550781 70.87304688 C-77.23251953 71.85595703 -77.31953125 72.83886719 -77.40917969 73.8515625 C-77.49619141 74.87572266 -77.58320312 75.89988281 -77.67285156 76.95507812 C-77.76373047 77.99083984 -77.85460937 79.02660156 -77.94824219 80.09375 C-78.17218639 82.65142857 -78.39275829 85.20935272 -78.61035156 87.76757812 C-75.73842355 85.0887209 -74.27247883 82.32927941 -72.61035156 78.76757812 C-71.84722656 78.95320313 -71.08410156 79.13882813 -70.29785156 79.33007812 C-65.30765834 79.92213495 -60.58431953 79.34285912 -55.61035156 78.76757812 C-55.94035156 76.12757812 -56.27035156 73.48757812 -56.61035156 70.76757812 C-54.63035156 70.76757812 -52.65035156 70.76757812 -50.61035156 70.76757812 C-50.94035156 71.75757812 -51.27035156 72.74757813 -51.61035156 73.76757812 C-52.60035156 74.09757812 -53.59035156 74.42757812 -54.61035156 74.76757812 C-54.28035156 76.41757813 -53.95035156 78.06757812 -53.61035156 79.76757812 C-55.00060547 79.84105469 -55.00060547 79.84105469 -56.41894531 79.91601562 C-57.61648437 79.99078125 -58.81402344 80.06554687 -60.04785156 80.14257812 C-61.2428125 80.2121875 -62.43777344 80.28179687 -63.66894531 80.35351562 C-64.63960937 80.49015625 -65.61027344 80.62679687 -66.61035156 80.76757812 C-66.94035156 81.42757812 -67.27035156 82.08757812 -67.61035156 82.76757812 C-67.28035156 83.42757812 -66.95035156 84.08757812 -66.61035156 84.76757812 C-64.44160905 84.2615382 -62.6106753 83.76773999 -60.61035156 82.76757812 C-60.61035156 84.08757812 -60.61035156 85.40757813 -60.61035156 86.76757812 C-55.33449082 86.50378509 -52.54850547 84.50634526 -48.57519531 81.32617188 C-46.8243606 79.93733877 -45.05690801 78.71488019 -43.17285156 77.51757812 C-40.53388124 76.0199771 -40.53388124 76.0199771 -39.61035156 73.76757812 C-38.62035156 73.10757813 -37.63035156 72.44757813 -36.61035156 71.76757812 C-37.87298828 71.38666016 -37.87298828 71.38666016 -39.16113281 70.99804688 C-43.55520337 69.43051321 -47.57207984 67.2850247 -51.66308594 65.0703125 C-53.27616631 64.22969315 -54.94146712 63.49110691 -56.61035156 62.76757812 C-57.60035156 63.09757812 -58.59035156 63.42757812 -59.61035156 63.76757812 C-59.61035156 64.42757812 -59.61035156 65.08757812 -59.61035156 65.76757812 C-61.3030944 67.33190599 -63.06605009 68.82086384 -64.86035156 70.26757812 C-65.83488281 71.06164062 -66.80941406 71.85570313 -67.81347656 72.67382812 C-70.05929918 74.35505846 -72.05693186 75.64893711 -74.61035156 76.76757812 C-75.08951823 69.58007812 -75.08951823 69.58007812 -73.17285156 66.33007812 C-69.47938819 64.07796631 -65.87120129 63.94966572 -61.61035156 63.76757812 C-62.60035156 63.10757813 -63.59035156 62.44757813 -64.61035156 61.76757812 C-63.98275291 58.83878441 -63.02412498 56.40662183 -61.61035156 53.76757812 C-62.27035156 53.43757813 -62.93035156 53.10757813 -63.61035156 52.76757812 Z M-49.61035156 62.76757812 C-49.61035156 63.42757812 -49.61035156 64.08757812 -49.61035156 64.76757812 C-48.95035156 64.43757813 -48.29035156 64.10757813 -47.61035156 63.76757812 C-48.27035156 63.43757813 -48.93035156 63.10757813 -49.61035156 62.76757812 Z M-27.61035156 62.76757812 C-27.61035156 63.42757812 -27.61035156 64.08757812 -27.61035156 64.76757812 C-25.13535156 65.26257813 -25.13535156 65.26257813 -22.61035156 65.76757812 C-22.61035156 64.77757813 -22.61035156 63.78757812 -22.61035156 62.76757812 C-24.26035156 62.76757812 -25.91035156 62.76757812 -27.61035156 62.76757812 Z M7.38964844 62.76757812 C8.38964844 64.76757812 8.38964844 64.76757812 8.38964844 64.76757812 Z M-40.61035156 62.76757812 C-41.60035156 63.42757812 -42.59035156 64.08757812 -43.61035156 64.76757812 C-42.29035156 64.76757812 -40.97035156 64.76757812 -39.61035156 64.76757812 C-39.94035156 64.10757813 -40.27035156 63.44757813 -40.61035156 62.76757812 Z M-33.61035156 63.76757812 C-30.5303521 67.43988517 -28.36209136 68.33560178 -23.61035156 68.76757812 C-26.73584746 66.12292775 -29.69823423 64.92343097 -33.61035156 63.76757812 Z M-19.61035156 63.76757812 C-15.61035156 64.76757812 -15.61035156 64.76757812 -15.61035156 64.76757812 Z M-37.61035156 64.76757812 C-37.28035156 65.42757812 -36.95035156 66.08757812 -36.61035156 66.76757812 C-35.62035156 66.43757813 -34.63035156 66.10757813 -33.61035156 65.76757812 C-34.93035156 65.43757813 -36.25035156 65.10757813 -37.61035156 64.76757812 Z M11.38964844 64.76757812 C12.38964844 66.76757812 12.38964844 66.76757812 12.38964844 66.76757812 Z M-72.61035156 67.76757812 C-72.28035156 68.42757812 -71.95035156 69.08757812 -71.61035156 69.76757812 C-69.63035156 69.10757813 -67.65035156 68.44757813 -65.61035156 67.76757812 C-65.61035156 67.43757813 -65.61035156 67.10757813 -65.61035156 66.76757812 C-69.23920481 66.61608514 -69.23920481 66.61608514 -72.61035156 67.76757812 Z M-42.61035156 66.76757812 C-42.61035156 67.42757812 -42.61035156 68.08757812 -42.61035156 68.76757812 C-41.95035156 68.76757812 -41.29035156 68.76757812 -40.61035156 68.76757812 C-40.28035156 69.42757812 -39.95035156 70.08757812 -39.61035156 70.76757812 C-39.28035156 69.44757813 -38.95035156 68.12757812 -38.61035156 66.76757812 C-39.93035156 66.76757812 -41.25035156 66.76757812 -42.61035156 66.76757812 Z M-33.61035156 66.76757812 C-32.61035156 68.76757812 -32.61035156 68.76757812 -32.61035156 68.76757812 Z M-3.61035156 67.76757812 C-2.61035156 69.76757812 -2.61035156 69.76757812 -2.61035156 69.76757812 Z M10.38964844 66.76757812 C8.40964844 67.75757812 8.40964844 67.75757812 6.38964844 68.76757812 C8.03964844 68.76757812 9.68964844 68.76757812 11.38964844 68.76757812 C11.05964844 68.10757813 10.72964844 67.44757813 10.38964844 66.76757812 Z M-73.61035156 69.76757812 C-72.61035156 71.76757812 -72.61035156 71.76757812 -72.61035156 71.76757812 Z M-70.61035156 70.76757812 C-70.94035156 71.42757812 -71.27035156 72.08757812 -71.61035156 72.76757812 C-70.62035156 72.43757813 -69.63035156 72.10757813 -68.61035156 71.76757812 C-69.27035156 71.43757813 -69.93035156 71.10757813 -70.61035156 70.76757812 Z M4.38964844 71.76757812 C5.38964844 73.76757812 5.38964844 73.76757812 5.38964844 73.76757812 Z M-38.61035156 74.76757812 C-38.61035156 75.09757812 -38.61035156 75.42757812 -38.61035156 75.76757812 C-34.32035156 76.09757812 -30.03035156 76.42757812 -25.61035156 76.76757812 C-26.60035156 76.10757813 -27.59035156 75.44757813 -28.61035156 74.76757812 C-29.50753906 74.14882812 -29.50753906 74.14882812 -30.42285156 73.51757812 C-33.60423836 72.42681694 -35.58438757 73.52968377 -38.61035156 74.76757812 Z M12.38964844 74.76757812 C12.71964844 75.42757812 13.04964844 76.08757812 13.38964844 76.76757812 C14.04964844 76.76757812 14.70964844 76.76757812 15.38964844 76.76757812 C15.38964844 76.10757813 15.38964844 75.44757813 15.38964844 74.76757812 C14.39964844 74.76757812 13.40964844 74.76757812 12.38964844 74.76757812 Z M-72.61035156 81.76757812 C-72.94035156 82.42757812 -73.27035156 83.08757812 -73.61035156 83.76757812 C-72.62035156 83.43757813 -71.63035156 83.10757813 -70.61035156 82.76757812 C-71.27035156 82.43757813 -71.93035156 82.10757813 -72.61035156 81.76757812 Z " fill="#0F576D" transform="translate(101.6103515625,15.232421875)"/>
<path d="M0 0 C4.17495539 2.74668118 4.90927827 6.27353919 6 11 C6.4125 10.61328125 6.825 10.2265625 7.25 9.828125 C15.11934 2.73166661 22.43331714 -0.34767871 33.05859375 -0.20703125 C38.71037153 0.19076984 41.65177296 2.42582614 45.3125 6.5 C48.24952602 10.01518075 49.1166341 12.86556905 49.18945312 17.41699219 C49.20617065 18.30932556 49.22288818 19.20165894 49.2401123 20.12103271 C49.25368774 21.08656067 49.26726318 22.05208862 49.28125 23.046875 C49.29965942 24.05026917 49.31806885 25.05366333 49.33703613 26.08746338 C49.395808 29.30824886 49.44849241 32.52909071 49.5 35.75 C49.71397049 48.86619092 49.97539755 61.91924203 51 75 C45.72 75 40.44 75 35 75 C34.98541748 73.43113037 34.97083496 71.86226074 34.95581055 70.24584961 C34.89772327 64.41049713 34.82049005 58.5755263 34.73754883 52.74047852 C34.70434871 50.21775519 34.67630158 47.69495846 34.65356445 45.17211914 C34.61992904 41.54020994 34.56760633 37.90897043 34.51171875 34.27734375 C34.50532883 33.15416245 34.4989389 32.03098114 34.49235535 30.87376404 C34.38005193 24.85654647 34.00669208 20.27565021 31 15 C26.32201166 12.66100583 19.46064978 13.23648648 14.5703125 14.75390625 C12.55587033 15.72311899 10.80030664 16.67431966 9 18 C8.31333252 18.48605713 7.62666504 18.97211426 6.91918945 19.47290039 C3.98342046 23.33858476 4.483656 26.97367666 4.57421875 31.69921875 C4.57915092 33.12365044 4.57915092 33.12365044 4.58418274 34.57685852 C4.59992801 37.61420099 4.64394502 40.6504428 4.6875 43.6875 C4.69899405 45.71288155 4.70877841 47.73827358 4.71679688 49.76367188 C4.73023518 51.72136531 4.74516203 53.6790492 4.76171875 55.63671875 C4.76910568 56.54016525 4.77649261 57.44361176 4.78410339 58.37443542 C4.86705705 63.97990904 5.2994867 69.43714177 6 75 C0.72 75 -4.56 75 -10 75 C-10.01458252 73.24937256 -10.02916504 71.49874512 -10.04418945 69.69506836 C-10.09597107 63.89146631 -10.16129186 58.08810019 -10.23571491 52.28475094 C-10.28031906 48.76838947 -10.31959638 45.2521412 -10.34643555 41.7355957 C-10.37757643 37.686719 -10.43236099 33.63845462 -10.48828125 29.58984375 C-10.49467117 28.33541977 -10.5010611 27.08099579 -10.50764465 25.78855896 C-10.65187821 16.97646295 -10.65187821 16.97646295 -14 9 C-14.99 8.67 -15.98 8.34 -17 8 C-17 6.35 -17 4.7 -17 3 C-11.1762617 0.73521288 -6.27055521 -0.74396418 0 0 Z " fill="#0F576D" transform="translate(233,30)"/>
<path d="M0 0 C4.59811437 3.47939788 6.55851192 7.17440222 8.08203125 12.74609375 C8.48394736 16.14970391 8.4997474 19.51688627 8.48828125 22.94140625 C8.49911743 23.8924826 8.50995361 24.84355896 8.52111816 25.82345581 C8.56669319 29.86028405 8.57845988 33.89704274 8.59326172 37.93408203 C8.60898387 40.89508687 8.64197857 43.85556147 8.67578125 46.81640625 C8.67276001 47.72278839 8.66973877 48.62917053 8.66662598 49.5630188 C8.72686226 54.65448431 9.08788626 58.41693051 12.08203125 62.74609375 C15.65140295 64.19577277 15.65140295 64.19577277 19.08203125 64.74609375 C19.08203125 66.39609375 19.08203125 68.04609375 19.08203125 69.74609375 C7.66573169 73.60512459 7.66573169 73.60512459 2.08203125 72.74609375 C-2.12212836 69.96976193 -4.52294448 67.6286787 -5.91796875 62.74609375 C-6.86671875 63.65359375 -7.81546875 64.56109375 -8.79296875 65.49609375 C-13.98723289 69.92433509 -20.1446266 72.87188084 -27.04296875 73.18359375 C-35.14845314 72.26845842 -39.32394434 69.99357641 -44.5703125 63.68359375 C-47.88766195 58.91430295 -47.33431297 53.3106944 -46.91796875 47.74609375 C-44.86083595 41.06041215 -39.47218747 36.68527548 -33.4765625 33.4140625 C-25.50583101 30.05233819 -15.23325294 28.97433235 -6.91796875 31.74609375 C-6.57913383 23.23757247 -6.3437728 13.92916216 -10.91796875 6.49609375 C-15.256278 3.96541336 -19.01942183 3.74868847 -23.91796875 4.74609375 C-27.54912814 7.26567374 -28.69107602 8.67350994 -29.60546875 12.99609375 C-29.70859375 13.90359375 -29.81171875 14.81109375 -29.91796875 15.74609375 C-32.77121312 17.17271594 -34.75251424 17.05643243 -37.91796875 16.74609375 C-40.79296875 15.18359375 -40.79296875 15.18359375 -42.91796875 12.74609375 C-43.72075355 8.4110558 -43.28428227 6.39030029 -41.10546875 2.55859375 C-31.51747405 -7.34811546 -10.92553331 -7.14276211 0 0 Z M-29.91796875 43.74609375 C-32.51969384 46.85137853 -32.92714945 48.22279377 -32.85546875 52.30859375 C-31.84233563 56.02341517 -30.90141575 57.39549914 -27.91796875 59.74609375 C-24.43330283 61.48842671 -20.72793506 61.20038226 -16.91796875 60.74609375 C-13.03864071 59.3563854 -9.83646324 57.66458824 -6.91796875 54.74609375 C-6.64142487 52.80928239 -6.64142487 52.80928239 -6.72265625 50.61328125 C-6.72910156 49.80761719 -6.73554688 49.00195312 -6.7421875 48.171875 C-6.75894531 47.33011719 -6.77570313 46.48835938 -6.79296875 45.62109375 C-6.80199219 44.77160156 -6.81101562 43.92210937 -6.8203125 43.046875 C-6.84391228 40.94649491 -6.87978392 38.84625931 -6.91796875 36.74609375 C-14.9186516 36.74609375 -23.8195806 38.2896412 -29.91796875 43.74609375 Z " fill="#0F576D" transform="translate(380.91796875,34.25390625)"/>
<path d="M0 0 C1.8203125 1.0703125 1.8203125 1.0703125 3.8203125 3.0703125 C4.46156724 7.77562326 4.38291563 11.89822264 2.3203125 16.1953125 C1.8253125 16.8140625 1.3303125 17.4328125 0.8203125 18.0703125 C-1.03125 17.8125 -1.03125 17.8125 -3.1796875 17.0703125 C-4.453125 15.328125 -4.453125 15.328125 -5.5546875 13.1953125 C-7.89383049 9.24003435 -9.64916365 7.46431984 -14.1796875 6.0703125 C-18.50302309 5.534678 -22.05904249 5.67341739 -26.1796875 7.1328125 C-29.06953973 9.93235684 -29.11043547 12.12294651 -29.1796875 16.0703125 C-28.24172851 18.86852347 -27.46004652 19.88717226 -24.96826172 21.51489258 C-23.61498779 22.17074341 -23.61498779 22.17074341 -22.234375 22.83984375 C-21.23921875 23.33677734 -20.2440625 23.83371094 -19.21875 24.34570312 C-17.13294327 25.35899318 -15.04700872 26.37202019 -12.9609375 27.38476562 C-4.60167413 31.55902503 3.33794414 36.12848282 7.19921875 45.03515625 C8.89401665 50.58855062 8.16747409 55.8262791 5.91015625 61.12109375 C2.1854326 67.78287547 -3.11455144 71.13642679 -10.28125 73.4140625 C-18.13019525 75.19118218 -25.94053014 74.73760691 -33.1796875 71.0703125 C-37.15376704 68.35760429 -40.44206786 65.6607405 -42.1796875 61.0703125 C-42.14955479 58.31819131 -41.63451291 55.79926497 -41.1796875 53.0703125 C-40.5196875 53.0703125 -39.8596875 53.0703125 -39.1796875 53.0703125 C-38.6434375 53.8128125 -38.1071875 54.5553125 -37.5546875 55.3203125 C-33.64524084 59.84704021 -27.68707948 62.7344398 -21.69140625 63.30859375 C-17.10207389 63.42919861 -13.79058545 63.31881336 -9.4921875 61.5703125 C-6.70560116 58.55778673 -6.50371937 57.03841789 -6.48046875 53.0703125 C-8.80077702 46.43345309 -19.46891192 43.25964305 -25.34375 40.40039062 C-32.11800175 36.97939349 -37.89836349 33.28539038 -41.58984375 26.46484375 C-43.09676026 20.34736149 -43.32569045 14.23813743 -40.0546875 8.6953125 C-30.55674451 -4.35101931 -14.27495612 -6.53260704 0 0 Z " fill="#0F576D" transform="translate(182.1796875,32.9296875)"/>
<path d="M0 0 C2.26226519 0.0141171 4.39661693 0.15845871 6.62890625 0.515625 C6.48795561 2.1410558 6.34098538 3.76596551 6.19140625 5.390625 C6.11019531 6.29554687 6.02898437 7.20046875 5.9453125 8.1328125 C5.62890625 10.515625 5.62890625 10.515625 4.62890625 12.515625 C7.90007357 12.37673994 11.17074025 12.22832008 14.44140625 12.078125 C15.37017578 12.03880859 16.29894531 11.99949219 17.25585938 11.95898438 C18.14853516 11.91708984 19.04121094 11.87519531 19.9609375 11.83203125 C20.78311768 11.79537354 21.60529785 11.75871582 22.45239258 11.72094727 C24.80795803 11.58134728 24.80795803 11.58134728 27.62890625 10.515625 C28.11806288 16.87466114 28.11806288 16.87466114 25.81640625 19.890625 C21.6068624 23.01771472 17.45329366 22.63502853 12.44140625 22.578125 C11.69181641 22.57361328 10.94222656 22.56910156 10.16992188 22.56445312 C8.32288242 22.55268854 6.47588412 22.53475365 4.62890625 22.515625 C4.72267666 28.52989153 4.82882352 34.54376669 4.94628906 40.55761719 C4.98449864 42.60215319 5.01936535 44.64675457 5.05078125 46.69140625 C5.09660612 49.63565386 5.15457185 52.57945448 5.21484375 55.5234375 C5.22639496 56.4330423 5.23794617 57.34264709 5.24984741 58.27981567 C5.35953633 63.0297963 5.64020012 67.10900187 7.62890625 71.515625 C11.48916553 73.94207369 15.16650776 73.87549585 19.62890625 73.515625 C23.33812492 72.64964007 26.98495798 71.62264726 30.62890625 70.515625 C30.95490105 75.18821719 30.55566612 77.80839583 27.62890625 81.515625 C20.71937968 86.88970122 14.2114808 88.35133164 5.62890625 87.515625 C-0.5805384 86.23053993 -3.87560827 83.75885321 -7.37109375 78.515625 C-9.85597353 72.91878877 -9.66706675 67.46584636 -9.6796875 61.45703125 C-9.70484253 59.2753879 -9.73024063 57.09374733 -9.75585938 54.91210938 C-9.78460292 51.49113662 -9.80863713 48.07021219 -9.82739258 44.64916992 C-9.84909204 41.33487471 -9.88852779 38.02113366 -9.9296875 34.70703125 C-9.92980331 33.69016739 -9.92991913 32.67330353 -9.93003845 31.62562561 C-10.00999062 25.86469329 -10.4531225 21.5485782 -13.37109375 16.515625 C-14.36109375 16.185625 -15.35109375 15.855625 -16.37109375 15.515625 C-16.37109375 14.525625 -16.37109375 13.535625 -16.37109375 12.515625 C-15.17484375 12.020625 -13.97859375 11.525625 -12.74609375 11.015625 C-9.17216562 9.28812209 -7.53740605 7.60801975 -5.43359375 4.265625 C-3.02115372 0.65698895 -3.02115372 0.65698895 0 0 Z " fill="#0F576D" transform="translate(300.37109375,19.484375)"/>
<path d="M0 0 C2.4375 1.5 2.4375 1.5 4 4 C5.39429718 11.47824739 5.03278152 18.98731037 4.87890625 26.5625 C4.8545621 27.96353316 4.83072081 29.36457514 4.80735779 30.765625 C4.74494357 34.42842768 4.67575948 38.09107144 4.60510254 41.75372314 C4.53403023 45.50110727 4.4694472 49.24860282 4.40429688 52.99609375 C4.27583563 60.33085526 4.13961242 67.66544072 4 75 C-0.95 75 -5.9 75 -11 75 C-10.98428955 73.28490234 -10.9685791 71.56980469 -10.95239258 69.80273438 C-10.90385165 64.11110186 -10.86947089 58.41949924 -10.84456348 52.72771454 C-10.82896372 49.27962086 -10.80783107 45.83175288 -10.77368164 42.38378906 C-10.73459545 38.41213765 -10.72024371 34.44057495 -10.70703125 30.46875 C-10.69154739 29.24136108 -10.67606354 28.01397217 -10.66011047 26.74938965 C-10.65882297 20.15483926 -10.93626095 14.91148831 -14 9 C-14.99 8.67 -15.98 8.34 -17 8 C-17 6.35 -17 4.7 -17 3 C-11.1762617 0.73521288 -6.27055521 -0.74396418 0 0 Z " fill="#0F576D" transform="translate(208,30)"/>
<path d="M0 0 C2.97607422 1.45874023 2.97607422 1.45874023 6.0546875 3.30859375 C7.16328125 3.97310547 8.271875 4.63761719 9.4140625 5.32226562 C9.98157227 5.66942627 10.54908203 6.01658691 11.13378906 6.37426758 C12.88377425 7.4428578 14.64403554 8.49274277 16.40625 9.54101562 C22.76849059 13.3889047 22.76849059 13.3889047 25 15 C25 15.66 25 16.32 25 17 C22.4453125 18.7265625 22.4453125 18.7265625 19.125 20.625 C17.48917969 21.57246094 17.48917969 21.57246094 15.8203125 22.5390625 C13 24 13 24 11 24 C10.505 20.04 10.505 20.04 10 16 C-0.03877527 12.54402819 -6.98533281 12.10540721 -17 16 C-17.33 18.64 -17.66 21.28 -18 24 C-19.32 23.67 -20.64 23.34 -22 23 C-22 25.31 -22 27.62 -22 30 C-23.32 30 -24.64 30 -26 30 C-25.67 26.7 -25.34 23.4 -25 20 C-25.78375 19.690625 -26.5675 19.38125 -27.375 19.0625 C-30 18 -30 18 -32 17 C-32 16.34 -32 15.68 -32 15 C-28.55741009 12.42851077 -24.87586939 10.21474982 -21.22119141 7.95825195 C-19.39248648 6.82335216 -17.5813057 5.66363189 -15.76953125 4.50195312 C-14.60515706 3.77705258 -13.43982069 3.05369482 -12.2734375 2.33203125 C-11.21560059 1.66921143 -10.15776367 1.0063916 -9.06787109 0.32348633 C-5.374196 -1.26997322 -3.81577019 -1.16918792 0 0 Z " fill="#0F576D" transform="translate(206,1)"/>
<path d="M0 0 C3.3 0.33 6.6 0.66 10 1 C9.773125 1.721875 9.54625 2.44375 9.3125 3.1875 C8.79434099 6.03486627 8.79434099 6.03486627 9.9375 8.75 C12.42026411 11.45846993 14.32782511 11.83435988 17.94921875 12.0859375 C20.85212083 11.96429208 23.28895268 11.00190879 26 10 C29.375 9.875 29.375 9.875 32 10 C32.495 11.485 32.495 11.485 33 13 C31.35 13.66 29.7 14.32 28 15 C28 14.34 28 13.68 28 13 C27.34 13 26.68 13 26 13 C25.505 13.825 25.01 14.65 24.5 15.5 C24.005 16.325 23.51 17.15 23 18 C22.34 18 21.68 18 21 18 C21.33 16.68 21.66 15.36 22 14 C20.453125 14.3403125 20.453125 14.3403125 18.875 14.6875 C14.4601524 15.0435361 12.66673694 14.38764266 9 12 C8.34 11.01 7.68 10.02 7 9 C6.66501699 11.33165034 6.66501699 11.33165034 7 14 C8.87027485 16.24432982 10.38886404 17.69443202 13 19 C13 19.66 13 20.32 13 21 C10 22 10 22 0 22 C0 14.74 0 7.48 0 0 Z " fill="#0E566C" transform="translate(65,108)"/>
<path d="M0 0 C0 2.97 0 5.94 0 9 C-1.4025 8.649375 -2.805 8.29875 -4.25 7.9375 C-11.92828133 6.3865527 -19.40204943 7.38076463 -27 9 C-27 6.03 -27 3.06 -27 0 C-16.90769617 -3.41148299 -10.09230383 -3.41148299 0 0 Z " fill="#0F576D" transform="translate(216,17)"/>
<path d="M0 0 C3 0.25 3 0.25 5 2.25 C5.66 1.59 6.32 0.93 7 0.25 C9.68839385 -0.01991906 12.29141936 0.16262643 15 0.25 C15.02687279 2.06242052 15.04633715 3.87495233 15.0625 5.6875 C15.07410156 6.69683594 15.08570313 7.70617187 15.09765625 8.74609375 C15 11.25 15 11.25 14 12.25 C11.66702567 12.29092937 9.33294775 12.29241723 7 12.25 C6.34 10.6 5.68 8.95 5 7.25 C4.34 7.91 3.68 8.57 3 9.25 C0 9.5 0 9.5 -3 9.25 C-5 7.25 -5 7.25 -5.25 4.75 C-4.86630891 0.91308908 -3.76694968 0.31391247 0 0 Z M-1 2.25 C-1.33 3.57 -1.66 4.89 -2 6.25 C-1.01 6.58 -0.02 6.91 1 7.25 C1.33 6.26 1.66 5.27 2 4.25 C1.67 3.59 1.34 2.93 1 2.25 C0.34 2.25 -0.32 2.25 -1 2.25 Z M10 2.25 C9.67 3.57 9.34 4.89 9 6.25 C9.99 6.25 10.98 6.25 12 6.25 C11.67 4.93 11.34 3.61 11 2.25 C10.67 2.25 10.34 2.25 10 2.25 Z " fill="#FF9933" transform="translate(322,112.75)"/>
<path d="M0 0 C1.134375 0.020625 2.26875 0.04125 3.4375 0.0625 C3.7675 1.3825 4.0975 2.7025 4.4375 4.0625 C3.4475 4.0625 2.4575 4.0625 1.4375 4.0625 C1.4375 3.4025 1.4375 2.7425 1.4375 2.0625 C0.4475 2.5575 0.4475 2.5575 -0.5625 3.0625 C1.4175 4.0525 3.3975 5.0425 5.4375 6.0625 C4.5625 10.9375 4.5625 10.9375 3.4375 12.0625 C1.10452567 12.10342937 -1.22955225 12.10491723 -3.5625 12.0625 C-4.2225 10.7425 -4.8825 9.4225 -5.5625 8.0625 C-4.9025 7.4025 -4.2425 6.7425 -3.5625 6.0625 C-3.84854898 4.38707024 -4.18031233 2.71864657 -4.5625 1.0625 C-3.5625 0.0625 -3.5625 0.0625 0 0 Z M-2.5625 7.0625 C-1.5725 8.5475 -1.5725 8.5475 -0.5625 10.0625 C0.4275 9.7325 1.4175 9.4025 2.4375 9.0625 C2.1075 8.4025 1.7775 7.7425 1.4375 7.0625 C0.1175 7.0625 -1.2025 7.0625 -2.5625 7.0625 Z " fill="#FF9933" transform="translate(146.5625,109.9375)"/>
<path d="M0 0 C0.99 0 1.98 0 3 0 C3 3.96 3 7.92 3 12 C-3.0546875 12.1953125 -3.0546875 12.1953125 -5 12 C-5.66 11.34 -6.32 10.68 -7 10 C-6.625 6.375 -6.625 6.375 -6 3 C-4.02 3 -2.04 3 0 3 C0 2.01 0 1.02 0 0 Z M-3 5 C-3.33 6.32 -3.66 7.64 -4 9 C-3.01 9 -2.02 9 -1 9 C-1 8.01 -1 7.02 -1 6 C-1.66 5.67 -2.32 5.34 -3 5 Z " fill="#FF9933" transform="translate(375,110)"/>
<path d="M0 0 C0.99 0 1.98 0 3 0 C3 3.96 3 7.92 3 12 C-3.0546875 12.1953125 -3.0546875 12.1953125 -5 12 C-7 10 -7 10 -7.25 7.5 C-7 5 -7 5 -5 3 C-2.375 2.875 -2.375 2.875 0 3 C0 2.01 0 1.02 0 0 Z M-3 5 C-3.33 5.99 -3.66 6.98 -4 8 C-3.67 8.66 -3.34 9.32 -3 10 C-2.01 9.67 -1.02 9.34 0 9 C-0.33 7.68 -0.66 6.36 -1 5 C-1.66 5 -2.32 5 -3 5 Z " fill="#FF9933" transform="translate(241,110)"/>
<path d="M0 0 C1.010625 0.0825 2.02125 0.165 3.0625 0.25 C5.21059171 3.47213757 5.35636153 4.52775401 5.0625 8.25 C4.0625 9.25 4.0625 9.25 0.625 9.5 C-0.550625 9.4175 -1.72625 9.335 -2.9375 9.25 C-4.9375 6.25 -4.9375 6.25 -4.625 3.625 C-3.63837192 0.21664846 -3.64560971 0.31026466 0 0 Z M0.0625 2.25 C-0.2675 2.91 -0.5975 3.57 -0.9375 4.25 C0.0525 3.92 1.0425 3.59 2.0625 3.25 C1.4025 2.92 0.7425 2.59 0.0625 2.25 Z " fill="#FF9933" transform="translate(264.9375,112.75)"/>
<path d="M0 0 C0.99 0 1.98 0 3 0 C3 0.99 3 1.98 3 3 C3.804375 2.979375 4.60875 2.95875 5.4375 2.9375 C8 3 8 3 9 4 C9.14115161 6.67058851 9.04247107 9.32432238 9 12 C8.01 12 7.02 12 6 12 C5.67 10.02 5.34 8.04 5 6 C4.67 6 4.34 6 4 6 C3.67 7.98 3.34 9.96 3 12 C2.01 12 1.02 12 0 12 C0 8.04 0 4.08 0 0 Z " fill="#FF9933" transform="translate(281,110)"/>
<path d="M0 0 C1.175625 0.0825 2.35125 0.165 3.5625 0.25 C5.5625 3.25 5.5625 3.25 5.25 5.875 C4.5625 8.25 4.5625 8.25 3.5625 9.25 C-1.96691176 9.48529412 -1.96691176 9.48529412 -4.4375 8.25 C-4.47991723 5.91705225 -4.47842937 3.58297433 -4.4375 1.25 C-3.4375 0.25 -3.4375 0.25 0 0 Z M-0.4375 2.25 C-0.7675 3.57 -1.0975 4.89 -1.4375 6.25 C-0.4475 6.25 0.5425 6.25 1.5625 6.25 C1.2325 4.93 0.9025 3.61 0.5625 2.25 C0.2325 2.25 -0.0975 2.25 -0.4375 2.25 Z " fill="#FF9933" transform="translate(306.4375,112.75)"/>
<path d="M0 0 C2.31 0 4.62 0 7 0 C8.4783226 2.95664519 8.06032783 5.74229737 8 9 C5.03 9 2.06 9 -1 9 C-1.33 8.01 -1.66 7.02 -2 6 C-0.68 5.01 0.64 4.02 2 3 C1.01 3 0.02 3 -1 3 C-0.67 2.01 -0.34 1.02 0 0 Z " fill="#FF9933" transform="translate(215,113)"/>
<path d="M0 0 C2.9375 0.1875 2.9375 0.1875 3.9375 1.1875 C4.0625 4.6875 4.0625 4.6875 3.9375 8.1875 C2.9375 9.1875 2.9375 9.1875 0 9.375 C-3.0625 9.1875 -3.0625 9.1875 -5.0625 7.1875 C-5.3125 4.6875 -5.3125 4.6875 -5.0625 2.1875 C-3.0625 0.1875 -3.0625 0.1875 0 0 Z M-1.0625 2.1875 C-1.3925 2.8475 -1.7225 3.5075 -2.0625 4.1875 C-1.0725 3.8575 -0.0825 3.5275 0.9375 3.1875 C0.2775 2.8575 -0.3825 2.5275 -1.0625 2.1875 Z " fill="#FF9933" transform="translate(384.0625,112.8125)"/>
<path d="M0 0 C2.9375 0.1875 2.9375 0.1875 3.9375 1.1875 C4.0625 4.6875 4.0625 4.6875 3.9375 8.1875 C2.9375 9.1875 2.9375 9.1875 0 9.375 C-3.0625 9.1875 -3.0625 9.1875 -5.0625 7.1875 C-5.3125 4.6875 -5.3125 4.6875 -5.0625 2.1875 C-3.0625 0.1875 -3.0625 0.1875 0 0 Z M-1.0625 2.1875 C-1.3925 2.8475 -1.7225 3.5075 -2.0625 4.1875 C-1.0725 3.8575 -0.0825 3.5275 0.9375 3.1875 C0.2775 2.8575 -0.3825 2.5275 -1.0625 2.1875 Z " fill="#FF9933" transform="translate(204.0625,112.8125)"/>
<path d="M0 0 C2.9375 0.1875 2.9375 0.1875 3.9375 1.1875 C4.0625 4.6875 4.0625 4.6875 3.9375 8.1875 C2.9375 9.1875 2.9375 9.1875 0 9.375 C-3.0625 9.1875 -3.0625 9.1875 -5.0625 7.1875 C-5.3125 4.6875 -5.3125 4.6875 -5.0625 2.1875 C-3.0625 0.1875 -3.0625 0.1875 0 0 Z M-1.0625 2.1875 C-1.3925 2.8475 -1.7225 3.5075 -2.0625 4.1875 C-1.0725 3.8575 -0.0825 3.5275 0.9375 3.1875 C0.2775 2.8575 -0.3825 2.5275 -1.0625 2.1875 Z " fill="#FF9933" transform="translate(173.0625,112.8125)"/>
<path d="M0 0 C2.64 0 5.28 0 8 0 C9.4783226 2.95664519 9.06032783 5.74229737 9 9 C7.68 8.67 6.36 8.34 5 8 C4.67 6.35 4.34 4.7 4 3 C3.67 4.98 3.34 6.96 3 9 C2.01 9 1.02 9 0 9 C0 6.03 0 3.06 0 0 Z " fill="#FF9933" transform="translate(292,113)"/>
<path d="M0 0 C6.15234375 -0.09765625 6.15234375 -0.09765625 8 0 C9 1 9 1 9.09765625 2.84765625 C9.04882812 5.92382812 9.04882812 5.92382812 9 9 C8.01 9 7.02 9 6 9 C5.67 7.02 5.34 5.04 5 3 C4.34 4.98 3.68 6.96 3 9 C2.01 8.67 1.02 8.34 0 8 C0 5.36 0 2.72 0 0 Z " fill="#FF9933" transform="translate(178,113)"/>
<path d="M0 0 C0.99 0 1.98 0 3 0 C3.66 0.99 4.32 1.98 5 3 C5.33 2.01 5.66 1.02 6 0 C6.99 0 7.98 0 9 0 C8.45660208 4.56454251 7.20536179 7.9728176 5 12 C3.35 12 1.7 12 0 12 C0 11.34 0 10.68 0 10 C0.66 9.67 1.32 9.34 2 9 C1.34 6.03 0.68 3.06 0 0 Z " fill="#FF9933" transform="translate(338,113)"/>
<path d="M0 0 C1.134375 0.020625 2.26875 0.04125 3.4375 0.0625 C3.7675 1.3825 4.0975 2.7025 4.4375 4.0625 C2.7875 3.7325 1.1375 3.4025 -0.5625 3.0625 C-0.2325 4.0525 0.0975 5.0425 0.4375 6.0625 C1.7575 5.7325 3.0775 5.4025 4.4375 5.0625 C4.1075 6.3825 3.7775 7.7025 3.4375 9.0625 C1.10455225 9.10491723 -1.22952567 9.10342937 -3.5625 9.0625 C-4.5625 8.0625 -4.5625 8.0625 -4.6875 4.5625 C-4.52739028 0.0794279 -4.52739028 0.0794279 0 0 Z " fill="#FF9933" transform="translate(275.5625,112.9375)"/>
<path d="M0 0 C1.134375 0.020625 2.26875 0.04125 3.4375 0.0625 C3.7675 1.3825 4.0975 2.7025 4.4375 4.0625 C2.7875 3.7325 1.1375 3.4025 -0.5625 3.0625 C-0.2325 4.0525 0.0975 5.0425 0.4375 6.0625 C1.7575 5.7325 3.0775 5.4025 4.4375 5.0625 C4.1075 6.3825 3.7775 7.7025 3.4375 9.0625 C1.10455225 9.10491723 -1.22952567 9.10342937 -3.5625 9.0625 C-4.5625 8.0625 -4.5625 8.0625 -4.6875 4.5625 C-4.52739028 0.0794279 -4.52739028 0.0794279 0 0 Z " fill="#FF9933" transform="translate(193.5625,112.9375)"/>
<path d="M0 0 C6.15234375 -0.09765625 6.15234375 -0.09765625 8 0 C9 1 9 1 9.09765625 2.84765625 C9.04882812 5.92382812 9.04882812 5.92382812 9 9 C8.01 9 7.02 9 6 9 C5.67 7.02 5.34 5.04 5 3 C4.67 3 4.34 3 4 3 C3.67 4.98 3.34 6.96 3 9 C2.01 9 1.02 9 0 9 C0 6.03 0 3.06 0 0 Z " fill="#FF9933" transform="translate(358,113)"/>
<path d="M0 0 C6.15234375 -0.09765625 6.15234375 -0.09765625 8 0 C9 1 9 1 9.09765625 2.84765625 C9.04882812 5.92382812 9.04882812 5.92382812 9 9 C8.01 9 7.02 9 6 9 C5.67 7.02 5.34 5.04 5 3 C4.67 3 4.34 3 4 3 C3.67 4.98 3.34 6.96 3 9 C2.01 9 1.02 9 0 9 C0 6.03 0 3.06 0 0 Z " fill="#FF9933" transform="translate(224,113)"/>
<path d="M0 0 C0.94875 0.04125 1.8975 0.0825 2.875 0.125 C3.205 1.445 3.535 2.765 3.875 4.125 C2.225 3.795 0.575 3.465 -1.125 3.125 C-0.795 4.115 -0.465 5.105 -0.125 6.125 C1.195 5.795 2.515 5.465 3.875 5.125 C3.545 6.445 3.215 7.765 2.875 9.125 C0 9.25 0 9.25 -3.125 9.125 C-5.125 7.125 -5.125 7.125 -5.375 4.625 C-4.98192433 0.69424327 -3.8631953 0.15452781 0 0 Z " fill="#FF9933" transform="translate(158.125,112.875)"/>
<path d="M0 0 C0.86625 0.2784375 0.86625 0.2784375 1.75 0.5625 C4.20692525 1.04023546 5.64397534 0.75729364 8 0 C7.79375 0.7425 7.5875 1.485 7.375 2.25 C6.95591249 5.32330841 7.38050989 6.42786866 9 9 C8.2575 8.814375 7.515 8.62875 6.75 8.4375 C4.05009037 8.00796892 2.55368923 8.14877026 0 9 C0.185625 8.2575 0.37125 7.515 0.5625 6.75 C0.99203108 4.05009037 0.85122974 2.55368923 0 0 Z " fill="#FF9933" transform="translate(389,113)"/>
<path d="M0 0 C3.63 0 7.26 0 11 0 C11 0.66 11 1.32 11 2 C9.68 2 8.36 2 7 2 C7 5.3 7 8.6 7 12 C6.01 12 5.02 12 4 12 C4 8.7 4 5.4 4 2 C2.68 2 1.36 2 0 2 C0 1.34 0 0.68 0 0 Z " fill="#FF9933" transform="translate(249,110)"/>
<path d="M0 0 C0.99 0 1.98 0 3 0 C3 3.96 3 7.92 3 12 C2.01 12 1.02 12 0 12 C0 8.04 0 4.08 0 0 Z " fill="#FF9933" transform="translate(353,110)"/>
<path d="M0 0 C0.99 0 1.98 0 3 0 C3 3.96 3 7.92 3 12 C2.01 12 1.02 12 0 12 C0 8.04 0 4.08 0 0 Z " fill="#FF9933" transform="translate(313,110)"/>
<path d="M0 0 C0.99 0 1.98 0 3 0 C3 2.97 3 5.94 3 9 C1.68 8.67 0.36 8.34 -1 8 C-1.04241723 5.66705225 -1.04092937 3.33297433 -1 1 C-0.67 0.67 -0.34 0.34 0 0 Z " fill="#FF9933" transform="translate(164,113)"/>
<path d="M0 0 C0.99 0 1.98 0 3 0 C3 0.66 3 1.32 3 2 C1.68 1.67 0.36 1.34 -1 1 C-0.67 0.67 -0.34 0.34 0 0 Z " fill="#FF9933" transform="translate(164,110)"/>
</svg>
