<?xml version="1.0" encoding="iso-8859-1"?>
<!-- Uploaded to: SVG Repo, www.svgrepo.com, Generator: SVG Repo Mixer Tools -->
<svg height="800px" width="800px" version="1.1" id="Layer_1" xmlns="http://www.w3.org/2000/svg" xmlns:xlink="http://www.w3.org/1999/xlink" 
	 viewBox="0 0 240.736 240.736" xml:space="preserve">
<g>
	<path style="fill:#0071BC;" d="M232.781,105.073c6.508,2.063,6.142,8.938,3.208,13.934c-8.709,14.759-27.776,27.959-45.055,33.597
		c0.458,22.596-1.467,50.556-16.501,67.881c-15.125,17.371-42.259,21.817-64.031,19.801c-21.588-2.017-43.543-10.68-54.222-30.755
		c-8.617-16.271-11.596-42.81-4.308-61.098c-8.846-1.467-17.463-5.088-25.117-9.396c-8.25-4.675-19.48-11.504-23.101-20.855
		c-2.567-6.784,0.275-13.796,7.654-15.08c3.071-0.55,6.096-0.092,8.938,1.008c-2.475-17.05-1.833-34.514-0.825-51.656
		C20.2,39.574,19.375,23.578,29,13.495c20.626-21.588,68.981-8.938,94.924-9.442c22.138-0.458,74.023-13.017,90.386,8.525
		c8.892,11.734,5.546,34.788,6.096,48.355c0.688,16.455,0.688,32.772-0.321,49.089C223.752,106.402,228.198,103.606,232.781,105.073
		z M202.301,118.41c1.283-23.513,5.088-50.281-0.367-72.373c-7.792-31.58-59.768-22.367-85.115-22.826
		c-12.696-0.229-25.438-0.413-38.134-0.367C58.38,22.982,40.826,21.79,37.892,46.632c-2.704,23.101-1.467,46.293-2.796,69.348
		c0.55,0.138,1.1,0.321,1.604,0.733c20.488,17.28,38.822,13.796,63.71,15.125c9.442,0.504,17.234,2.979,21.496,10.313
		c4.721-7.059,12.375-10.542,21.634-11.688c12.054-1.467,24.063,1.192,36.072-1.513C188.276,127.027,195.151,122.902,202.301,118.41
		z"/>
	<path style="fill:#0071BC;" d="M169.484,79.222c11.229,10.267,14.438,31.213-0.275,39.83c-5.5,3.254-11.871,4.171-17.6,3.071
		c-4.95,0.963-10.359-1.192-14.346-4.859c-6.417-5.958-9.442-15.217-7.975-23.834C132.403,75.005,155.55,66.434,169.484,79.222z"/>
	<path style="fill:#0071BC;" d="M75.248,77.938c18.746-13.384,44.414,1.65,42.443,24.384c-0.825,9.304-6.784,18.563-16.226,20.946
		c-3.804,0.917-7.838,1.008-11.779,0.275C68.097,122.811,56.272,91.46,75.248,77.938z"/>
</g>
</svg>