<?xml version="1.0" encoding="UTF-8"?>
<svg version="1.1" xmlns="http://www.w3.org/2000/svg" width="256" height="256">
<path d="M0 0 C84.48 0 168.96 0 256 0 C256 84.48 256 168.96 256 256 C171.52 256 87.04 256 0 256 C0 171.52 0 87.04 0 0 Z " fill="#009E00" transform="translate(0,0)"/>
<path d="M0 0 C10.56 0 21.12 0 32 0 C32 5.28 32 10.56 32 16 C37.28 16 42.56 16 48 16 C48 21.28 48 26.56 48 32 C53.28 32 58.56 32 64 32 C64 37.28 64 42.56 64 48 C69.28 48 74.56 48 80 48 C80 53.28 80 58.56 80 64 C85.28 64 90.56 64 96 64 C96 69.28 96 74.56 96 80 C101.28 80 106.56 80 112 80 C112 85.28 112 90.56 112 96 C117.28 96 122.56 96 128 96 C128 101.28 128 106.56 128 112 C133.28 112 138.56 112 144 112 C144 117.28 144 122.56 144 128 C149.28 128 154.56 128 160 128 C160 133.28 160 138.56 160 144 C165.28 144 170.56 144 176 144 C176 149.28 176 154.56 176 160 C181.28 160 186.56 160 192 160 C192 170.56 192 181.12 192 192 C181.44 192 170.88 192 160 192 C160 186.72 160 181.44 160 176 C154.72 176 149.44 176 144 176 C144 170.72 144 165.44 144 160 C138.72 160 133.44 160 128 160 C128 154.72 128 149.44 128 144 C122.72 144 117.44 144 112 144 C112 138.72 112 133.44 112 128 C106.72 128 101.44 128 96 128 C96 122.72 96 117.44 96 112 C90.72 112 85.44 112 80 112 C80 106.72 80 101.44 80 96 C74.72 96 69.44 96 64 96 C64 90.72 64 85.44 64 80 C58.72 80 53.44 80 48 80 C48 74.72 48 69.44 48 64 C42.72 64 37.44 64 32 64 C32 58.72 32 53.44 32 48 C26.72 48 21.44 48 16 48 C16 42.72 16 37.44 16 32 C10.72 32 5.44 32 0 32 C0 21.44 0 10.88 0 0 Z " fill="#3C0231" transform="translate(32,32)"/>
<path d="M0 0 C10.56 0 21.12 0 32 0 C32 10.56 32 21.12 32 32 C26.72 32 21.44 32 16 32 C16 37.28 16 42.56 16 48 C10.72 48 5.44 48 0 48 C0 53.28 0 58.56 0 64 C-10.56 64 -21.12 64 -32 64 C-32 53.44 -32 42.88 -32 32 C-26.72 32 -21.44 32 -16 32 C-16 26.72 -16 21.44 -16 16 C-10.72 16 -5.44 16 0 16 C0 10.72 0 5.44 0 0 Z " fill="#3B0330" transform="translate(64,160)"/>
<path d="M0 0 C10.56 0 21.12 0 32 0 C32 10.56 32 21.12 32 32 C26.72 32 21.44 32 16 32 C16 37.28 16 42.56 16 48 C10.72 48 5.44 48 0 48 C0 53.28 0 58.56 0 64 C-10.56 64 -21.12 64 -32 64 C-32 53.44 -32 42.88 -32 32 C-26.72 32 -21.44 32 -16 32 C-16 26.72 -16 21.44 -16 16 C-10.72 16 -5.44 16 0 16 C0 10.72 0 5.44 0 0 Z " fill="#3B0330" transform="translate(192,32)"/>
</svg>
